<svg xmlns="http://www.w3.org/2000/svg" xmlns:xlink="http://www.w3.org/1999/xlink" width="281.702" height="200" viewBox="0 0 281.702 200">
  <defs>
    <linearGradient id="linear-gradient" x1="0.553" y1="0.5" x2="-1.444" y2="0.487" gradientUnits="objectBoundingBox">
      <stop offset="0" stop-color="#00347f"/>
      <stop offset="1" stop-color="#a5bff0"/>
    </linearGradient>
  </defs>
  <g id="Group_3868" data-name="Group 3868" transform="translate(-30.681 -227.19)">
    <path id="Path_4424" data-name="Path 4424" d="M78.406,236.193c71.653-29.366,111.984,52.274,157.676,56.994,46.94,4.848,59.142,46.731,16.68,85.871-41.339,38.1-95.429,48.917-129.022,44.913C68.2,417.352,19.852,361.02,45.9,332.355,69.411,306.483,31.081,255.588,78.406,236.193Z" transform="translate(0.111 0.019)" fill="#e4e9f1"/>
    <path id="Path_4429" data-name="Path 4429" d="M136.774,427.19a121.286,121.286,0,0,1-14.316-.813c-40.65-4.844-74.87-34.336-84.47-60.05C32.94,352.8,34.561,340.932,42.676,332c9.905-10.9,8.915-26.008,7.869-42-1.439-21.952-2.925-44.652,25.5-56.3l.19.466-.19-.466c45.991-18.849,79.643,7.009,109.333,29.824,17.762,13.648,34.539,26.539,51.89,28.331,21.734,2.243,37.141,12.38,42.268,27.806,6.1,18.359-2.991,40.5-24.949,60.735C218.711,413.463,172.139,427.19,136.774,427.19ZM107.35,228.218a80.854,80.854,0,0,0-30.925,6.412c-27.753,11.373-26.29,33.705-24.876,55.3,1.015,15.5,2.065,31.529-8.127,42.746-7.845,8.634-9.4,20.146-4.489,33.3,9.493,25.432,43.376,54.605,83.645,59.4,36.02,4.285,90.6-8.181,131.327-45.724,21.653-19.96,30.647-41.711,24.675-59.677-5-15.035-20.093-24.92-41.416-27.123-17.635-1.821-34.522-14.8-52.4-28.535C162.4,247.138,137.779,228.218,107.35,228.218Z" transform="translate(0.085)" fill="#b1c1d8"/>
    <g id="Group_3716" data-name="Group 3716" transform="translate(248.014 279.608)">
      <path id="Path_4432" data-name="Path 4432" d="M267.451,328.471s9.755.949,15.312.832,8.314.171,9.766-2.694c1.442-2.841-1.456-4.344-5.916-4.423S267.451,328.471,267.451,328.471Z" transform="translate(-246.218 -278.908)" fill="#d5e9fe"/>
      <path id="Path_4433" data-name="Path 4433" d="M265.651,329.4A54.149,54.149,0,0,0,267,317.938c-.17-4.889-2.109-12.782,3.11-12.7,4.475.076,2.584,9.182.983,12.961C270.029,320.716,265.651,329.4,265.651,329.4Z" transform="translate(-246.231 -279.033)" fill="#dde0f3"/>
      <path id="Path_4434" data-name="Path 4434" d="M280.318,307.37c1.2-3.711,3.222-8.818,3.844-11.121s1.961-7.61-2.988-9.092c-2.4-.719-3.933,4.675-3.537,9.257C278.066,301.352,279.123,311.081,280.318,307.37Z" transform="translate(-246.144 -279.166)" fill="#d5e9fe"/>
      <path id="Path_4435" data-name="Path 4435" d="M291.262,297.276s4.307-2.3,8.414-4.668,12.037-7.209,10.554-11.146c-1.562-4.149-6.536-1.671-8.7.585S291.262,297.276,291.262,297.276Z" transform="translate(-246.043 -279.224)" fill="#d5e9fe"/>
      <g id="Group_3715" data-name="Group 3715" transform="translate(0 0.94)">
        <path id="Path_4436" data-name="Path 4436" d="M280.06,309.365c.026-.161,2.565-16.177,1.506-21.8a.159.159,0,0,0-.312.059c1.049,5.568-1.482,21.529-1.507,21.69a.156.156,0,0,0,.047.14.158.158,0,0,0,.266-.09Z" transform="translate(-246.128 -280.104)" fill="#b1c1d8"/>
        <path id="Path_4437" data-name="Path 4437" d="M246.447,345.752a.277.277,0,0,1-.043-.057.238.238,0,0,1,.093-.323,89.6,89.6,0,0,0,8.137-5.293c4.156-3.017,9.964-7.762,14.03-13.238,3.28-4.417,5.7-8.407,7.841-11.928,3.085-5.076,5.748-9.461,9.965-13.656,5.608-5.578,22.714-20.885,22.886-21.039a.238.238,0,0,1,.317.356c-.172.154-17.269,15.453-22.867,21.022-4.177,4.153-6.826,8.515-9.893,13.565-2.144,3.529-4.573,7.529-7.867,11.964-4.1,5.526-9.953,10.306-14.137,13.344a89.974,89.974,0,0,1-8.18,5.32A.24.24,0,0,1,246.447,345.752Z" transform="translate(-246.373 -280.157)" fill="#b1c1d8"/>
        <path id="Path_4438" data-name="Path 4438" d="M251.737,342.357a4.179,4.179,0,0,0,.4-.834,88.065,88.065,0,0,0,4.137-9.987c.043-.139.093-.3.149-.481,1.143-3.673,4.623-14.851,1.781-18.33a3.065,3.065,0,0,0-2.861-1.038c-3.067.31-4.241,5.606-4.667,8.735-.584,4.282.6,12,1.3,15.488a10.846,10.846,0,0,1,.041,4.589c-.216.633-.393,1.115-.482,1.353-.092.189-.148.3-.148.3a.2.2,0,0,0,.04.231A.207.207,0,0,0,251.737,342.357Zm4.162-10.938a69.868,69.868,0,0,1-2.891,7.292,26.885,26.885,0,0,0,.913-4.113c.139-1.142.536-4.3.991-7.9l3.076-2.814c-.653,2.915-1.493,5.612-1.94,7.05C255.993,331.118,255.943,331.279,255.9,331.419Zm1.784-18.679a2.591,2.591,0,0,1,.218.237c1.144,1.4,1.315,4.376.508,8.844-.085.468-.177.938-.276,1.4-.035.026-3.144,2.869-3.144,2.869.064-.506.13-1.018.194-1.534a.2.2,0,0,0,.071-.24l-.03-.073c.741-5.857,1.514-11.93,1.528-12.038A2.121,2.121,0,0,1,257.683,312.741Zm-2.3-.658a3.791,3.791,0,0,1,.986.019.181.181,0,0,0-.016.056c-.013.1-.727,5.716-1.442,11.352l-2.971-7.118a13.818,13.818,0,0,1,.563-1.51C253.288,313.14,254.257,312.2,255.388,312.083ZM251.767,317l3.048,7.3c-.077.605-.153,1.208-.229,1.8l-3.63-4.3c.023-.474.062-.919.118-1.326A27.291,27.291,0,0,1,251.767,317Zm-.832,5.394,3.584,4.248c-.143,1.136-.282,2.229-.408,3.229l-3.084-3.987C250.945,324.646,250.908,323.458,250.935,322.392Zm1.439,13.439a82.938,82.938,0,0,1-1.293-9.233l2.96,3.828c-.24,1.9-.426,3.409-.513,4.124a26.293,26.293,0,0,1-.877,3.971A13.078,13.078,0,0,0,252.374,335.832Z" transform="translate(-246.343 -279.925)" fill="#b1c1d8"/>
        <path id="Path_4439" data-name="Path 4439" d="M305.046,308.448a3.217,3.217,0,0,0-1.233-2.477c-1.691-1.234-4.83-.717-7.678-.048-3.487.818-19.572,9.588-20.255,9.961a.161.161,0,0,0-.073.083l-.115.048a.158.158,0,0,0-.083.209.138.138,0,0,0,.035.052.158.158,0,0,0,.173.031s.1-.042.273-.114c1.391.1,11.153.806,16.439.3l.2.078a.159.159,0,0,0,.206-.09,17.724,17.724,0,0,0,1.765-.342,32.923,32.923,0,0,0,3.143-1.03l.137.06a.158.158,0,0,0,.21-.081.159.159,0,0,0,0-.118c.447-.178.9-.376,1.364-.59a.162.162,0,0,0,.222-.073c.615-.328,1.214-.65,1.786-1C304.012,311.787,305.182,310.155,305.046,308.448ZM288.172,309.8l-3.766,3.137-.087.025c-2.661.817-4.849,1.594-6.355,2.161C280.3,313.862,284.394,311.686,288.172,309.8Zm-11.408,6.126c1.345-.532,4.046-1.552,7.6-2.644l7.492,2.947A132.248,132.248,0,0,1,276.764,315.921Zm17.854-.093a12.96,12.96,0,0,1-2.044.334l-7.717-3.036c1.53-.461,3.3-.96,5.246-1.448.018.01,7.325,3.242,7.325,3.242C296.526,315.259,295.578,315.567,294.617,315.829Zm3.231-1.069-7.244-3.2q1.018-.249,2.1-.493a.157.157,0,0,0,.045.146.131.131,0,0,0,.043.029l6.388,2.962Q298.536,314.49,297.848,314.76Zm1.705-.735-6.54-3.031a91.022,91.022,0,0,1,11.349-1.805.159.159,0,1,0-.029-.316,100.85,100.85,0,0,0-19.148,3.825l4.087-3.4a.154.154,0,0,0,.046-.068,47.5,47.5,0,0,1,6.889-2.995c2.615-.614,5.822-1.17,7.418-.005a2.582,2.582,0,0,1,.259.217,3.014,3.014,0,0,1,.844,2.031c.126,1.578-.994,3.111-3.33,4.556A19.24,19.24,0,0,1,299.553,314.024Z" transform="translate(-246.158 -279.973)" fill="#b1c1d8"/>
        <path id="Path_4440" data-name="Path 4440" d="M265.721,330.092c.015-.045,1.516-4.635,2.827-9.921q.7-2.841,1.16-5.212a.161.161,0,0,0,.131-.06l2.936-3.71a.159.159,0,1,0-.25-.2l-2.716,3.433c.752-4.077.928-7.048.519-8.866a.159.159,0,0,0-.31.07c.442,1.967.12,5.2-.52,8.685l-2.536-2.955a.159.159,0,0,0-.242.207l2.7,3.148a144.967,144.967,0,0,1-4,15.279.159.159,0,0,0,.04.164.167.167,0,0,0,.06.036A.159.159,0,0,0,265.721,330.092Z" transform="translate(-246.233 -279.971)" fill="#b1c1d8"/>
        <path id="Path_4441" data-name="Path 4441" d="M292.779,324.81a.158.158,0,0,0-.161-.156,131.746,131.746,0,0,0-14.222,1.534l3.222-2.684a.161.161,0,0,0,.021-.225.158.158,0,0,0-.224-.02l-3.43,2.848a.16.16,0,0,0-.054.149c-5.514.821-10.217,1.651-10.308,1.667a.158.158,0,0,0-.082.271.157.157,0,0,0,.137.042c.074-.013,3.077-.544,7.082-1.174.057.05,4.067,2.107,4.067,2.107a.159.159,0,1,0,.145-.283l-3.709-1.9c.982-.153,2.016-.311,3.078-.467l5.007,2.636a.159.159,0,0,0,.148-.281l-4.622-2.434a128.032,128.032,0,0,1,13.751-1.468A.158.158,0,0,0,292.779,324.81Z" transform="translate(-246.218 -279.84)" fill="#b1c1d8"/>
      </g>
    </g>
    <g id="Group_3717" data-name="Group 3717" transform="translate(65.091 276.357)">
      <rect id="Rectangle_1431" data-name="Rectangle 1431" width="183.136" height="119.721" rx="3.764" transform="translate(0.357 0.309)" fill="#fff"/>
      <path id="Path_4443" data-name="Path 4443" d="M244.49,377.5H68.936a3.9,3.9,0,0,1-4.148-3.584V260.744a3.9,3.9,0,0,1,4.148-3.584H244.489a3.9,3.9,0,0,1,4.149,3.584V373.915A3.9,3.9,0,0,1,244.49,377.5ZM68.936,257.777a3.229,3.229,0,0,0-3.434,2.967v113.17a3.229,3.229,0,0,0,3.434,2.967H244.49a3.229,3.229,0,0,0,3.434-2.966V260.744a3.23,3.23,0,0,0-3.435-2.967Z" transform="translate(-64.788 -257.16)" fill="#00347f"/>
    </g>
    <g id="Group_3718" data-name="Group 3718" transform="translate(39.894 306.763)">
      <path id="Path_4444" data-name="Path 4444" d="M41.072,306.431H66.736c.577,0,1.046.717,1.046,1.6v19.782c0,.884-.468,1.6-1.046,1.6H41.072c-.578,0-1.047-.717-1.047-1.6V308.032C40.025,307.148,40.493,306.431,41.072,306.431Z" transform="translate(-39.773 -306.179)" fill="#fff"/>
      <path id="Path_4445" data-name="Path 4445" d="M66.738,329.669H41.073c-.728,0-1.3-.814-1.3-1.854V308.035c0-1.04.57-1.854,1.3-1.854H66.738c.727,0,1.3.814,1.3,1.854v19.781C68.036,328.855,67.465,329.669,66.738,329.669ZM41.073,306.685c-.431,0-.795.618-.795,1.35v19.781c0,.732.364,1.35.795,1.35H66.738c.43,0,.794-.618.794-1.35V308.035c0-.732-.364-1.35-.794-1.35Z" transform="translate(-39.775 -306.181)" fill="#00347f"/>
    </g>
    <path id="Path_4446" data-name="Path 4446" d="M145.377,336.134h59.431v1.635H145.377Z" transform="translate(0.897 0.802)" fill="#e4e9f1"/>
    <path id="Path_4447" data-name="Path 4447" d="M145.378,339.313h59.428v1.635H145.378Z" transform="translate(0.897 0.826)" fill="#e4e9f1"/>
    <path id="Path_4448" data-name="Path 4448" d="M145.294,342.827l17.922-.028v1.635l-17.922.028Z" transform="translate(0.896 0.851)" fill="#e4e9f1"/>
    <path id="Path_4449" data-name="Path 4449" d="M76.9,300.512H138.6a2.693,2.693,0,0,1,2.694,2.693v71.867a2.693,2.693,0,0,1-2.694,2.694H76.9a2.693,2.693,0,0,1-2.693-2.694V303.2A2.693,2.693,0,0,1,76.9,300.512Z" transform="translate(0.373 0.54)" fill="#e4e9f1"/>
    <rect id="Rectangle_1432" data-name="Rectangle 1432" width="37.704" height="7.442" transform="translate(145.878 309.363)" fill="#e4e9f1"/>
    <g id="Group_3719" data-name="Group 3719" transform="translate(175.067 310.049)">
      <path id="Path_4454" data-name="Path 4454" d="M174.21,309.693v0Z" transform="translate(-173.958 -309.441)" fill="#00347f"/>
      <path id="Path_4455" data-name="Path 4455" d="M174.212,315.513a.253.253,0,0,1-.252-.252v-5.567a.252.252,0,0,1,.5,0v5.567A.252.252,0,0,1,174.212,315.513Z" transform="translate(-173.96 -309.443)" fill="#00347f"/>
    </g>
    <g id="Group_3720" data-name="Group 3720" transform="translate(177.759 311.64)">
      <path id="Path_4456" data-name="Path 4456" d="M176.882,311.284l3.362-.011-1.557,2.382Z" transform="translate(-176.63 -311.021)" fill="#00347f"/>
      <path id="Path_4457" data-name="Path 4457" d="M178.693,313.91a.258.258,0,0,1-.206-.1l-1.8-2.372a.249.249,0,0,1-.026-.263.252.252,0,0,1,.225-.141l3.363-.011a.252.252,0,0,1,.211.39L178.9,313.8A.257.257,0,0,1,178.693,313.91Zm-1.3-2.374,1.282,1.685,1.106-1.692Z" transform="translate(-176.632 -311.023)" fill="#00347f"/>
    </g>
    <rect id="Rectangle_1433" data-name="Rectangle 1433" width="22.71" height="8.099" rx="3.232" transform="translate(145.878 324.904)" fill="#00347f"/>
    <g id="Group_3721" data-name="Group 3721" transform="translate(48.367 338.288)">
      <path id="Path_4460" data-name="Path 4460" d="M49.723,337.726H81.3c.71,0,1.287,1.083,1.287,2.417V370c0,1.335-.577,2.417-1.287,2.417H49.723c-.711,0-1.287-1.082-1.287-2.417V340.143C48.436,338.809,49.012,337.726,49.723,337.726Z" transform="translate(-48.184 -337.474)" fill="#fff"/>
      <path id="Path_4461" data-name="Path 4461" d="M81.305,372.666H49.725c-.863,0-1.539-1.172-1.539-2.668V340.145c0-1.5.676-2.668,1.539-2.668h31.58c.862,0,1.539,1.173,1.539,2.668V370C82.844,371.495,82.167,372.666,81.305,372.666ZM49.725,337.98c-.49,0-1.036.888-1.036,2.165V370c0,1.274.546,2.164,1.036,2.164h31.58c.49,0,1.036-.889,1.036-2.164V340.145c0-1.276-.546-2.165-1.036-2.165Z" transform="translate(-48.186 -337.476)" fill="#00347f"/>
    </g>
    <g id="Group_3722" data-name="Group 3722" transform="translate(57.345 347.874)">
      <path id="Path_4462" data-name="Path 4462" d="M60.77,352.206a5.565,5.565,0,0,1,1.1-3.812A4.2,4.2,0,0,1,64.975,347a3.871,3.871,0,0,1,3.072,1.041,5.654,5.654,0,0,1,1.36,3.859l-1.006-.04a4.706,4.706,0,0,0-1.065-3.106,2.952,2.952,0,0,0-2.308-.749,3.238,3.238,0,0,0-2.395,1.04,4.6,4.6,0,0,0-.86,3.059Z" transform="translate(-57.072 -346.991)" fill="#00347f"/>
      <path id="Path_4463" data-name="Path 4463" d="M58.631,362.9a1.528,1.528,0,0,1-1.532-1.526l1.31-8.058a1.5,1.5,0,0,1,1.52-1.446H70.9a1.529,1.529,0,0,1,1.527,1.527l1.229,7.749a1.539,1.539,0,0,1-1.521,1.606Zm1.3-10.022a.52.52,0,0,0-.519.52L58.1,361.46a.524.524,0,0,0,.526.437l13.5-.148a.522.522,0,0,0,.525-.52l-1.229-7.749a.55.55,0,0,0-.526-.6Z" transform="translate(-57.099 -346.956)" fill="#00347f"/>
      <path id="Path_4464" data-name="Path 4464" d="M63.821,361.224l-1.952-4.568.927-.4,1.3,3.042,4.487-5.462.778.639Z" transform="translate(-57.064 -346.941)" fill="#00347f"/>
    </g>
    <path id="Path_4481" data-name="Path 4481" d="M197.5,282.936h17.64l-9.9-17.9H190.074Z" transform="translate(1.226 0.279)" fill="#f95d39"/>
    <path id="Path_4482" data-name="Path 4482" d="M205.223,298.04h2.089a7.775,7.775,0,0,0,7.775-7.775V282.8h-17.64v7.461A7.775,7.775,0,0,0,205.223,298.04Z" transform="translate(1.28 0.41)" fill="#e04d31"/>
    <path id="Path_4483" data-name="Path 4483" d="M215,282.936h17.64l-12.653-17.9H205.127Z" transform="translate(1.337 0.279)" fill="#fff"/>
    <path id="Path_4484" data-name="Path 4484" d="M222.7,298.04h2.089a7.775,7.775,0,0,0,7.775-7.775V282.8h-17.64v7.461A7.775,7.775,0,0,0,222.7,298.04Z" transform="translate(1.409 0.41)" fill="#e4eded"/>
    <path id="Path_4485" data-name="Path 4485" d="M232.821,282.936h17.641l-15.637-17.9H219.969Z" transform="translate(1.446 0.279)" fill="#f95d39"/>
    <path id="Path_4486" data-name="Path 4486" d="M240.5,298.04h2.089a7.775,7.775,0,0,0,7.776-7.776V282.8h-17.64v7.461A7.774,7.774,0,0,0,240.5,298.04Z" transform="translate(1.54 0.41)" fill="#e04d31"/>
    <path id="Path_4487" data-name="Path 4487" d="M49.143,302.708l-.276-.227a13.832,13.832,0,0,1-1.066-1.019l-.246-.259.516-.493.247.258a13.022,13.022,0,0,0,1,.962l.275.227Zm-2.99-3.192-.209-.289c-.269-.372-.543-.774-.813-1.2l-.189-.3.6-.38.189.3c.262.417.527.8.787,1.165l.21.289ZM43.9,295.792l-.147-.325c-.193-.431-.378-.879-.547-1.346l-.122-.335.67-.244.123.334c.163.449.34.881.528,1.3l.146.325Zm-1.41-4.122-.07-.351c-.092-.465-.168-.945-.226-1.437l-.041-.355.708-.084.042.356q.083.709.218,1.383l.069.35Zm.3-4.307-.713-.03.015-.358c.021-.474.059-.957.119-1.449l.042-.356.709.086-.042.354c-.057.474-.095.94-.115,1.4Zm.575-4.155-.689-.186.094-.346q.147-.541.327-1.094l.213-.631.676.23-.211.624q-.175.535-.316,1.059Zm1.409-3.969-.645-.307.154-.322c.214-.448.437-.877.667-1.287l.175-.312.623.35-.175.311q-.334.6-.645,1.246Zm2.116-3.627-.568-.433.217-.284q.453-.594.924-1.122l.238-.266.533.474-.238.266q-.452.509-.888,1.081Zm2.843-3.079-.453-.551.275-.227c.387-.319.775-.612,1.159-.88l.293-.2.408.585-.292.206q-.556.385-1.115.845Zm3.482-2.329-.31-.643.322-.155c.466-.225.914-.417,1.337-.58l.332-.128.258.665-.333.129c-.4.157-.836.34-1.284.557Zm3.935-1.421-.129-.7.351-.064c.19-.035.343-.058.45-.074l.075-.149.639.319-.262.495-.192.022c-.055.006-.259.029-.58.089Z" transform="translate(0.136 0.299)" fill="#00347f"/>
    <path id="Path_4488" data-name="Path 4488" d="M206.136,249.8a2.869,2.869,0,1,1-2.868-2.871A2.869,2.869,0,0,1,206.136,249.8Z" transform="translate(1.302 0.145)" fill="#fff"/>
    <g id="Group_3723" data-name="Group 3723" transform="translate(46.988 310.481)">
      <path id="Path_4489" data-name="Path 4489" d="M59.14,323.8H48.567a1.747,1.747,0,0,1-1.75-1.739v-6.706a1.747,1.747,0,0,1,1.75-1.739H59.14a1.747,1.747,0,0,1,1.75,1.739v6.706A1.747,1.747,0,0,1,59.14,323.8Zm-10.573-9.68a1.242,1.242,0,0,0-1.246,1.235v6.706a1.242,1.242,0,0,0,1.246,1.235H59.14a1.242,1.242,0,0,0,1.246-1.235v-6.706a1.242,1.242,0,0,0-1.246-1.235Z" transform="translate(-46.817 -309.844)" fill="#00347f"/>
      <path id="Path_4490" data-name="Path 4490" d="M47.138,316.039a.252.252,0,0,1,0-.5l13.325-.048a.252.252,0,0,1,0,.5Z" transform="translate(-46.816 -309.83)" fill="#00347f"/>
      <path id="Path_4491" data-name="Path 4491" d="M47.193,321.818a.252.252,0,0,1,0-.5l13.326-.048a.252.252,0,0,1,0,.5Z" transform="translate(-46.816 -309.788)" fill="#00347f"/>
      <path id="Path_4492" data-name="Path 4492" d="M49.854,314.224a.255.255,0,0,1-.251-.266l.147-2.427a.249.249,0,0,1,.1-.185.245.245,0,0,1,.208-.043l9.394,2.188a.251.251,0,0,1,.188.3.247.247,0,0,1-.3.188l-9.1-2.121-.129,2.128A.252.252,0,0,1,49.854,314.224Z" transform="translate(-46.796 -309.861)" fill="#00347f"/>
      <path id="Path_4493" data-name="Path 4493" d="M59.239,313.809a.264.264,0,0,1-.11-.024l-6.771-3.268-.065,1.4a.259.259,0,0,1-.263.24.252.252,0,0,1-.24-.264l.084-1.776a.251.251,0,0,1,.361-.215l7.114,3.433a.252.252,0,0,1-.11.478Z" transform="translate(-46.78 -309.872)" fill="#00347f"/>
    </g>
    <rect id="Rectangle_1435" data-name="Rectangle 1435" width="182.674" height="0.714" transform="translate(65.696 284.955)" fill="#00347f"/>
    <path id="Path_4494" data-name="Path 4494" d="M71.092,263.232a1.88,1.88,0,1,1,1.88-1.881A1.883,1.883,0,0,1,71.092,263.232Zm0-3.046a1.166,1.166,0,1,0,1.166,1.166A1.166,1.166,0,0,0,71.092,260.186Z" transform="translate(0.336 20.238)" fill="#e4e9f1"/>
    <path id="Path_4495" data-name="Path 4495" d="M75.009,261.352a1.857,1.857,0,1,1,1.857,1.858A1.856,1.856,0,0,1,75.009,261.352Z" transform="translate(0.378 20.238)" fill="#e4e9f1"/>
    <path id="Path_4496" data-name="Path 4496" d="M82.641,263.336a1.983,1.983,0,1,1,1.982-1.983A1.985,1.985,0,0,1,82.641,263.336Zm0-3.252a1.269,1.269,0,1,0,1.268,1.268A1.27,1.27,0,0,0,82.641,260.084Z" transform="translate(0.42 20.237)" fill="#e4e9f1"/>
    <rect id="Rectangle_1436" data-name="Rectangle 1436" width="124.272" height="3.25" rx="1.422" transform="translate(103.369 280.066)" fill="#e4e9f1"/>
    <rect id="Rectangle_1437" data-name="Rectangle 1437" width="66.572" height="169.116" rx="4.682" transform="translate(192.974 248.854)" fill="#fff"/>
    <path id="Path_4509" data-name="Path 4509" d="M262.094,248.725a7.159,7.159,0,0,0-5.974-3.465H196.575c-4.12,0-7.455,3.878-7.455,8.663V412.2c0,4.775,3.334,8.653,7.455,8.653H256.12c4.13,0,7.475-3.878,7.475-8.653V253.923A9.461,9.461,0,0,0,262.094,248.725Zm-3.768,162.79c0,3.486-2.438,6.326-5.44,6.326H197.2c-3.012,0-5.45-2.841-5.45-6.326V255.041c0-3.5,2.438-6.316,5.45-6.316h55.687c3,0,5.44,2.821,5.44,6.316Z" transform="translate(1.219 0.133)" fill="url(#linear-gradient)"/>
    <g id="Group_3724" data-name="Group 3724" transform="translate(198.015 259.718)">
      <path id="Path_4510" data-name="Path 4510" d="M200.363,259.73H249.5a3.479,3.479,0,0,1,0,6.954H200.363a3.479,3.479,0,0,1,0-6.954Z" transform="translate(-196.738 -259.478)" fill="#fff"/>
      <path id="Path_4511" data-name="Path 4511" d="M249.5,266.939H200.365a3.731,3.731,0,0,1,0-7.459H249.5a3.731,3.731,0,0,1,0,7.459Zm-49.139-6.955a3.227,3.227,0,0,0,0,6.451H249.5a3.227,3.227,0,0,0,0-6.451Z" transform="translate(-196.74 -259.48)" fill="#00347f"/>
    </g>
    <rect id="Rectangle_1438" data-name="Rectangle 1438" width="58.34" height="3.882" transform="translate(197.559 312.369)" fill="#e4e9f1"/>
    <path id="Path_4514" data-name="Path 4514" d="M252.025,313.675l-3.154,1.73s-9.645,3.815-9.279,18.392,1.522,28.947,1.522,28.947,0,6.73-6.147,8.242a96.148,96.148,0,0,0-12.749,4.338s-4.724,2.333-4.14,11.642,2.905,21.713-1.512,25.834c-3.6,3.35-12.819,9.942-17.879,13.481l-47.437-.04s16.247-11.147,21.327-15.881c4.417-4.121,2.1-16.515,1.512-25.824s4.131-11.652,4.131-11.652a96.1,96.1,0,0,1,12.748-4.338c6.157-1.513,6.157-8.243,6.157-8.243s-1.166-14.359-1.531-28.937,9.368-17.69,9.368-17.69Z" transform="translate(0.94 0.637)" fill="#ffe7ae"/>
    <path id="Rectangle_1439" data-name="Rectangle 1439" d="M4.415,0H53.023a4.412,4.412,0,0,1,4.412,4.412V31.955a4.414,4.414,0,0,1-4.414,4.414H4.414A4.414,4.414,0,0,1,0,31.955V4.415A4.415,4.415,0,0,1,4.415,0Z" transform="translate(196.772 271.462)" fill="#b1c1d8"/>
    <g id="Group_3727" data-name="Group 3727" transform="translate(249.008 281.954)">
      <path id="Path_4560" data-name="Path 4560" d="M247.61,284.764a.254.254,0,0,1-.16-.057.252.252,0,0,1-.032-.353,1.036,1.036,0,0,0,0-1.094.25.25,0,0,1,.395-.307,1.432,1.432,0,0,1,.261.845,1.408,1.408,0,0,1-.273.875A.25.25,0,0,1,247.61,284.764Z" transform="translate(-247.36 -281.544)" fill="#fff"/>
      <path id="Path_4561" data-name="Path 4561" d="M248.447,285.1a.244.244,0,0,1-.132-.038.25.25,0,0,1-.081-.344,1.978,1.978,0,0,0,.258-.9,2.61,2.61,0,0,0-.269-.962.25.25,0,0,1,.447-.225,3.163,3.163,0,0,1,.322,1.19,2.454,2.454,0,0,1-.333,1.165A.252.252,0,0,1,248.447,285.1Z" transform="translate(-247.354 -281.547)" fill="#fff"/>
      <path id="Path_4562" data-name="Path 4562" d="M249.268,285.524a.251.251,0,0,1-.217-.374,3.2,3.2,0,0,0,.379-1.335,4.2,4.2,0,0,0-.388-1.408.25.25,0,0,1,.451-.216,4.609,4.609,0,0,1,.437,1.624,3.64,3.64,0,0,1-.445,1.583A.25.25,0,0,1,249.268,285.524Z" transform="translate(-247.348 -281.55)" fill="#fff"/>
      <path id="Path_4563" data-name="Path 4563" d="M250.11,285.943a.253.253,0,0,1-.127-.034.25.25,0,0,1-.09-.343,3.709,3.709,0,0,0,.457-1.737,6.409,6.409,0,0,0-.52-1.922.25.25,0,1,1,.456-.206,6.831,6.831,0,0,1,.564,2.108,4.161,4.161,0,0,1-.526,2.009A.249.249,0,0,1,250.11,285.943Z" transform="translate(-247.342 -281.554)" fill="#fff"/>
    </g>
    <rect id="Rectangle_1440" data-name="Rectangle 1440" width="30.189" height="2.766" rx="0.744" transform="translate(202.951 301.121)" fill="#fff"/>
    <rect id="Rectangle_1441" data-name="Rectangle 1441" width="30.189" height="2.766" rx="0.723" transform="translate(202.951 276.357)" fill="#fff"/>
    <g id="Group_3728" data-name="Group 3728" transform="translate(185.389 387.008)">
      <rect id="Rectangle_1442" data-name="Rectangle 1442" width="2.129" height="2.129" fill="#d9c38e"/>
      <rect id="Rectangle_1443" data-name="Rectangle 1443" width="2.129" height="2.129" transform="translate(2.129 2.129)" fill="#d9c38e"/>
      <rect id="Rectangle_1444" data-name="Rectangle 1444" width="2.129" height="2.129" transform="translate(0 4.257)" fill="#d9c38e"/>
      <rect id="Rectangle_1445" data-name="Rectangle 1445" width="2.129" height="2.129" transform="translate(2.129 6.386)" fill="#d9c38e"/>
      <rect id="Rectangle_1446" data-name="Rectangle 1446" width="2.129" height="2.129" transform="translate(4.383 8.515)" fill="#d9c38e"/>
      <rect id="Rectangle_1447" data-name="Rectangle 1447" width="2.129" height="2.129" transform="translate(4.383 12.772)" fill="#d9c38e"/>
      <rect id="Rectangle_1448" data-name="Rectangle 1448" width="2.129" height="2.129" transform="translate(8.767 12.772)" fill="#d9c38e"/>
      <rect id="Rectangle_1449" data-name="Rectangle 1449" width="2.129" height="2.129" transform="translate(2.255 10.644)" fill="#d9c38e"/>
      <rect id="Rectangle_1450" data-name="Rectangle 1450" width="2.129" height="2.129" transform="translate(8.767 8.515)" fill="#d9c38e"/>
      <rect id="Rectangle_1451" data-name="Rectangle 1451" width="2.129" height="2.129" transform="translate(6.638 10.644)" fill="#d9c38e"/>
      <rect id="Rectangle_1452" data-name="Rectangle 1452" width="2.129" height="2.129" transform="translate(10.832 6.386)" fill="#d9c38e"/>
      <rect id="Rectangle_1453" data-name="Rectangle 1453" width="2.129" height="2.129" transform="translate(6.512 2.129)" fill="#d9c38e"/>
      <rect id="Rectangle_1454" data-name="Rectangle 1454" width="2.129" height="2.129" transform="translate(8.767 4.257)" fill="#d9c38e"/>
      <rect id="Rectangle_1455" data-name="Rectangle 1455" width="2.129" height="2.129" transform="translate(12.961 4.257)" fill="#d9c38e"/>
      <rect id="Rectangle_1456" data-name="Rectangle 1456" width="2.129" height="2.129" transform="translate(12.961 8.515)" fill="#d9c38e"/>
      <rect id="Rectangle_1457" data-name="Rectangle 1457" width="2.129" height="2.129" transform="translate(15.09 10.644)" fill="#d9c38e"/>
      <rect id="Rectangle_1458" data-name="Rectangle 1458" width="2.129" height="2.129" transform="translate(8.704)" fill="#d9c38e"/>
      <rect id="Rectangle_1459" data-name="Rectangle 1459" width="2.129" height="2.129" transform="translate(10.895 2.129)" fill="#d9c38e"/>
      <rect id="Rectangle_1460" data-name="Rectangle 1460" width="2.129" height="2.129" transform="translate(15.09 6.386)" fill="#d9c38e"/>
      <rect id="Rectangle_1461" data-name="Rectangle 1461" width="2.129" height="2.129" transform="translate(15.09 2.129)" fill="#d9c38e"/>
      <rect id="Rectangle_1462" data-name="Rectangle 1462" width="2.129" height="2.129" transform="translate(6.638 6.386)" fill="#d9c38e"/>
    </g>
    <g id="Group_3729" data-name="Group 3729" transform="translate(183.441 328.395)">
      <rect id="Rectangle_1463" data-name="Rectangle 1463" width="31.848" height="1.836" transform="translate(19.136)" fill="#d9c38e"/>
      <path id="Path_4565" data-name="Path 4565" d="M220.579,371.174H188.731l2.417-.689H223Z" transform="translate(-182.225 -327.34)" fill="#d9c38e"/>
      <path id="Path_4566" data-name="Path 4566" d="M214.121,372.956H182.273l2.417-.689h31.848Z" transform="translate(-182.273 -327.327)" fill="#d9c38e"/>
      <rect id="Rectangle_1464" data-name="Rectangle 1464" width="31.848" height="1.836" transform="translate(19.136 3.929)" fill="#d9c38e"/>
      <rect id="Rectangle_1465" data-name="Rectangle 1465" width="31.848" height="1.836" transform="translate(19.136 8.076)" fill="#d9c38e"/>
      <rect id="Rectangle_1466" data-name="Rectangle 1466" width="12.856" height="1.836" transform="translate(19.136 24.737)" fill="#d9c38e"/>
      <rect id="Rectangle_1467" data-name="Rectangle 1467" width="12.856" height="1.836" transform="translate(19.136 28.883)" fill="#d9c38e"/>
      <rect id="Rectangle_1468" data-name="Rectangle 1468" width="12.856" height="1.836" transform="translate(37.461 24.737)" fill="#d9c38e"/>
      <rect id="Rectangle_1469" data-name="Rectangle 1469" width="12.856" height="1.836" transform="translate(37.461 28.883)" fill="#d9c38e"/>
      <rect id="Rectangle_1470" data-name="Rectangle 1470" width="22.492" height="1.836" transform="translate(19.136 12.005)" fill="#d9c38e"/>
      <rect id="Rectangle_1471" data-name="Rectangle 1471" width="27.598" height="1.836" transform="translate(19.136 15.856)" fill="#d9c38e"/>
      <rect id="Rectangle_1472" data-name="Rectangle 1472" width="18.992" height="1.836" transform="translate(19.136 19.786)" fill="#d9c38e"/>
    </g>
    <g id="Group_3735" data-name="Group 3735" transform="translate(250.523 326.59)">
      <path id="Path_4576" data-name="Path 4576" d="M249.884,326.113h18.853c.424,0,.769.642.769,1.432v17.689c0,.791-.344,1.432-.769,1.432H249.884c-.425,0-.77-.642-.77-1.432V327.545C249.114,326.755,249.458,326.113,249.884,326.113Z" transform="translate(-248.862 -325.861)" fill="#fff"/>
      <path id="Path_4577" data-name="Path 4577" d="M268.738,346.921H249.884c-.581,0-1.02-.724-1.02-1.684V327.547c0-.96.439-1.684,1.02-1.684h18.854c.581,0,1.02.724,1.02,1.684v17.689C269.759,346.2,269.32,346.921,268.738,346.921Zm-18.854-20.554c-.211,0-.517.459-.517,1.181v17.689c0,.72.306,1.181.517,1.181h18.854c.211,0,.517-.46.517-1.181V327.547c0-.721-.306-1.181-.517-1.181Z" transform="translate(-248.864 -325.863)" fill="#00347f"/>
    </g>
    <path id="Path_4578" data-name="Path 4578" d="M259.289,328.906l2.253,4.564,5.037.732-3.645,3.553.86,5.017-4.505-2.369-4.505,2.369.86-5.017L252,334.2l5.037-.732Z" transform="translate(1.682 0.749)" fill="#00347f"/>
    <g id="Group_3736" data-name="Group 3736" transform="translate(249.885 357.983)">
      <path id="Path_4579" data-name="Path 4579" d="M249.529,357.278h25.679c.578,0,1.048.873,1.048,1.95v24.094c0,1.077-.469,1.95-1.048,1.95H249.529c-.578,0-1.048-.873-1.048-1.95V359.228C248.481,358.151,248.95,357.278,249.529,357.278Z" transform="translate(-248.229 -357.025)" fill="#fff"/>
      <path id="Path_4580" data-name="Path 4580" d="M275.209,385.526H249.53c-.728,0-1.3-.967-1.3-2.2V359.23c0-1.236.571-2.2,1.3-2.2h25.679c.728,0,1.3.967,1.3,2.2v24.094C276.509,384.559,275.938,385.526,275.209,385.526Zm-25.679-28c-.377,0-.8.7-.8,1.7v24.094c0,1,.419,1.7.8,1.7h25.679c.377,0,.8-.7.8-1.7V359.23c0-1-.419-1.7-.8-1.7Z" transform="translate(-248.231 -357.027)" fill="#00347f"/>
    </g>
    <path id="Path_4581" data-name="Path 4581" d="M86.305,421.213s-.516.007-.816.007c-4.741-.006-28.675-.475-29.918-9.012a3.171,3.171,0,0,1-.011-.854,2.017,2.017,0,0,1,.09-.431c1.172-3.53,9.883-1.911,10.43-1.8-.446-.177-6.123-2.378-10.585-3.6-3.408-.936-8.294-1.466-11.37-3.416-.176-.109-.338-.217-.5-.339a5.72,5.72,0,0,1-1.99-2.443c-1.8-4.4,8.609-4.614,8.609-4.614s-8.347-1.627-14.153-4.867a4.871,4.871,0,0,1-.431-.239c-3.483-2.037-5.9-4.672-4.731-7.91a3.863,3.863,0,0,1,.162-.408c.037-.078.07-.146.109-.223,3.241-6.507,21.754,7.685,22.231,8.048-.108-.285-2.777-7.115-.043-8.328a2.091,2.091,0,0,1,1.232-.129,2.242,2.242,0,0,1,.485.116c2.661.873,5.957,5.372,7.852,9.385,1.566,3.333,4.323,8.186,4.522,8.532-.123-.378-1.669-5.24.4-5.71a1.816,1.816,0,0,1,.208-.031,1.062,1.062,0,0,1,.262.016c2.5.358,6.293,7.719,9.541,13.373C81.252,412.18,86.305,421.213,86.305,421.213Z" transform="translate(0.052 1.121)" fill="#b1c1d8"/>
    <path id="Path_4582" data-name="Path 4582" d="M86.149,421.2c-.139,0-.362.007-.662.007-1.469-1.249-3.836-3.283-6.673-5.765l-23.256-4.1a1.89,1.89,0,0,1,.09-.431l22.536,3.977c-4.228-3.715-9.386-8.324-14.16-12.824a.186.186,0,0,1-.131.053l-19.771-.025c-.176-.109-.338-.217-.5-.339a.178.178,0,0,1,.169-.093l19.833.026c-.423-.4-.838-.8-1.253-1.195l-20.586-1.25a.216.216,0,0,1-.2-.232.247.247,0,0,1,.232-.2l20.069,1.211c-.123-.115-.254-.231-.377-.355-5.111-4.931-12.586-9.374-19.1-12.692l-6.322,2.855a4.871,4.871,0,0,1-.431-.239.378.378,0,0,1,.1-.093l6.152-2.778c-4.591-2.322-8.652-4.082-10.983-5.039.047-.139.1-.27.162-.408,2.4.988,6.63,2.818,11.4,5.247l.045.023c6.561,3.348,14.112,7.822,19.285,12.809.576.562,1.169,1.125,1.768,1.7l-8.954-20.283a.171.171,0,0,1-.015-.123,2.242,2.242,0,0,1,.485.116l9.223,20.884a.179.179,0,0,1,0,.108c4.75,4.477,9.892,9.07,14.113,12.777l-10.547-21.5a.2.2,0,0,1-.015-.061,1.59,1.59,0,0,1,.208-.031,1.062,1.062,0,0,1,.262.016L79.23,415.161c.015.023.007.046.007.07C82.273,417.889,84.757,420.017,86.149,421.2Z" transform="translate(0.054 1.13)" fill="#fff"/>
    <path id="Path_4584" data-name="Path 4584" d="M256.12,378.349a.5.5,0,0,1-.37-.836l12.726-14a.5.5,0,0,1,.74.673l-12.727,14A.5.5,0,0,1,256.12,378.349Z" transform="translate(1.709 1.003)" fill="#00347f"/>
    <path id="Path_4585" data-name="Path 4585" d="M257.846,371.038a3.868,3.868,0,1,1,3.45-3.846A3.668,3.668,0,0,1,257.846,371.038Zm0-6.692a2.878,2.878,0,1,0,2.45,2.846A2.673,2.673,0,0,0,257.846,364.346Z" transform="translate(1.7 1.003)" fill="#00347f"/>
    <path id="Path_4586" data-name="Path 4586" d="M266.026,379.219a3.869,3.869,0,1,1,3.45-3.846A3.668,3.668,0,0,1,266.026,379.219Zm0-6.693a2.879,2.879,0,1,0,2.451,2.847A2.673,2.673,0,0,0,266.026,372.526Z" transform="translate(1.76 1.063)" fill="#00347f"/>
    <rect id="Rectangle_1543" data-name="Rectangle 1543" width="8.18" height="7.474" rx="2.162" transform="translate(202.951 284.114)" fill="#ffe7ae"/>
    <g id="Group_3737" data-name="Group 3737" transform="translate(202.951 284.114)">
      <path id="Path_4587" data-name="Path 4587" d="M209.778,285.617v-.155h-2.5v5.7h.154v-2.078h2.343v-.155h-2.343v-1.543h2.343v-.155h-2.343v-1.61Z" transform="translate(-201.598 -283.685)" fill="#e2c989"/>
      <path id="Path_4588" data-name="Path 4588" d="M204.013,285.474H201.64v.155h2.373v1.61H201.64v.155h2.373v1.543H201.64v.155h2.373v2.078h.154V283.7h-.154Z" transform="translate(-201.64 -283.698)" fill="#e2c989"/>
    </g>
    <g id="Group_3741" data-name="Group 3741" transform="translate(193.2 248.854)">
      <path id="Path_4589" data-name="Path 4589" d="M258.07,253.188H191.96c.655-2.589,2.811-4.492,4.756-4.485l55.933-.007A5.482,5.482,0,0,1,258.07,253.188Z" transform="translate(-191.96 -248.696)" fill="#e4e9f1"/>
      <g id="Group_3738" data-name="Group 3738" transform="translate(55.868 0.981)">
        <path id="Path_4590" data-name="Path 4590" d="M251.942,252.2h-3.969a.554.554,0,0,1-.553-.552v-1.424a.554.554,0,0,1,.553-.552h3.969a.553.553,0,0,1,.553.552v1.424A.553.553,0,0,1,251.942,252.2Zm-3.969-2.25a.274.274,0,0,0-.274.274v1.424a.274.274,0,0,0,.274.274h3.969a.275.275,0,0,0,.275-.274v-1.424a.275.275,0,0,0-.275-.274Z" transform="translate(-247.42 -249.67)" fill="#fff"/>
        <path id="Path_4591" data-name="Path 4591" d="M251,251.727h-2.831a.327.327,0,0,1-.322-.332v-.927a.327.327,0,0,1,.322-.332h1.823Z" transform="translate(-247.417 -249.667)" fill="#fff"/>
        <path id="Path_4592" data-name="Path 4592" d="M252.753,250.729v.318a.1.1,0,0,1-.1.1h-.334v-.523h.334A.1.1,0,0,1,252.753,250.729Z" transform="translate(-247.384 -249.663)" fill="#fff"/>
      </g>
      <g id="Group_3739" data-name="Group 3739" transform="translate(6.698 1.141)">
        <path id="Path_4593" data-name="Path 4593" d="M202.146,250.53l-.387.409a1.987,1.987,0,0,0-2.756.019l-.394-.4a2.549,2.549,0,0,1,3.537-.024Z" transform="translate(-198.609 -249.829)" fill="#fff"/>
        <path id="Path_4594" data-name="Path 4594" d="M201.562,251.132l-.391.414a1.139,1.139,0,0,0-1.582.012l-.4-.409a1.712,1.712,0,0,1,2.371-.017Z" transform="translate(-198.605 -249.823)" fill="#fff"/>
        <path id="Path_4595" data-name="Path 4595" d="M200.968,251.751l-.586.618-.594-.609a.852.852,0,0,1,1.181-.008Z" transform="translate(-198.6 -249.817)" fill="#fff"/>
      </g>
      <g id="Group_3740" data-name="Group 3740" transform="translate(11.593 0.945)">
        <rect id="Rectangle_1544" data-name="Rectangle 1544" width="0.776" height="2.748" transform="translate(3.279)" fill="#fff"/>
        <rect id="Rectangle_1545" data-name="Rectangle 1545" width="0.776" height="2.139" transform="translate(2.125 0.609)" fill="#fff"/>
        <rect id="Rectangle_1546" data-name="Rectangle 1546" width="0.776" height="1.625" transform="translate(1.055 1.123)" fill="#fff"/>
        <rect id="Rectangle_1547" data-name="Rectangle 1547" width="0.776" height="0.813" transform="translate(0 1.935)" fill="#fff"/>
      </g>
    </g>
  </g>
</svg>
