<svg xmlns="http://www.w3.org/2000/svg" xmlns:xlink="http://www.w3.org/1999/xlink" width="234.267" height="200" viewBox="0 0 234.267 200">
  <defs>
    <linearGradient id="linear-gradient" x1="-0.95" y1="-0.122" x2="-1.773" y2="-0.15" gradientUnits="objectBoundingBox">
      <stop offset="0" stop-color="#fff"/>
      <stop offset="1" stop-color="#daeaff"/>
    </linearGradient>
    <linearGradient id="linear-gradient-2" x1="-2.097" y1="-37.85" x2="-1.14" y2="-37.85" gradientUnits="objectBoundingBox">
      <stop offset="0" stop-color="#fff"/>
      <stop offset="1" stop-color="#dee5e4"/>
    </linearGradient>
  </defs>
  <g id="Group_3785" data-name="Group 3785" transform="translate(-321.943 -246.597)">
    <path id="Path_4294" data-name="Path 4294" d="M370.379,424.814c50.75,47.524,98-23.8,134.831-16.912,37.831,7.072,55.4-31.671,29.464-81.551-25.25-48.56-65.721-73.092-92.9-77.62-44.93-7.486-93.671,36.517-78.646,71.767C376.689,352.312,336.86,393.426,370.379,424.814Z" transform="translate(1.591 0.059)" fill="#e4e9f1"/>
    <path id="Path_4295" data-name="Path 4295" d="M521.31,390.061l7.294,2.669,3.516-3.648-4.467-2.936Z" transform="translate(9.158 6.41)" fill="#feb49c"/>
    <path id="Path_4296" data-name="Path 4296" d="M405.45,446.6c-12.751,0-25.864-4.569-39.182-17.039-20.278-18.99-14.75-41.438-9.405-63.147,3.906-15.861,7.595-30.842,1.82-44.387-5.891-13.822-2.631-30.189,8.946-44.908,17.1-21.74,46.943-33.941,72.561-29.672,29.594,4.931,70.751,31.629,95.986,80.158,14.962,28.774,16.823,56.673,4.857,72.809-7.794,10.509-20.487,14.727-35.74,11.875-14.027-2.621-29.773,6.052-46.441,15.233C442.2,436.692,424.219,446.595,405.45,446.6Zm24.289-198.955c-22.6,0-46.661,11.523-61.288,30.12-11.333,14.409-14.543,30.392-8.806,43.85,5.911,13.868,2.008,29.719-1.767,45.05-5.273,21.416-10.726,43.561,9.1,62.132,32.366,30.312,63.709,13.044,91.365-2.192,16.835-9.274,32.741-18.043,47.136-15.345,14.837,2.772,27.165-1.3,34.707-11.469,11.726-15.814,9.831-43.288-4.944-71.7-25.069-48.209-65.892-74.721-95.229-79.608A62.446,62.446,0,0,0,429.739,247.642Z" transform="translate(1.376 0)" fill="#b1c1d8"/>
    <path id="Path_4297" data-name="Path 4297" d="M526.716,392.675s1.675,1.4,3.326,2.573,2.368,1.5,3.987.55,1.887-3.24,2.588-4.2,3.737-4.813,3.737-4.813.6-2.636-.049-3.015c-1.085-.633-2.846,1.551-4.221,2.719s-5.7,1.711-5.7,1.711Z" transform="translate(9.406 6.296)" fill="#171f69"/>
    <path id="Path_4298" data-name="Path 4298" d="M496.9,339.38c22.562-24.941-21.287-56.176-56.37-48.866-32.262,6.722-60.407,34.834-65.888,43.284-14.3,22.054-15.675,40.018-5.283,51.646,11.445,12.806,37.168,21.65,57.4,2.531,16.284-15.39,17.547-28.849,25.535-33.281C469.216,345.3,487.441,349.831,496.9,339.38Z" transform="translate(1.866 1.968)" fill="url(#linear-gradient)"/>
    <path id="Path_4299" data-name="Path 4299" d="M363.227,282.4s4.388-26.661-4.635-24.521S363.227,282.4,363.227,282.4Z" transform="translate(1.542 0.513)" fill="#c9def9"/>
    <path id="Path_4300" data-name="Path 4300" d="M371.757,304.106s13.466-18.767,6.749-22.216S371.757,304.106,371.757,304.106Z" transform="translate(2.288 1.607)" fill="#c9def9"/>
    <path id="Path_4301" data-name="Path 4301" d="M381.981,317.823s13.466-18.768,6.749-22.216S381.981,317.823,381.981,317.823Z" transform="translate(2.758 2.237)" fill="#4060f0"/>
    <path id="Path_4302" data-name="Path 4302" d="M373.422,303.278s-18.167-14.813-20.435-6.867S373.422,303.278,373.422,303.278Z" transform="translate(1.419 2.181)" fill="#c9def9"/>
    <path id="Path_4303" data-name="Path 4303" d="M383.136,316.31s-21.695-8.875-21.549-.613S383.136,316.31,383.136,316.31Z" transform="translate(1.821 3.013)" fill="#4060f0"/>
    <path id="Path_4304" data-name="Path 4304" d="M366.971,289.869s-17.534-13.557-19.291-5.883S366.971,289.869,366.971,289.869Z" transform="translate(1.177 1.609)" fill="#c9def9"/>
    <path id="Path_4305" data-name="Path 4305" d="M365.879,291.415s12.984-19.106,6.181-22.382S365.879,291.415,365.879,291.415Z" transform="translate(2.018 1.017)" fill="#c9def9"/>
    <path id="Path_4306" data-name="Path 4306" d="M356.142,286.748a.419.419,0,0,1,.541-.242l8.841,3.4q-.552-1.527-1.069-3.089a108.842,108.842,0,0,1-4.785-21.11.419.419,0,0,1,.834-.079,107.957,107.957,0,0,0,4.754,20.947c.349,1.062.732,2.167,1.148,3.3l3.413-14.886a.419.419,0,1,1,.817.187l-3.6,15.693a.418.418,0,0,1-.168.247,97.629,97.629,0,0,0,5.473,11.97l5.209-15.72a.419.419,0,1,1,.795.263l-5.47,16.435a2.877,2.877,0,0,0,.27.465,74.261,74.261,0,0,0,9.675,13.434l.127,0,4.3-14.578a.419.419,0,1,1,.8.236l-4.306,14.61a.406.406,0,0,1,.027.134.417.417,0,0,1-.224.378,60.081,60.081,0,0,0,4.39,4.2.418.418,0,0,1-.174.723.414.414,0,0,1-.373-.089,61.826,61.826,0,0,1-4.932-4.761l-10.568.215a.419.419,0,1,1-.017-.838l9.834-.2a74.355,74.355,0,0,1-8.862-12.269q-.268-.46-.531-.927a1.4,1.4,0,0,1-.236-.368l-9.993-4.029a.419.419,0,1,1,.313-.777l9.072,3.646a98.373,98.373,0,0,1-5.559-12.315l-9.525-3.66A.417.417,0,0,1,356.142,286.748Z" transform="translate(1.57 0.857)" fill="#b1c1d8"/>
    <g id="Group_3697" data-name="Group 3697" transform="translate(336.943 311.979)">
      <path id="Rectangle_1404" data-name="Rectangle 1404" d="M4.083,0H83.67a4.081,4.081,0,0,1,4.081,4.081v47.4a4.083,4.083,0,0,1-4.083,4.083H4.083A4.083,4.083,0,0,1,0,51.479V4.083A4.083,4.083,0,0,1,4.083,0Z" transform="translate(0.004 0.004)" fill="#b1c1d8"/>
      <rect id="Rectangle_1405" data-name="Rectangle 1405" width="12.497" height="11.418" rx="2" transform="translate(9.445 19.334)" fill="#ffeec5"/>
      <rect id="Rectangle_1406" data-name="Rectangle 1406" width="0.296" height="11.418" transform="translate(13.04 19.334)" fill="#f1d175"/>
      <path id="Path_4309" data-name="Path 4309" d="M353.883,338.892h-.3v-8.734h3.845v.3h-3.549Z" transform="translate(-335.489 -308.14)" fill="#f1d175"/>
      <rect id="Rectangle_1407" data-name="Rectangle 1407" width="3.742" height="0.296" transform="translate(9.445 22.018)" fill="#f1d175"/>
      <rect id="Rectangle_1408" data-name="Rectangle 1408" width="3.742" height="0.296" transform="translate(9.445 24.714)" fill="#f1d175"/>
      <rect id="Rectangle_1409" data-name="Rectangle 1409" width="3.742" height="0.296" transform="translate(9.445 27.311)" fill="#f1d175"/>
      <rect id="Rectangle_1410" data-name="Rectangle 1410" width="3.697" height="0.296" transform="translate(18.245 24.714)" fill="#f1d175"/>
      <rect id="Rectangle_1411" data-name="Rectangle 1411" width="3.697" height="0.296" transform="translate(18.245 27.311)" fill="#f1d175"/>
      <g id="Group_3696" data-name="Group 3696" transform="translate(79.81 16.034)">
        <path id="Path_4310" data-name="Path 4310" d="M412.971,329.268a.382.382,0,0,1-.294-.627,1.448,1.448,0,0,0,.241-.849,1.472,1.472,0,0,0-.237-.822.382.382,0,0,1,.6-.47,2.194,2.194,0,0,1,.4,1.292,2.155,2.155,0,0,1-.417,1.338A.38.38,0,0,1,412.971,329.268Z" transform="translate(-412.588 -324.349)" fill="#fff"/>
        <path id="Path_4311" data-name="Path 4311" d="M414.2,329.8a.375.375,0,0,1-.2-.059.381.381,0,0,1-.123-.525,3.026,3.026,0,0,0,.393-1.381,4,4,0,0,0-.41-1.47.382.382,0,1,1,.682-.344,4.786,4.786,0,0,1,.494,1.818,3.76,3.76,0,0,1-.51,1.78A.383.383,0,0,1,414.2,329.8Z" transform="translate(-412.532 -324.374)" fill="#fff"/>
        <path id="Path_4312" data-name="Path 4312" d="M415.411,330.475a.382.382,0,0,1-.333-.571,4.835,4.835,0,0,0,.581-2.039,6.39,6.39,0,0,0-.593-2.153.382.382,0,1,1,.689-.328,7.044,7.044,0,0,1,.668,2.481,5.54,5.54,0,0,1-.681,2.417A.38.38,0,0,1,415.411,330.475Z" transform="translate(-412.476 -324.404)" fill="#fff"/>
        <path id="Path_4313" data-name="Path 4313" d="M416.652,331.144a.376.376,0,0,1-.194-.053.381.381,0,0,1-.137-.522,5.631,5.631,0,0,0,.7-2.655,9.791,9.791,0,0,0-.794-2.936.382.382,0,1,1,.7-.314,10.485,10.485,0,0,1,.862,3.22,6.351,6.351,0,0,1-.8,3.069A.381.381,0,0,1,416.652,331.144Z" transform="translate(-412.423 -324.437)" fill="#fff"/>
      </g>
      <path id="Path_4314" data-name="Path 4314" d="M402.926,354.16a6,6,0,1,1,6,6A6,6,0,0,1,402.926,354.16Z" transform="translate(-333.223 -307.313)" fill="#ffe7ae"/>
      <rect id="Rectangle_1412" data-name="Rectangle 1412" width="46.123" height="4.226" rx="1.443" transform="translate(9.445 45.317)" fill="#fff"/>
      <rect id="Rectangle_1413" data-name="Rectangle 1413" width="34.435" height="4.226" rx="1.36" transform="translate(9.445 8.186)" fill="#fff"/>
    </g>
    <path id="Rectangle_1415" data-name="Rectangle 1415" d="M5.928,0H70a5.928,5.928,0,0,1,5.928,5.928V142.2A5.928,5.928,0,0,1,70,148.133H5.93A5.93,5.93,0,0,1,0,142.2V5.928A5.928,5.928,0,0,1,5.928,0Z" transform="translate(388.083 261.723)" fill="#fff"/>
    <path id="Path_4315" data-name="Path 4315" d="M454.9,403.454l-63.523,0a6.2,6.2,0,0,1-6.2-6.2V385.935H461.1v11.318A6.2,6.2,0,0,1,454.9,403.454Z" transform="translate(2.905 6.401)" fill="#e4e9f1"/>
    <path id="Path_4317" data-name="Path 4317" d="M462.544,243.556a8.936,8.936,0,0,0-6.809-2.986H390.8c-4.7,0-8.5,3.343-8.5,7.456V384.22c0,4.113,3.807,7.447,8.5,7.447h64.932c4.7,0,8.514-3.334,8.514-7.447V248.026A6.8,6.8,0,0,0,462.544,243.556Zm-1.311,140.083c0,3-2.779,5.436-6.21,5.436l-63.513,0c-3.431,0-6.2-2.428-6.2-5.433V248.984c0-3,2.77-5.43,6.2-5.43l63.512,0c3.431,0,6.211,2.423,6.211,5.427Z" transform="translate(2.773 21.153)" fill="#00347f"/>
    <path id="Path_4318" data-name="Path 4318" d="M469.584,352.2l-2.013,1.741-1.859,3.342a8.754,8.754,0,0,0,2.969,2.7,7.083,7.083,0,0,0,3.714.551l.531-3.642Z" transform="translate(6.604 4.851)" fill="#feb49c"/>
    <path id="Path_4319" data-name="Path 4319" d="M471.516,349.987s-1.352-2.9-2.631-1.422,2.829,10.061,5.635,9.907,5.461-5.145,6.183-7.433,1.6-4.808-.9-6.418C474.688,341.322,471.516,349.987,471.516,349.987Z" transform="translate(6.739 4.468)" fill="#feb49c"/>
    <path id="Path_4320" data-name="Path 4320" d="M467.459,354.6l2.153-1.731s-1.388-3.761.034-4.122,2.033,1.526,2.033,1.526,1.842-4.24,5.776-3.4c4,.858,3.761,2.611,3.761,2.611s7.634.648,3.414-7.424c-1.584-3.03-2.605-.008-3.628-.667s1.363-2.98-2.05-3.746c-3.238-.727-3.892,2.609-5.513,2.787s-1.894-.648-2.868-.415c-2.045.49-3.065.619-4.921,4.583S467.459,354.6,467.459,354.6Z" transform="translate(6.577 4.178)" fill="#171331"/>
    <path id="Path_4321" data-name="Path 4321" d="M454.682,393.626c2.671,5.729,9.761,5.668,13.473,4.74s26.2-10.144,26.2-10.144,9.013,1.707,13.435,2.238,1.729,1.624,3.2,3.047,2.745-.271,4.35.392,1.029,1.868,2.353,2.351,4.759-.638,4.759-.638l10.662-9.909s-24.916-12.018-28.256-12.4c-4.831-.547-43.126,11.96-43.126,11.96S451.734,387.308,454.682,393.626Z" transform="translate(6.072 5.82)" fill="#00347f"/>
    <path id="Path_4322" data-name="Path 4322" d="M451.418,397.215c1.175,5.394,10.737,4.363,14.449,3.435s26.2-10.143,26.2-10.143,9.012,1.709,13.435,2.239,1.73,1.623,3.2,3.046,2.743-.27,4.351.393,1.027,1.869,2.351,2.351,4.76-.639,4.76-.639l8.393-5.874S499.348,378,494.122,377.573s-36.324,8.62-36.324,8.62S450.244,391.82,451.418,397.215Z" transform="translate(5.942 6.016)" fill="#00347f"/>
    <path id="Path_4323" data-name="Path 4323" d="M447.131,386.874c-.568-.372-1.045,4.524.195,7.288s4.672,4,4.672,4a9.353,9.353,0,0,1,.857-5.052c1.24-2.384,2.734-5.547,2.734-5.547S447.7,387.246,447.131,386.874Z" transform="translate(5.724 6.443)" fill="#f5f5f5"/>
    <path id="Path_4324" data-name="Path 4324" d="M517.807,396.717l5.607,1.958,3.884-3.725-3.584-2.367Z" transform="translate(8.997 6.706)" fill="#feb49c"/>
    <path id="Path_4325" data-name="Path 4325" d="M522.841,399.171s1.665,1.4,3.307,2.559,2.354,1.49,3.965.547,1.875-3.221,2.573-4.18,3.716-4.786,3.716-4.786.6-2.622-.049-3c-1.078-.629-2.83,1.543-4.2,2.7s-5.67,1.7-5.67,1.7Z" transform="translate(9.228 6.597)" fill="#1f298c"/>
    <path id="Path_4326" data-name="Path 4326" d="M476.7,381.161l23.893-6.883,4.277-15.355a.81.81,0,0,0-.966-1.005l-7.978,1.886a1.557,1.557,0,0,0-1.132,1.064l-4.5,14.81-12.646,3.917Z" transform="translate(7.109 5.113)" fill="#221e59"/>
    <path id="Path_4327" data-name="Path 4327" d="M526.226,392.492a.259.259,0,0,1-.114-.026c-.271-.132-27.047-13.228-29.956-14.557-2.8-1.28-4.267-.913-4.283-.911a.258.258,0,0,1-.319-.184.262.262,0,0,1,.181-.321c.066-.019,1.644-.429,4.639.94,2.915,1.333,29.7,14.431,29.966,14.563a.261.261,0,0,1-.114.5Z" transform="translate(7.791 5.964)" fill="#130514"/>
    <path id="Path_4328" data-name="Path 4328" d="M483.642,391.54a.262.262,0,0,1-.074-.513,33.35,33.35,0,0,0,4.622-1.711,6.559,6.559,0,0,0,1.82-2.181c.486-.775.837-1.336,1.238-1.435a.39.39,0,0,1,.4.1c.243.25.115.751-.152,1.685a9.647,9.647,0,0,0-.256,1.041c.079-.1.168-.22.237-.315.326-.45.661-.917,1.071-.794.584.174.61,1.421.591,1.989.236.067.679.17,1.5.322a18.166,18.166,0,0,0,4.066.4.249.249,0,0,1,.279.242.261.261,0,0,1-.243.279,18.277,18.277,0,0,1-4.2-.406c-2.052-.38-2.126-.5-2.109-.772a.287.287,0,0,1,.186-.251,2.5,2.5,0,0,0-.226-1.305,3.613,3.613,0,0,0-.494.6c-.278.384-.5.691-.783.688a.4.4,0,0,1-.321-.183c-.189-.279-.055-.794.2-1.68a8.879,8.879,0,0,0,.255-1.05,6.946,6.946,0,0,0-.793,1.121,6.9,6.9,0,0,1-2.009,2.361,33.3,33.3,0,0,1-4.728,1.755A.266.266,0,0,1,483.642,391.54Z" transform="translate(7.416 6.389)" fill="#130514"/>
    <path id="Path_4347" data-name="Path 4347" d="M432.448,383.909H413.593v-3.842h18.855Zm-18.707-.149H432.3v-3.544H413.742Z" transform="translate(4.21 6.131)" fill="#8892c4"/>
    <rect id="Rectangle_1420" data-name="Rectangle 1420" width="27.324" height="0.149" transform="translate(414.127 382.91)" fill="#8892c4"/>
    <g id="Group_3700" data-name="Group 3700" transform="translate(512.393 276.635)">
      <path id="Path_4364" data-name="Path 4364" d="M504.279,284.844a9.3,9.3,0,1,1,9.3,9.279A9.29,9.29,0,0,1,504.279,284.844Z" transform="translate(-504.018 -275.304)" fill="#fff"/>
      <path id="Path_4365" data-name="Path 4365" d="M513.594,294.4a9.54,9.54,0,1,1,9.565-9.539A9.563,9.563,0,0,1,513.594,294.4Zm0-18.557a9.017,9.017,0,1,0,9.042,9.018A9.04,9.04,0,0,0,513.594,275.839Z" transform="translate(-504.029 -275.316)" fill="#00347f"/>
    </g>
    <path id="Path_4366" data-name="Path 4366" d="M513.428,290.882a.365.365,0,0,1-.213-.069c-.244-.172-5.967-4.255-5.9-7.847a3.449,3.449,0,0,1,1.77-2.876,2.7,2.7,0,0,1,2.18-.438,4.225,4.225,0,0,1,2.209,1.613,4.379,4.379,0,0,1,2.306-1.633,2.767,2.767,0,0,1,2.192.459,3.231,3.231,0,0,1,1.611,2.677c.084,3.572-5.685,7.861-5.93,8.041A.37.37,0,0,1,513.428,290.882Zm-2.769-10.561a2.119,2.119,0,0,0-1.173.388,2.72,2.72,0,0,0-1.436,2.27c-.048,2.839,4.334,6.291,5.373,7.069,1.04-.809,5.48-4.434,5.413-7.264a2.5,2.5,0,0,0-1.28-2.076,2.017,2.017,0,0,0-1.618-.354,4.142,4.142,0,0,0-2.158,1.751.37.37,0,0,1-.638-.006,3.99,3.99,0,0,0-2.057-1.727A1.87,1.87,0,0,0,510.659,280.321Z" transform="translate(8.515 1.515)" fill="#00347f"/>
    <g id="Group_3866" data-name="Group 3866">
      <rect id="Rectangle_1416" data-name="Rectangle 1416" width="25.784" height="5.089" transform="translate(428.559 295.15)" fill="#e4e9f1"/>
      <rect id="Rectangle_1417" data-name="Rectangle 1417" width="5.326" height="5.326" transform="translate(448.759 305.991)" fill="#fff"/>
      <rect id="Rectangle_1418" data-name="Rectangle 1418" width="25.784" height="5.089" transform="translate(428.559 345.645)" fill="#e4e9f1"/>
      <path id="Path_4348" data-name="Path 4348" d="M391.255,369.05h62.279v1.713H391.255Z" transform="translate(3.184 5.625)" fill="#e4e9f1"/>
      <path id="Path_4349" data-name="Path 4349" d="M391.391,317.348h62.281v1.713H391.391Z" transform="translate(3.189 3.25)" fill="#e4e9f1"/>
      <path id="Path_4350" data-name="Path 4350" d="M391.392,320.557h62.279v1.713H391.392Z" transform="translate(3.189 3.397)" fill="#e4e9f1"/>
      <path id="Path_4351" data-name="Path 4351" d="M391.307,324.1l18.782-.029v1.713l-18.782.03Z" transform="translate(3.186 3.559)" fill="#e4e9f1"/>
      <path id="Path_4352" data-name="Path 4352" d="M391.254,365.841h62.281v1.713H391.254Z" transform="translate(3.184 5.478)" fill="#e4e9f1"/>
      <path id="Path_4353" data-name="Path 4353" d="M391.17,372.6l18.782-.029v1.713l-18.782.03Z" transform="translate(3.18 5.787)" fill="#e4e9f1"/>
      <g id="Group_3698" data-name="Group 3698" transform="translate(448.431 295.53)">
        <path id="Path_4354" data-name="Path 4354" d="M443.126,293.631v0Z" transform="translate(-442.865 -293.37)" fill="#00347f"/>
        <path id="Path_4355" data-name="Path 4355" d="M443.137,297.711a.262.262,0,0,1-.261-.262v-3.807a.261.261,0,0,1,.523,0v3.807A.262.262,0,0,1,443.137,297.711Z" transform="translate(-442.876 -293.381)" fill="#00347f"/>
      </g>
      <g id="Group_3699" data-name="Group 3699" transform="translate(450.271 296.619)">
        <path id="Path_4356" data-name="Path 4356" d="M444.885,294.679l2.3-.007-1.065,1.63Z" transform="translate(-444.624 -294.411)" fill="#00347f"/>
        <path id="Path_4357" data-name="Path 4357" d="M446.136,296.573a.267.267,0,0,1-.213-.1l-1.234-1.622a.261.261,0,0,1,.208-.419l2.3-.007a.261.261,0,0,1,.219.4l-1.065,1.629A.26.26,0,0,1,446.136,296.573Zm-.712-1.623.691.909.6-.913Z" transform="translate(-444.635 -294.422)" fill="#00347f"/>
      </g>
      <path id="Path_4358" data-name="Path 4358" d="M444.709,305.247a1.368,1.368,0,0,1,.271-.942,1.046,1.046,0,0,1,.771-.346.98.98,0,0,1,.764.259,1.4,1.4,0,0,1,.338.954l-.3-.012a1.125,1.125,0,0,0-.251-.733.678.678,0,0,0-.538-.173.757.757,0,0,0-.562.244,1.079,1.079,0,0,0-.2.719Z" transform="translate(5.639 2.635)" fill="#00347f"/>
      <path id="Path_4359" data-name="Path 4359" d="M444.25,307.817a.4.4,0,0,1-.4-.4l.318-1.954a.389.389,0,0,1,.394-.371h2.655a.4.4,0,0,1,.4.4l.3,1.871a.4.4,0,0,1-.393.418Zm.314-2.426a.1.1,0,0,0-.1.1l-.317,1.954a.1.1,0,0,0,.1.076l3.268-.037a.1.1,0,0,0,.1-.1l-.3-1.871c0-.077-.047-.122-.1-.122Z" transform="translate(5.6 2.687)" fill="#00347f"/>
      <path id="Path_4360" data-name="Path 4360" d="M390.793,283.513h27.826v31.621H390.793Z" transform="translate(3.162 1.696)" fill="#e4e9f1"/>
      <path id="Path_4362" data-name="Path 4362" d="M411.858,310.865a2.707,2.707,0,1,1,2.708,2.7A2.7,2.7,0,0,1,411.858,310.865Z" transform="translate(4.13 2.828)" fill="#fff"/>
      <path id="Path_4363" data-name="Path 4363" d="M414.522,312.664a.148.148,0,0,1-.085-.027c-.072-.051-1.754-1.251-1.736-2.318a1.042,1.042,0,0,1,.533-.87.827.827,0,0,1,.666-.133,1.238,1.238,0,0,1,.634.442,1.281,1.281,0,0,1,.661-.449.85.85,0,0,1,.67.139.98.98,0,0,1,.486.813c.025,1.06-1.67,2.321-1.742,2.373A.143.143,0,0,1,414.522,312.664Zm-.805-3.074a.578.578,0,0,0-.319.107.758.758,0,0,0-.4.628c-.013.787,1.188,1.751,1.524,2.006.5-.391,1.551-1.354,1.535-2.063a.692.692,0,0,0-.356-.571.551.551,0,0,0-.439-.1,1.175,1.175,0,0,0-.6.492.151.151,0,0,1-.128.071.147.147,0,0,1-.128-.074,1.125,1.125,0,0,0-.573-.483A.466.466,0,0,0,413.717,309.59Z" transform="translate(4.169 2.88)" fill="#00347f"/>
      <rect id="Rectangle_1421" data-name="Rectangle 1421" width="15.53" height="5.538" rx="2.313" transform="translate(428.559 305.778)" fill="#00347f"/>
      <g id="Group_3701" data-name="Group 3701" transform="translate(448.431 346.025)">
        <path id="Path_4367" data-name="Path 4367" d="M443.126,341.908v0Z" transform="translate(-442.865 -341.647)" fill="#00347f"/>
        <path id="Path_4368" data-name="Path 4368" d="M443.137,345.987a.262.262,0,0,1-.261-.261v-3.806a.261.261,0,0,1,.523,0v3.806A.262.262,0,0,1,443.137,345.987Z" transform="translate(-442.876 -341.658)" fill="#00347f"/>
      </g>
      <g id="Group_3702" data-name="Group 3702" transform="translate(450.271 347.112)">
        <path id="Path_4369" data-name="Path 4369" d="M444.885,342.956l2.3-.007-1.065,1.629Z" transform="translate(-444.624 -342.686)" fill="#00347f"/>
        <path id="Path_4370" data-name="Path 4370" d="M446.136,344.851a.268.268,0,0,1-.213-.1l-1.234-1.622a.262.262,0,0,1,.208-.419l2.3-.007a.261.261,0,0,1,.219.4l-1.065,1.63A.265.265,0,0,1,446.136,344.851Zm-.712-1.624.691.909.6-.913Z" transform="translate(-444.635 -342.698)" fill="#00347f"/>
      </g>
      <path id="Path_4371" data-name="Path 4371" d="M444.709,353.524a1.37,1.37,0,0,1,.271-.943,1.047,1.047,0,0,1,.771-.346.971.971,0,0,1,.764.259,1.4,1.4,0,0,1,.338.955l-.3-.012a1.125,1.125,0,0,0-.251-.733.678.678,0,0,0-.538-.173.753.753,0,0,0-.562.243,1.082,1.082,0,0,0-.2.72Z" transform="translate(5.639 4.852)" fill="#00347f"/>
      <path id="Path_4372" data-name="Path 4372" d="M444.25,356.094a.4.4,0,0,1-.4-.4l.318-1.954a.389.389,0,0,1,.394-.372h2.655a.4.4,0,0,1,.4.4l.3,1.871a.4.4,0,0,1-.393.42Zm.314-2.427a.1.1,0,0,0-.1.1l-.317,1.954a.1.1,0,0,0,.1.076l3.268-.036a.1.1,0,0,0,.1-.1l-.3-1.87c0-.078-.047-.123-.1-.123Z" transform="translate(5.6 4.905)" fill="#00347f"/>
      <path id="Path_4373" data-name="Path 4373" d="M390.793,331.79h27.826v31.621H390.793Z" transform="translate(3.162 3.913)" fill="#e4e9f1"/>
      <path id="Path_4374" data-name="Path 4374" d="M411.858,359.142a2.707,2.707,0,1,1,2.708,2.7A2.7,2.7,0,0,1,411.858,359.142Z" transform="translate(4.13 5.046)" fill="#f5f5f5"/>
      <path id="Path_4375" data-name="Path 4375" d="M414.522,360.94a.156.156,0,0,1-.085-.026c-.072-.051-1.754-1.252-1.736-2.318a1.041,1.041,0,0,1,.533-.87.81.81,0,0,1,.666-.133,1.233,1.233,0,0,1,.634.443,1.271,1.271,0,0,1,.661-.45.846.846,0,0,1,.67.139.979.979,0,0,1,.486.812c.025,1.061-1.67,2.321-1.742,2.374A.149.149,0,0,1,414.522,360.94Zm-.805-3.073a.583.583,0,0,0-.319.106.758.758,0,0,0-.4.629c-.013.787,1.188,1.75,1.524,2.006.5-.391,1.551-1.354,1.535-2.064a.692.692,0,0,0-.356-.571.554.554,0,0,0-.439-.1,1.145,1.145,0,0,0-.6.492.2.2,0,0,1-.129.071.146.146,0,0,1-.127-.074,1.125,1.125,0,0,0-.573-.483A.471.471,0,0,0,413.717,357.867Z" transform="translate(4.169 5.098)" fill="#00347f"/>
      <rect id="Rectangle_1422" data-name="Rectangle 1422" width="15.53" height="5.538" rx="2.313" transform="translate(428.559 356.272)" fill="#00347f"/>
    </g>
    <g id="Group_3703" data-name="Group 3703" transform="translate(458.907 296.243)">
      <path id="Path_4377" data-name="Path 4377" d="M454.427,294.312h31.534c.71,0,1.285,1.073,1.285,2.4v29.587c0,1.322-.575,2.4-1.285,2.4H454.427c-.71,0-1.285-1.073-1.285-2.4V296.707C453.142,295.385,453.717,294.312,454.427,294.312Z" transform="translate(-452.88 -294.052)" fill="#fff"/>
      <path id="Path_4378" data-name="Path 4378" d="M485.973,328.963H454.439c-.868,0-1.547-1.166-1.547-2.656V296.719c0-1.489.679-2.656,1.547-2.656h31.534c.868,0,1.547,1.166,1.547,2.656v29.589C487.52,327.8,486.841,328.963,485.973,328.963Zm-31.534-34.377c-.484,0-1.024.875-1.024,2.133v29.589c0,1.256.54,2.133,1.024,2.133h31.534c.484,0,1.024-.876,1.024-2.133V296.719c0-1.257-.54-2.133-1.024-2.133Z" transform="translate(-452.892 -294.063)" fill="#00347f"/>
    </g>
    <g id="Group_3704" data-name="Group 3704" transform="translate(516.703 305.404)">
      <path id="Path_4379" data-name="Path 4379" d="M509.3,303.071h22c.495,0,.9.749.9,1.671v20.646c0,.923-.4,1.671-.9,1.671h-22c-.5,0-.9-.749-.9-1.671V304.742C508.4,303.82,508.8,303.071,509.3,303.071Z" transform="translate(-508.138 -302.81)" fill="#fff"/>
      <path id="Path_4380" data-name="Path 4380" d="M531.311,327.333h-22c-.65,0-1.159-.849-1.159-1.933V304.754c0-1.084.509-1.933,1.159-1.933h22c.65,0,1.158.849,1.158,1.933V325.4C532.469,326.483,531.961,327.333,531.311,327.333Zm-22-23.989c-.3,0-.636.6-.636,1.41V325.4c0,.807.336,1.41.636,1.41h22c.3,0,.635-.6.635-1.41V304.754c0-.807-.335-1.41-.635-1.41Z" transform="translate(-508.149 -302.821)" fill="#00347f"/>
    </g>
    <g id="Group_3706" data-name="Group 3706" transform="translate(375.348 374.598)">
      <path id="Path_4383" data-name="Path 4383" d="M373.924,369.226H390.4c.37,0,.671.561.671,1.251v15.459c0,.69-.3,1.251-.671,1.251H373.924c-.371,0-.672-.561-.672-1.251V370.477C373.253,369.787,373.553,369.226,373.924,369.226Z" transform="translate(-372.991 -368.965)" fill="#fff"/>
      <path id="Path_4384" data-name="Path 4384" d="M390.412,387.46H373.936c-.532,0-.933-.651-.933-1.512V370.488c0-.862.4-1.512.933-1.512h16.476c.532,0,.933.651.933,1.512v15.459C391.345,386.809,390.944,387.46,390.412,387.46ZM373.936,369.5c-.163,0-.41.394-.41.989v15.459c0,.6.247.989.41.989h16.476c.163,0,.41-.393.41-.989V370.488c0-.6-.247-.989-.41-.989Z" transform="translate(-373.003 -368.976)" fill="#004def"/>
    </g>
    <rect id="Rectangle_1424" data-name="Rectangle 1424" width="11.702" height="11.702" transform="translate(523.626 313.771)" fill="#e4e9f1"/>
    <rect id="Rectangle_1425" data-name="Rectangle 1425" width="1.883" height="11.702" transform="translate(528.334 313.771)" fill="#00347f"/>
    <path id="Path_4385" data-name="Path 4385" d="M518.523,311.154a3.3,3.3,0,0,1-2.387-.744,1.985,1.985,0,0,1-.319-2.028c.228-.793.619-1.232,1.161-1.305,1.472-.189,3.346,2.735,3.7,3.325l.259.427-.486.11A9.5,9.5,0,0,1,518.523,311.154Zm-1.387-3.37a.411.411,0,0,0-.063,0c-.291.039-.47.452-.567.793a1.316,1.316,0,0,0,.151,1.337c.6.639,2.172.559,3.13.415C518.992,309.142,517.815,307.784,517.136,307.784Z" transform="translate(8.9 2.778)" fill="#00347f"/>
    <path id="Path_4386" data-name="Path 4386" d="M521.794,311.154a9.475,9.475,0,0,1-1.933-.215l-.487-.11.259-.427c.36-.59,2.244-3.513,3.7-3.325.542.073.933.513,1.161,1.305a1.985,1.985,0,0,1-.319,2.028A3.293,3.293,0,0,1,521.794,311.154Zm-1.265-.822c.959.144,2.529.224,3.129-.414a1.316,1.316,0,0,0,.151-1.337c-.1-.341-.275-.754-.567-.793C522.571,307.7,521.349,309.105,520.53,310.332Z" transform="translate(9.069 2.778)" fill="#00347f"/>
    <path id="Path_4390" data-name="Path 4390" d="M382.051,371.576l1.968,3.989,4.4.64-3.185,3.1.752,4.384-3.937-2.07-3.937,2.07.752-4.384-3.185-3.1,4.4-.64Z" transform="translate(2.468 5.741)" fill="#00347f"/>
    <path id="Path_4391" data-name="Path 4391" d="M498.362,367.266c-.13.493-.493.824-.811.742s-.472-.551-.342-1.045.493-.825.811-.742S498.491,366.773,498.362,367.266Z" transform="translate(8.049 5.494)" opacity="0.42" fill="url(#linear-gradient-2)"/>
    <g id="Group_3708" data-name="Group 3708" transform="translate(529.076 288.623)">
      <path id="Path_4392" data-name="Path 4392" d="M526.714,288.08l-.332-.164c-.414-.2-.651-.311-.651-.311l-.339-.151.3-.678.338.151s.244.109.679.324l.333.165Z" transform="translate(-519.731 -286.777)" fill="#00347f"/>
      <path id="Path_4393" data-name="Path 4393" d="M523.653,348.633l-.139-.728.364-.069q.709-.136,1.434-.31l.361-.086.172.721-.361.086q-.737.176-1.466.316Zm4.364-1.1-.237-.7.35-.12q.687-.232,1.374-.5l.345-.137.273.689-.344.136c-.47.187-.941.36-1.41.519Zm4.165-1.714-.345-.656.327-.173q.643-.339,1.276-.715l.318-.19.381.636-.319.19c-.432.259-.869.5-1.311.735Zm3.833-2.372-.455-.585.293-.228q.573-.442,1.128-.928l.278-.244.488.557-.279.244c-.381.334-.768.651-1.161.956Zm3.345-3.023-.552-.494.246-.277q.482-.537.938-1.116l.229-.292.583.46-.23.291q-.472.6-.966,1.152Zm2.737-3.579-.632-.387.192-.316q.377-.613.727-1.267l.176-.327.653.35-.175.326q-.361.673-.747,1.3Zm2.075-3.993-.688-.278.14-.343q.271-.668.518-1.37l.122-.35.7.246-.123.349q-.253.72-.53,1.4Zm1.437-4.257-.719-.181.09-.36q.176-.7.329-1.429l.076-.363.726.153-.076.364q-.157.742-.336,1.457Zm.879-4.4-.735-.1.049-.368c.065-.478.12-.963.169-1.458l.036-.369.74.072-.038.368c-.048.505-.107,1-.172,1.485Zm.408-4.461-.741-.027s.044-1.344.049-1.843l0-.37.742.007,0,.371q-.008.756-.036,1.493Zm-.721-4.447s-.05-1.17-.074-1.578l-.043-.632.74-.051.118,2.232Zm-.394-4.371-.069-.364q-.135-.725-.313-1.425l-.09-.36.719-.181.091.359c.121.483.229.972.323,1.47l.067.365Zm-1.126-4.228-.131-.347q-.262-.689-.559-1.35l-.151-.339.676-.3.152.338q.3.682.574,1.391l.132.347Zm-1.835-3.981-.187-.32q-.372-.637-.769-1.247l-.2-.311.621-.4.2.311q.406.626.788,1.278l.187.319Zm-2.438-3.655-.231-.291q-.461-.579-.938-1.129l-.243-.279.56-.486.244.28c.323.373.644.758.958,1.153l.23.29Zm-2.918-3.3-.264-.259q-.532-.522-1.068-1.009l-.275-.25.5-.548.274.25q.546.5,1.088,1.029l.265.259Zm-3.282-2.942-.292-.23q-.593-.468-1.171-.892l-.3-.22.439-.6.3.22q.585.431,1.191.908l.291.228Zm-3.577-2.593-.312-.2c-.439-.281-.859-.541-1.252-.774l-.318-.19.379-.636.319.188c.4.238.825.5,1.273.789l.312.2Z" transform="translate(-519.817 -286.701)" fill="#00347f"/>
      <path id="Path_4394" data-name="Path 4394" d="M520.045,346.488l-.065-.737,1.466-.143.08.738Z" transform="translate(-519.979 -284.075)" fill="#00347f"/>
    </g>
    <path id="Path_4395" data-name="Path 4395" d="M489.332,301.873l-.624-.4.2-.312q.414-.648.837-1.245l.213-.3.606.428-.214.3c-.273.389-.546.793-.816,1.215Zm2.569-3.555-.56-.486.243-.279c.337-.388.674-.759,1.009-1.11l.256-.268.536.514-.256.267q-.493.513-.985,1.084Zm3.08-3.114-.472-.571.286-.236c.4-.331.8-.637,1.192-.92l.3-.215.432.6-.3.216q-.569.409-1.154.89Zm3.583-2.488-.342-.657.327-.172c.476-.248.932-.462,1.365-.647l.341-.145.291.681-.34.146c-.416.178-.856.384-1.314.622Zm4.03-1.613-.161-.724.362-.081a9.093,9.093,0,0,1,1.536-.233l.37-.013.025.74-.369.014a8.74,8.74,0,0,0-1.4.215Z" transform="translate(7.661 1.996)" fill="#00347f"/>
    <path id="Path_4396" data-name="Path 4396" d="M337.468,381.648l-.3-.219s-.446-.324-1.183-.949l-.283-.238.478-.566.283.238c.708.6,1.142.916,1.142.916l.3.219Zm-3.434-2.923-.266-.259c-.337-.327-.689-.682-1.055-1.06l-.257-.267.532-.515.258.266q.54.558,1.04,1.045l.266.258Zm-3.088-3.258-.24-.281q-.471-.557-.949-1.16l-.229-.29.58-.461.23.292q.469.593.933,1.139l.24.282Zm-2.754-3.542-.209-.305q-.417-.61-.823-1.251l-.2-.314.625-.4.2.314q.4.631.809,1.228l.209.306Zm-2.361-3.821-.173-.327q-.345-.656-.671-1.34l-.159-.334.668-.32.16.336q.319.668.658,1.313l.173.327Zm-1.881-4.079-.129-.347q-.259-.7-.487-1.42l-.112-.354.707-.222.112.352q.223.7.476,1.386l.128.347Zm-1.3-4.305-.076-.364c-.1-.486-.192-.979-.27-1.476l-.058-.367.733-.113.056.365q.115.728.264,1.439l.075.363Zm-.634-4.455-.02-.37q-.041-.761-.048-1.5l0-.37.742-.007,0,.371c.005.48.02.969.047,1.463l.02.371Zm.746-4.434-.738-.06.029-.37q.061-.759.156-1.492l.047-.367.735.094-.047.367q-.093.715-.153,1.457Zm.609-4.348-.723-.163.082-.362q.169-.745.366-1.454l.1-.357.714.2-.1.358q-.193.692-.358,1.42Zm1.225-4.215L323.9,342l.133-.345q.276-.719.572-1.387l.15-.339.679.3-.15.339q-.289.654-.56,1.354Zm1.82-4-.645-.364.181-.323c.256-.454.514-.884.768-1.29l.2-.314.628.394-.2.314c-.249.4-.5.815-.749,1.259Zm2.385-3.687-.584-.456.229-.293c.352-.449.678-.836.962-1.158l.245-.278.555.491-.245.278c-.276.314-.593.688-.935,1.125Z" transform="translate(0 3.941)" fill="#00347f"/>
    <path id="Path_4397" data-name="Path 4397" d="M491.642,340.077l-.135-.345a13.052,13.052,0,0,1-.445-1.466l-.09-.359.72-.18.09.359a12.9,12.9,0,0,0,.415,1.376l.135.345Zm-1.035-4.428-.028-.369c-.029-.4-.048-.817-.048-1.247l.006-.635.742.005-.006.63c0,.411.017.809.046,1.191l.028.369Zm.934-4.367-.721-.174.087-.361a12.006,12.006,0,0,1,.451-1.46l.132-.346.692.264-.132.346a11.2,11.2,0,0,0-.423,1.37Zm1.66-3.937-.594-.443.222-.3a11.438,11.438,0,0,1,.995-1.162l.258-.265.53.518-.259.266a10.459,10.459,0,0,0-.93,1.087Zm3.077-3.026-.438-.6.3-.219q.645-.474,1.239-.853l.313-.2.4.624-.312.2c-.385.247-.785.52-1.2.825Zm3.713-2.263-.282-.685.343-.141a11.092,11.092,0,0,1,1.451-.491l.359-.092.185.717-.36.092a10.592,10.592,0,0,0-1.353.457Zm5.291-.551h-.742v-.123c-.032-.01-.072-.023-.114-.035l-.357-.1.2-.714.357.1c.446.123.657.231.657.5Z" transform="translate(7.744 3.396)" fill="#00347f"/>
    <path id="Path_4398" data-name="Path 4398" d="M474.459,376.139l.731,4.683A6,6,0,0,0,477.9,378.9c.862-1.072,11.682-3.446,11.682-3.446l-3.121-1.805a26,26,0,0,0-5.9.049A13.759,13.759,0,0,0,477,375.326Z" transform="translate(7.006 5.829)" fill="#feb49c"/>
    <path id="Path_4399" data-name="Path 4399" d="M467.5,355.743s-6.13,1.239-9.646,3.105c-5.646,3-15.719,23.2-13.967,27.292,4.674,10.924,32.924-4.122,32.924-4.122l-.758-5.232,2.547-.55,3.305-1.721s-1.653-9.225-3.305-11.154a29.967,29.967,0,0,0-4.962-4.687c-.167-.2.312,1.541-1.078,1.486s-3.309-.275-4.437-1.5C466.519,356.907,467.5,355.743,467.5,355.743Z" transform="translate(5.592 5.014)" fill="#f5f5f5"/>
    <path id="Path_4400" data-name="Path 4400" d="M453.557,383.529a.261.261,0,0,1-.234-.375l.891-1.836-1.2.2a.271.271,0,0,1-.278-.145.261.261,0,0,1,.062-.307l2.013-1.815a82.623,82.623,0,0,0,4.8-7.163c1.852-3.166,3.8-6.336,3.819-6.368a.259.259,0,0,1,.36-.086.262.262,0,0,1,.086.36c-.02.031-1.962,3.2-3.812,6.357a82.228,82.228,0,0,1-4.874,7.25l-1.388,1.257.823-.134a.262.262,0,0,1,.277.372l-.542,1.115,1.752-1.545a.272.272,0,0,1,.11-.059l19.1-4.709a.26.26,0,0,1,.21.039.267.267,0,0,1,.112.183l.615,4.964a.262.262,0,0,1-.226.293.257.257,0,0,1-.293-.227l-.579-4.672L456.413,381.1l-2.683,2.366A.253.253,0,0,1,453.557,383.529Z" transform="translate(6.007 5.466)" fill="#130514"/>
    <path id="Path_4410" data-name="Path 4410" d="M472.7,357.5a.256.256,0,0,1-.15-.047c-1.774-1.23-3-4.3-3.055-4.431a.262.262,0,0,1,.486-.192c.013.031,1.224,3.053,2.867,4.194a.262.262,0,0,1,.066.364A.259.259,0,0,1,472.7,357.5Z" transform="translate(6.777 4.872)" fill="#130514"/>
    <path id="Path_4411" data-name="Path 4411" d="M505.815,369.74l-.37-.026a12.729,12.729,0,0,1-1.52-.188l-.363-.074.15-.726.363.075a12.454,12.454,0,0,0,1.424.173l.37.027Zm2.287-.036-.076-.736.368-.039c.485-.05.966-.126,1.429-.219l.362-.075.15.726-.363.074c-.484.1-.99.178-1.5.231Zm4.429-1.049-.31-.674.336-.155a10.905,10.905,0,0,0,1.259-.682l.313-.2.4.627-.314.2a11.6,11.6,0,0,1-1.345.731Zm3.765-2.588-.553-.492.246-.277a10.6,10.6,0,0,0,.877-1.131l.206-.307.615.412-.206.307a11.118,11.118,0,0,1-.937,1.211Zm2.407-3.883-.7-.231.116-.352a11.819,11.819,0,0,0,.365-1.389l.072-.364.728.145-.073.363a12.4,12.4,0,0,1-.388,1.477Zm.037-4.473-.005-.37c-.005-.477-.032-.963-.082-1.448l-.037-.369.737-.073.037.368c.051.506.08,1.015.086,1.513l0,.369Zm-.505-4.324-.092-.359c-.135-.531-.278-1-.409-1.4l-.117-.35.7-.234.116.352c.137.409.285.9.425,1.449l.091.359Z" transform="translate(8.343 4.798)" fill="#00347f"/>
    <g id="Group_3710" data-name="Group 3710" transform="translate(471.45 302.851)">
      <path id="Path_4412" data-name="Path 4412" d="M469.38,317.549a15.2,15.2,0,0,1-3.12-.3,1.015,1.015,0,0,1,.424-1.986c1.141.242,4.4.614,5.767-.552a1.881,1.881,0,0,0,.61-1.7c-.064-1.211-.82-1.519-3.215-1.887-2.026-.312-5.086-.781-4.958-4.286a3.223,3.223,0,0,1,1.19-2.431c2.14-1.768,6.489-1.158,6.98-1.08a1.015,1.015,0,0,1-.309,2.007c-1.5-.23-4.293-.258-5.378.64a1.186,1.186,0,0,0-.453.939c-.054,1.474.68,1.811,3.236,2.2,2.014.31,4.775.734,4.935,3.788a3.914,3.914,0,0,1-1.321,3.348A6.932,6.932,0,0,1,469.38,317.549Z" transform="translate(-464.884 -300.252)" fill="#00347f"/>
      <path id="Path_4413" data-name="Path 4413" d="M469.539,319.587a1.019,1.019,0,0,1-1.027-1.017l0-2.6a.984.984,0,0,1,1.017-1.015,1.016,1.016,0,0,1,1.016,1.016l0,2.6A1.015,1.015,0,0,1,469.539,319.587Z" transform="translate(-464.718 -299.71)" fill="#00347f"/>
      <path id="Path_4414" data-name="Path 4414" d="M469.568,305.366a1.018,1.018,0,0,1-1.027-1.018l.008-2.956a1.042,1.042,0,0,1,1.019-1.012,1.015,1.015,0,0,1,1.012,1.018l-.008,2.956A1.016,1.016,0,0,1,469.568,305.366Z" transform="translate(-464.716 -300.38)" fill="#00347f"/>
    </g>
    <path id="Path_4415" data-name="Path 4415" d="M470.021,323.765a13.118,13.118,0,1,1,13.118-13.118A13.132,13.132,0,0,1,470.021,323.765Zm0-25.495A12.377,12.377,0,1,0,482.4,310.647,12.391,12.391,0,0,0,470.021,298.271Z" transform="translate(6.2 2.34)" fill="#00347f"/>
    <path id="Path_4416" data-name="Path 4416" d="M460.884,248.489H385.333a6.237,6.237,0,0,1,5.673-4.655l64.248-.008A5.692,5.692,0,0,1,460.884,248.489Z" transform="translate(2.912 20.791)" fill="#e4e9f1"/>
    <g id="Group_3711" data-name="Group 3711" transform="translate(453.162 265.635)">
      <path id="Path_4417" data-name="Path 4417" d="M452.094,247.424h-4.121a.574.574,0,0,1-.574-.573v-1.479a.574.574,0,0,1,.574-.573h4.121a.575.575,0,0,1,.574.573v1.479A.574.574,0,0,1,452.094,247.424Zm-4.121-2.336a.285.285,0,0,0-.286.283v1.479a.286.286,0,0,0,.286.284h4.121a.285.285,0,0,0,.284-.284v-1.479a.284.284,0,0,0-.284-.283Z" transform="translate(-447.399 -244.799)" fill="#fff"/>
      <path id="Path_4418" data-name="Path 4418" d="M451.1,246.917h-2.939a.339.339,0,0,1-.335-.345v-.962a.339.339,0,0,1,.335-.345h1.893Z" transform="translate(-447.379 -244.778)" fill="#fff"/>
      <path id="Path_4419" data-name="Path 4419" d="M452.749,245.863v.331a.1.1,0,0,1-.1.106H452.3v-.543h.346A.1.1,0,0,1,452.749,245.863Z" transform="translate(-447.174 -244.755)" fill="#fff"/>
    </g>
    <g id="Group_3712" data-name="Group 3712" transform="translate(394.048 265.801)">
      <path id="Path_4420" data-name="Path 4420" d="M394.553,245.686l-.4.425a2.061,2.061,0,0,0-2.861.021l-.409-.419a2.646,2.646,0,0,1,3.672-.026Z" transform="translate(-390.881 -244.958)" fill="#fff"/>
      <path id="Path_4421" data-name="Path 4421" d="M393.925,246.28l-.406.43a1.182,1.182,0,0,0-1.643.012l-.414-.425a1.778,1.778,0,0,1,2.463-.017Z" transform="translate(-390.854 -244.92)" fill="#fff"/>
      <path id="Path_4422" data-name="Path 4422" d="M393.284,246.889l-.608.641-.617-.632a.885.885,0,0,1,1.225-.009Z" transform="translate(-390.827 -244.88)" fill="#fff"/>
    </g>
    <g id="Group_3713" data-name="Group 3713" transform="translate(399.13 265.598)">
      <rect id="Rectangle_1427" data-name="Rectangle 1427" width="0.806" height="2.853" transform="translate(3.405)" fill="#fff"/>
      <rect id="Rectangle_1428" data-name="Rectangle 1428" width="0.806" height="2.221" transform="translate(2.206 0.632)" fill="#fff"/>
      <rect id="Rectangle_1429" data-name="Rectangle 1429" width="0.806" height="1.687" transform="translate(1.095 1.166)" fill="#fff"/>
      <rect id="Rectangle_1430" data-name="Rectangle 1430" width="0.806" height="0.844" transform="translate(0 2.009)" fill="#fff"/>
    </g>
  </g>
</svg>
