<svg xmlns="http://www.w3.org/2000/svg" xmlns:xlink="http://www.w3.org/1999/xlink" width="263.432" height="200" viewBox="0 0 263.432 200">
  <defs>
    <linearGradient id="linear-gradient" x1="0.015" y1="0.663" x2="0.823" y2="0.867" gradientUnits="objectBoundingBox">
      <stop offset="0" stop-color="#fff"/>
      <stop offset="1" stop-color="#dee5e4"/>
    </linearGradient>
  </defs>
  <g id="Group_3786" data-name="Group 3786" transform="translate(-306.022 -23.477)">
    <path id="Path_4698" data-name="Path 4698" d="M342.507,187.236c34.024,50.61,88.452-1.05,118.574,12.082,30.945,13.49,53.586-16.167,41.235-63.906C490.291,88.937,460.526,60,438.188,50.783c-36.93-15.242-87.251,12.776-81.347,45.863C362.17,126.507,320.035,153.809,342.507,187.236Z" transform="translate(1.93 1.49)" fill="#e4e9f1"/>
    <path id="Path_4699" data-name="Path 4699" d="M380,211.628c-15.47,0-30.383-5.558-42.7-23.878-13.776-20.491-4.517-38.819,4.436-56.545,6.53-12.927,12.7-25.137,10.406-37.979-2.347-13.15,3.741-26.679,16.7-37.117,19.133-15.408,47.394-20.02,68.721-11.22,24.626,10.163,54.917,41.462,67.081,88.473,7.214,27.885,3.26,52.406-10.32,64-8.852,7.554-20.694,8.675-33.341,3.162-11.583-5.051-26.914-.689-43.144,3.929C405.595,207.933,392.612,211.628,380,211.628Zm-41.815-24.472c21.926,32.612,52.442,23.929,79.366,16.268,16.417-4.671,31.923-9.085,43.861-3.881,12.255,5.344,23.7,4.279,32.224-3,13.268-11.322,17.092-35.431,9.979-62.919-12.07-46.657-42.075-77.693-66.455-87.755-20.988-8.662-48.8-4.111-67.648,11.064-12.648,10.187-18.6,23.345-16.321,36.1,2.355,13.191-4.182,26.131-10.5,38.646C333.873,149.137,324.757,167.183,338.185,187.156Z" transform="translate(1.569 1.098)" fill="#b1c1d8"/>
    <rect id="Rectangle_1560" data-name="Rectangle 1560" width="60.935" height="166.691" rx="5.246" transform="translate(451.441 42.914)" fill="#ebf3f9"/>
    <g id="Group_3757" data-name="Group 3757" transform="translate(306.022 73.449)">
      <path id="Path_4700" data-name="Path 4700" d="M349.49,117.754s2.008-9.789,2.484-15.435,1.065-8.41-1.684-10.19c-2.726-1.765-4.56,1.01-5.118,5.524S349.49,117.754,349.49,117.754Z" transform="translate(-303.493 -69.043)" fill="#d5e9fe"/>
      <path id="Path_4701" data-name="Path 4701" d="M351.271,118.551a55.274,55.274,0,0,0-11.477-2.6c-4.975-.35-13.186.771-12.538-4.512.555-4.529,9.585-1.635,13.245.392C342.935,113.182,351.271,118.551,351.271,118.551Z" transform="translate(-304.652 -67.915)" fill="#dde0f3"/>
      <path id="Path_4702" data-name="Path 4702" d="M331.436,102.069c-3.635-1.609-8.6-4.21-10.864-5.088s-7.5-2.8-9.537,2.055c-.987,2.359,4.318,4.489,9,4.577C325.093,103.709,335.069,103.678,331.436,102.069Z" transform="translate(-305.706 -68.768)" fill="#d5e9fe"/>
      <path id="Path_4703" data-name="Path 4703" d="M322.643,91.431s-1.873-4.614-3.832-9.03-6.019-12.976-10.17-11.895c-4.375,1.14-2.394,6.448-.339,8.883S322.643,91.431,322.643,91.431Z" transform="translate(-306.023 -70.413)" fill="#d5e9fe"/>
      <g id="Group_3756" data-name="Group 3756" transform="translate(1.19 0.799)">
        <path id="Path_4704" data-name="Path 4704" d="M333.409,102.36c-.161-.043-16.126-4.333-21.94-3.862a.162.162,0,0,0,.027.324c5.758-.467,21.668,3.808,21.828,3.851a.158.158,0,0,0,.147-.033.161.161,0,0,0-.062-.28Z" transform="translate(-306.87 -69.398)" fill="#b1c1d8"/>
        <path id="Path_4705" data-name="Path 4705" d="M366.886,142.345a.268.268,0,0,1-.063.038.243.243,0,0,1-.318-.129,91.111,91.111,0,0,0-4.494-8.815c-2.613-4.537-6.8-10.933-11.918-15.641-4.127-3.8-7.913-6.683-11.253-9.229-4.817-3.67-8.976-6.841-12.777-11.564-5.054-6.283-18.74-25.265-18.878-25.456a.243.243,0,0,1,.395-.284c.137.192,13.815,19.163,18.862,25.436,3.764,4.678,7.9,7.832,12.693,11.483,3.348,2.552,7.143,5.444,11.287,9.257,5.164,4.752,9.383,11.194,12.014,15.763a91.53,91.53,0,0,1,4.516,8.861A.244.244,0,0,1,366.886,142.345Z" transform="translate(-307.14 -71.164)" fill="#b1c1d8"/>
        <path id="Path_4706" data-name="Path 4706" d="M362.646,133.271a4.232,4.232,0,0,0-.8-.5,89.779,89.779,0,0,0-9.682-5.265c-.137-.059-.295-.126-.471-.2-3.6-1.552-14.562-6.277-18.393-3.768a3.124,3.124,0,0,0-1.359,2.788c-.014,3.143,5.23,4.9,8.356,5.667,4.28,1.051,12.234.68,15.842.338a11.042,11.042,0,0,1,4.656.451c.619.285,1.089.516,1.32.632l.293.183a.2.2,0,0,0,.238-.017A.211.211,0,0,0,362.646,133.271ZM352,127.88a70.787,70.787,0,0,1,7.083,3.714,27.308,27.308,0,0,0-4.071-1.367c-1.143-.263-4.3-1-7.9-1.85l-2.522-3.421c2.885.974,5.529,2.114,6.938,2.722Zm-18.745-3.809a2.587,2.587,0,0,1,.263-.195c1.542-1.009,4.577-.865,9.02.432.466.136.933.28,1.394.43.022.039,2.571,3.494,2.571,3.494l-1.534-.361a.2.2,0,0,0-.235-.1l-.078.023c-5.858-1.38-11.933-2.814-12.04-2.839A2.167,2.167,0,0,1,333.258,124.07Zm-.912,2.257a3.806,3.806,0,0,1,.125-1,.2.2,0,0,0,.055.022c.1.024,5.717,1.35,11.354,2.678l-7.534,2.249a13.817,13.817,0,0,1-1.471-.732C333.191,128.568,332.34,127.486,332.346,126.327Zm4.6,4.2,7.731-2.308,1.8.425-4.75,3.22c-.479-.075-.925-.162-1.332-.262A27.781,27.781,0,0,1,336.941,130.524Zm5.379,1.422,4.691-3.18,3.23.76-4.374,2.7C344.605,132.177,343.4,132.087,342.32,131.947Zm13.78-.019a84.677,84.677,0,0,1-9.5.322l4.2-2.59c1.906.447,3.411.8,4.127.962a26.634,26.634,0,0,1,3.932,1.315A13.349,13.349,0,0,0,356.1,131.927Z" transform="translate(-305.536 -67.823)" fill="#b1c1d8"/>
        <path id="Path_4707" data-name="Path 4707" d="M334.059,78.282a3.272,3.272,0,0,0-2.645.984c-1.432,1.582-1.244,4.821-.871,7.78.456,3.623,7.624,20.87,7.929,21.6a.158.158,0,0,0,.077.081l.036.122a.162.162,0,0,0,.2.106.15.15,0,0,0,.057-.031.161.161,0,0,0,.05-.171s-.032-.105-.086-.29c.256-1.4,2.011-11.22,2.06-16.636l.1-.193a.163.163,0,0,0-.069-.218,18.117,18.117,0,0,0-.156-1.825,33.707,33.707,0,0,0-.707-3.3l.076-.133a.162.162,0,0,0-.179-.237c-.133-.473-.283-.958-.452-1.446a.171.171,0,0,0-.05-.232c-.267-.658-.529-1.3-.826-1.92C337.333,79.687,335.8,78.326,334.059,78.282Zm-.442,17.251,2.777,4.154.017.089c.542,2.786,1.1,5.087,1.509,6.676C336.9,103.947,335.13,99.565,333.617,95.533Zm4.989,12.222c-.4-1.42-1.141-4.268-1.867-7.991l3.79-7.279A135.158,135.158,0,0,1,338.606,107.755Zm1.817-18.11a13.256,13.256,0,0,1,.12,2.108l-3.9,7.5c-.3-1.6-.621-3.447-.906-5.473.012-.018,4.071-7.079,4.071-7.079C340.052,87.649,340.26,88.644,340.423,89.645Zm-.737-3.39-4.025,7q-.144-1.06-.275-2.177a.162.162,0,0,0,.153-.03.165.165,0,0,0,.035-.042l3.686-6.158C339.411,85.3,339.554,85.772,339.687,86.255Zm-.563-1.808-3.774,6.305a92.7,92.7,0,0,1-.613-11.7.162.162,0,0,0-.325,0,102.8,102.8,0,0,0,1.827,19.822l-3.012-4.508a.15.15,0,0,0-.064-.054,48.341,48.341,0,0,1-2.3-7.3c-.343-2.717-.562-6.028.79-7.522a2.5,2.5,0,0,1,.247-.24,3.075,3.075,0,0,1,2.148-.638c1.613.042,3.047,1.341,4.263,3.864A19.686,19.686,0,0,1,339.123,84.448Z" transform="translate(-305.644 -70.703)" fill="#b1c1d8"/>
        <path id="Path_4708" data-name="Path 4708" d="M351.966,118.537c-.045-.02-4.537-2.034-9.755-3.928q-2.8-1.019-5.16-1.736a.159.159,0,0,0-.046-.138l-3.449-3.374a.161.161,0,1,0-.226.231l3.19,3.122c-4.053-1.2-7.046-1.7-8.934-1.476a.162.162,0,0,0,.038.323c2.041-.238,5.288.435,8.748,1.456l-3.266,2.255a.164.164,0,0,0-.042.226.162.162,0,0,0,.226.04l3.481-2.4a147.6,147.6,0,0,1,15.061,5.7.161.161,0,0,0,.17-.023.168.168,0,0,0,.044-.057A.162.162,0,0,0,351.966,118.537Z" transform="translate(-305.827 -68.696)" fill="#b1c1d8"/>
        <path id="Path_4709" data-name="Path 4709" d="M348.466,91.679a.161.161,0,0,0-.176.147,134.1,134.1,0,0,0,.032,14.583l-2.376-3.554a.162.162,0,1,0-.269.18l2.52,3.783a.163.163,0,0,0,.145.07c.242,5.678.579,10.535.587,10.629a.162.162,0,1,0,.323-.022c-.005-.076-.221-3.177-.43-7.306.056-.052,2.571-3.9,2.571-3.9a.162.162,0,0,0-.272-.177l-2.326,3.556c-.05-1.011-.1-2.077-.144-3.17l3.209-4.793a.162.162,0,0,0-.269-.181l-2.962,4.425a130.017,130.017,0,0,1-.015-14.1A.163.163,0,0,0,348.466,91.679Z" transform="translate(-304.65 -69.837)" fill="#b1c1d8"/>
      </g>
    </g>
    <rect id="Rectangle_1561" data-name="Rectangle 1561" width="93.097" height="38.733" transform="matrix(0.623, -0.783, 0.783, 0.623, 467.945, 136.303)" fill="#e4e9f1"/>
    <rect id="Rectangle_1562" data-name="Rectangle 1562" width="88.327" height="35.585" transform="translate(470.662 135.416) rotate(-51.493)" fill="#b1c1d8"/>
    <path id="Path_4710" data-name="Path 4710" d="M467.723,129.352l47.522-59.3a3.981,3.981,0,0,1,5.594-.637l14.8,11.776a4.45,4.45,0,0,1,.712,6.254l-47.5,59.277a5.8,5.8,0,0,1-8.156.928L468.72,138.12A6.24,6.24,0,0,1,467.723,129.352Z" transform="translate(10.37 2.915)" fill="#fff" style="isolation: isolate"/>
    <path id="Path_4711" data-name="Path 4711" d="M520.89,80.413a4.78,4.78,0,1,1-6.717.764A4.78,4.78,0,0,1,520.89,80.413Z" transform="translate(13.395 3.615)" fill="#b1c1d8"/>
    <path id="Path_4712" data-name="Path 4712" d="M488.7,120.868a4.78,4.78,0,1,1-6.717.764A4.78,4.78,0,0,1,488.7,120.868Z" transform="translate(11.313 6.231)" fill="#8992c3"/>
    <ellipse id="Ellipse_112" data-name="Ellipse 112" cx="13.758" cy="17.124" rx="13.758" ry="17.124" transform="translate(491.583 110.086) rotate(-51.493)" fill="#b1c1d8"/>
    <rect id="Rectangle_1563" data-name="Rectangle 1563" width="93.097" height="38.733" transform="matrix(0.758, -0.652, 0.652, 0.758, 473.633, 146.844)" fill="#e4e9f1"/>
    <rect id="Rectangle_1564" data-name="Rectangle 1564" width="88.327" height="35.585" transform="matrix(0.758, -0.652, 0.652, 0.758, 476.467, 146.48)" fill="#b1c1d8"/>
    <path id="Path_4713" data-name="Path 4713" d="M473.654,140.464l57.763-49.384a3.981,3.981,0,0,1,5.614.419l12.341,14.333a4.451,4.451,0,0,1-.47,6.277l-57.736,49.361a5.8,5.8,0,0,1-8.185-.611L473,149.265A6.24,6.24,0,0,1,473.654,140.464Z" transform="translate(10.701 4.31)" fill="#fff" style="isolation: isolate"/>
    <path id="Path_4714" data-name="Path 4714" d="M534.346,102.854a4.781,4.781,0,1,1-6.742-.5A4.781,4.781,0,0,1,534.346,102.854Z" transform="translate(14.223 5.026)" fill="#b1c1d8"/>
    <path id="Path_4715" data-name="Path 4715" d="M495.169,136.585a4.781,4.781,0,1,1-6.743-.5A4.78,4.78,0,0,1,495.169,136.585Z" transform="translate(11.689 7.208)" fill="#8992c3"/>
    <path id="Path_4716" data-name="Path 4716" d="M521.5,115.045c6.171,7.166,6.505,17,.746,21.953s-15.428,3.167-21.6-4-6.5-17-.746-21.953S515.332,107.878,521.5,115.045Z" transform="translate(12.273 5.482)" fill="#b1c1d8"/>
    <path id="Path_4717" data-name="Path 4717" d="M488.947,127.52c19.79-21.876-18.671-49.272-49.442-42.861-28.3,5.9-52.983,30.553-57.792,37.965-12.545,19.344-13.748,35.1-4.633,45.3,10.039,11.232,32.6,18.99,50.346,2.22,14.284-13.5,15.39-25.3,22.4-29.191C464.669,132.718,480.654,136.687,488.947,127.52Z" transform="translate(4.21 3.896)" fill="url(#linear-gradient)"/>
    <g id="Group_3759" data-name="Group 3759" transform="translate(418.922 144.926)">
      <path id="Path_4718" data-name="Path 4718" d="M413.459,159.76a15.764,15.764,0,1,1,20.835,7.805A15.732,15.732,0,0,1,413.459,159.76Z" transform="translate(-412.064 -137.548)" fill="#ffeec5"/>
      <g id="Group_3758" data-name="Group 3758" transform="translate(0.278 0.286)">
        <path id="Path_4719" data-name="Path 4719" d="M433.106,165.126a13.252,13.252,0,1,1,6.658-17.558A13.293,13.293,0,0,1,433.106,165.126Zm-10.491-23.191A12.2,12.2,0,1,0,438.809,148,12.242,12.242,0,0,0,422.615,141.935Z" transform="translate(-412.194 -137.689)" fill="#f1d175"/>
        <path id="Path_4720" data-name="Path 4720" d="M430.472,159.973a15.746,15.746,0,0,1-3.08,1.013,1.05,1.05,0,0,1-.426-2.057c1.182-.246,4.426-1.251,5.232-2.923a1.942,1.942,0,0,0-.129-1.859c-.563-1.119-1.408-1.1-3.829-.449-2.047.548-5.141,1.376-6.476-2a3.341,3.341,0,0,1,.115-2.8c1.293-2.563,5.663-3.8,6.16-3.925a1.05,1.05,0,0,1,.542,2.029c-1.518.407-4.171,1.54-4.826,2.843a1.222,1.222,0,0,0-.037,1.077c.561,1.418,1.4,1.432,3.98.741,2.037-.546,4.826-1.293,6.248,1.533a4.048,4.048,0,0,1,.143,3.72A7.169,7.169,0,0,1,430.472,159.973Z" transform="translate(-411.731 -137.356)" fill="#f1d175"/>
        <path id="Path_4721" data-name="Path 4721" d="M431.381,161.5a1.053,1.053,0,0,1-1.395-.536l-1.08-2.463a1.018,1.018,0,0,1,.54-1.384,1.052,1.052,0,0,1,1.384.541l1.08,2.463A1.051,1.051,0,0,1,431.381,161.5Z" transform="translate(-411.259 -136.574)" fill="#f1d175"/>
        <path id="Path_4722" data-name="Path 4722" d="M425.6,148.266a1.054,1.054,0,0,1-1.4-.538l-1.221-2.8a1.076,1.076,0,0,1,.543-1.383,1.051,1.051,0,0,1,1.383.543l1.221,2.8A1.051,1.051,0,0,1,425.6,148.266Z" transform="translate(-411.641 -137.452)" fill="#f1d175"/>
        <rect id="Rectangle_1565" data-name="Rectangle 1565" width="1.05" height="1.885" transform="translate(8.662 1.622) rotate(-24.701)" fill="#f1d175"/>
        <rect id="Rectangle_1566" data-name="Rectangle 1566" width="1.051" height="1.886" transform="translate(12.973 0.124) rotate(-6.756)" fill="#f1d175"/>
        <rect id="Rectangle_1567" data-name="Rectangle 1567" width="1.885" height="1.05" transform="translate(17.169 1.881) rotate(-78.763)" fill="#f1d175"/>
        <rect id="Rectangle_1568" data-name="Rectangle 1568" width="1.886" height="1.05" transform="matrix(0.488, -0.873, 0.873, 0.488, 20.985, 2.999)" fill="#f1d175"/>
        <rect id="Rectangle_1569" data-name="Rectangle 1569" width="1.885" height="1.05" transform="matrix(0.734, -0.679, 0.679, 0.734, 24.268, 5.241)" fill="#f1d175"/>
        <path id="Path_4723" data-name="Path 4723" d="M438.287,146.73l-.441-.953,1.714-.79.439.954Z" transform="translate(-410.675 -137.353)" fill="#f1d175"/>
        <rect id="Rectangle_1570" data-name="Rectangle 1570" width="1.886" height="1.05" transform="translate(28.451 12.083) rotate(-6.731)" fill="#f1d175"/>
        <path id="Path_4724" data-name="Path 4724" d="M441.357,154.417l-1.879-.136.075-1.048,1.882.137Z" transform="translate(-410.569 -136.82)" fill="#f1d175"/>
        <rect id="Rectangle_1571" data-name="Rectangle 1571" width="1.05" height="1.885" transform="matrix(0.393, -0.92, 0.92, 0.393, 27.469, 21.764)" fill="#f1d175"/>
        <rect id="Rectangle_1572" data-name="Rectangle 1572" width="1.05" height="1.885" transform="translate(24.816 25.038) rotate(-42.713)" fill="#f1d175"/>
        <rect id="Rectangle_1573" data-name="Rectangle 1573" width="1.05" height="1.885" transform="translate(21.36 27.56) rotate(-24.702)" fill="#f1d175"/>
        <rect id="Rectangle_1574" data-name="Rectangle 1574" width="1.05" height="1.885" transform="translate(17.014 28.86) rotate(-6.63)" fill="#f1d175"/>
        <rect id="Rectangle_1575" data-name="Rectangle 1575" width="1.885" height="1.05" transform="translate(12.341 30.4) rotate(-78.647)" fill="#f1d175"/>
        <rect id="Rectangle_1576" data-name="Rectangle 1576" width="1.886" height="1.05" transform="translate(7.462 28.526) rotate(-60.689)" fill="#f1d175"/>
        <rect id="Rectangle_1577" data-name="Rectangle 1577" width="1.885" height="1.05" transform="translate(3.663 25.337) rotate(-42.671)" fill="#f1d175"/>
        <rect id="Rectangle_1578" data-name="Rectangle 1578" width="1.886" height="1.05" transform="translate(0 16.074) rotate(-6.71)" fill="#f1d175"/>
        <rect id="Rectangle_1579" data-name="Rectangle 1579" width="1.05" height="1.885" transform="translate(0.314 12.341) rotate(-78.693)" fill="#f1d175"/>
        <rect id="Rectangle_1580" data-name="Rectangle 1580" width="1.051" height="1.885" transform="translate(1.913 7.984) rotate(-60.707)" fill="#f1d175"/>
        <rect id="Rectangle_1581" data-name="Rectangle 1581" width="1.05" height="1.886" transform="matrix(0.735, -0.678, 0.678, 0.735, 4.843, 4.162)" fill="#f1d175"/>
        <rect id="Rectangle_1582" data-name="Rectangle 1582" width="1.885" height="1.05" transform="translate(1.124 21.349) rotate(-24.51)" fill="#f1d175"/>
      </g>
    </g>
    <path id="Rectangle_1583" data-name="Rectangle 1583" d="M7.709,0H60.4a7.709,7.709,0,0,1,7.709,7.709V165.379a7.709,7.709,0,0,1-7.709,7.709H7.71A7.71,7.71,0,0,1,0,165.379V7.709A7.709,7.709,0,0,1,7.709,0Z" transform="translate(449.086 39.535)" fill="#00347f"/>
    <rect id="Rectangle_1584" data-name="Rectangle 1584" width="60.935" height="166.653" rx="4.682" transform="translate(451.441 42.951)" fill="#fff"/>
    <rect id="Rectangle_1585" data-name="Rectangle 1585" width="46.79" height="73.422" rx="4.36" transform="translate(458.514 77.819)" fill="#e4e9f1"/>
    <g id="Group_3763" data-name="Group 3763" transform="translate(451.441 42.909)">
      <path id="Path_4725" data-name="Path 4725" d="M503.542,46.477H442.608c.217-2.945,1.9-4.707,5.776-4.74l49.873-.009C501.249,41.729,503.756,43.9,503.542,46.477Z" transform="translate(-442.608 -41.729)" fill="#e4e9f1"/>
      <g id="Group_3760" data-name="Group 3760" transform="translate(50.555 1.037)">
        <path id="Path_4726" data-name="Path 4726" d="M494.871,45.376h-4.195a.585.585,0,0,1-.584-.585v-1.5a.585.585,0,0,1,.584-.585h4.195a.585.585,0,0,1,.584.585v1.5A.585.585,0,0,1,494.871,45.376ZM490.677,43a.29.29,0,0,0-.29.29v1.5a.29.29,0,0,0,.29.29h4.195a.29.29,0,0,0,.29-.29v-1.5a.29.29,0,0,0-.29-.29Z" transform="translate(-490.092 -42.703)" fill="#fff"/>
        <path id="Path_4727" data-name="Path 4727" d="M493.851,44.85H490.86a.345.345,0,0,1-.341-.351v-.979a.346.346,0,0,1,.341-.351h1.927Z" transform="translate(-490.064 -42.673)" fill="#fff"/>
        <path id="Path_4728" data-name="Path 4728" d="M495.45,43.769V44.1a.1.1,0,0,1-.1.108h-.353v-.552h.353A.106.106,0,0,1,495.45,43.769Z" transform="translate(-489.775 -42.641)" fill="#fff"/>
      </g>
      <g id="Group_3761" data-name="Group 3761" transform="translate(4.845 1.207)">
        <path id="Path_4729" data-name="Path 4729" d="M450.9,43.6l-.41.432a2.1,2.1,0,0,0-2.912.021l-.416-.427A2.7,2.7,0,0,1,450.9,43.6Z" transform="translate(-447.159 -42.863)" fill="#fff"/>
        <path id="Path_4730" data-name="Path 4730" d="M450.247,44.193l-.413.438a1.2,1.2,0,0,0-1.673.013l-.422-.432a1.811,1.811,0,0,1,2.507-.018Z" transform="translate(-447.121 -42.809)" fill="#fff"/>
        <path id="Path_4731" data-name="Path 4731" d="M449.584,44.8l-.619.653-.628-.644a.9.9,0,0,1,1.247-.009Z" transform="translate(-447.083 -42.754)" fill="#fff"/>
      </g>
      <g id="Group_3762" data-name="Group 3762" transform="translate(10.018 0.999)">
        <rect id="Rectangle_1586" data-name="Rectangle 1586" width="0.821" height="2.904" transform="translate(3.466)" fill="#fff"/>
        <rect id="Rectangle_1587" data-name="Rectangle 1587" width="0.821" height="2.261" transform="translate(2.246 0.643)" fill="#fff"/>
        <rect id="Rectangle_1588" data-name="Rectangle 1588" width="0.821" height="1.718" transform="translate(1.115 1.187)" fill="#fff"/>
        <rect id="Rectangle_1589" data-name="Rectangle 1589" width="0.821" height="0.859" transform="translate(0 2.046)" fill="#fff"/>
      </g>
    </g>
    <path id="Path_4732" data-name="Path 4732" d="M467.073,150.741a.267.267,0,0,1-.269-.26c0-.1-.262-10.2-4.059-10.7a1.894,1.894,0,0,0-1.555.485c-2.454,2.1-2.652,9.819-2.654,9.9a.251.251,0,0,1-.273.26.266.266,0,0,1-.26-.271c.007-.327.207-8.031,2.841-10.289a2.444,2.444,0,0,1,1.97-.61c4.248.56,4.514,10.78,4.523,11.214A.266.266,0,0,1,467.073,150.741Z" transform="translate(9.829 7.486)" fill="#080070"/>
    <path id="Path_4733" data-name="Path 4733" d="M470.665,145.963l.573,38.554-22.831-3.344.655-35Z" transform="translate(9.208 7.922)" fill="#b1c1d8"/>
    <path id="Path_4734" data-name="Path 4734" d="M473.358,145.977l-2.226.038.723,34.329,2.6.993Z" transform="translate(10.678 7.923)" fill="#99aac1"/>
    <path id="Path_4735" data-name="Path 4735" d="M471.346,146.067l-2.1,0,.6,38.161,2.233-4.04Z" transform="translate(10.556 7.928)" fill="#99aac1"/>
    <path id="Path_4736" data-name="Path 4736" d="M474.512,179.284l-2.687-1.157-2.059,4.1Z" transform="translate(10.59 10.002)" fill="#b6a9ff"/>
    <path id="Path_4737" data-name="Path 4737" d="M463.644,150.081a.268.268,0,0,1-.268-.261c0-.1-.261-10.2-4.059-10.7a1.892,1.892,0,0,0-1.554.485c-2.455,2.106-2.653,9.819-2.655,9.9a.254.254,0,0,1-.273.26.266.266,0,0,1-.26-.272c.007-.327.207-8.031,2.841-10.289a2.447,2.447,0,0,1,1.971-.61c4.247.56,4.512,10.78,4.522,11.215A.268.268,0,0,1,463.644,150.081Z" transform="translate(9.607 7.444)" fill="#080070"/>
    <rect id="Rectangle_1590" data-name="Rectangle 1590" width="33.372" height="40.235" rx="3.42" transform="translate(463.761 94.413)" fill="#fff"/>
    <g id="Group_3765" data-name="Group 3765" transform="translate(441.892 147.906)">
      <path id="Path_4746" data-name="Path 4746" d="M452.305,152.516a.267.267,0,0,1-.268-.26c0-.1-.262-10.2-4.06-10.7a1.9,1.9,0,0,0-1.555.486c-2.454,2.1-2.653,9.819-2.655,9.9a.261.261,0,0,1-.273.261.267.267,0,0,1-.26-.271c.007-.328.208-8.031,2.842-10.289a2.446,2.446,0,0,1,1.971-.61c4.247.56,4.513,10.78,4.523,11.214A.267.267,0,0,1,452.305,152.516Z" transform="translate(-433.018 -140.304)" fill="#080070"/>
      <path id="Path_4747" data-name="Path 4747" d="M455.9,147.738l.573,38.553-22.831-3.343.655-35Z" transform="translate(-433.639 -139.869)" fill="#e4e9f1"/>
      <path id="Path_4748" data-name="Path 4748" d="M458.59,147.752l-2.225.038.722,34.329,2.6.993Z" transform="translate(-432.169 -139.868)" fill="#c9d0db"/>
      <path id="Path_4749" data-name="Path 4749" d="M456.578,147.842l-2.1,0,.6,38.161,2.233-4.04Z" transform="translate(-432.291 -139.862)" fill="#c9d0db"/>
      <path id="Path_4750" data-name="Path 4750" d="M459.744,181.059l-2.687-1.157L455,184Z" transform="translate(-432.258 -137.789)" fill="#b6a9ff"/>
      <path id="Path_4751" data-name="Path 4751" d="M448.877,151.856a.269.269,0,0,1-.269-.261c0-.1-.261-10.2-4.057-10.7a1.886,1.886,0,0,0-1.555.486c-2.456,2.106-2.653,9.819-2.655,9.9a.266.266,0,0,1-.532-.012c.006-.327.207-8.03,2.842-10.289a2.448,2.448,0,0,1,1.97-.61c4.247.56,4.512,10.78,4.522,11.214A.268.268,0,0,1,448.877,151.856Z" transform="translate(-433.24 -140.347)" fill="#080070"/>
    </g>
    <g id="Group_3767" data-name="Group 3767" transform="translate(464.563 158.448)">
      <path id="Path_4762" data-name="Path 4762" d="M454.963,182.838l2.482-.925,1.9,3.276Z" transform="translate(-454.93 -148.202)" fill="#fde37a"/>
    </g>
    <path id="Path_4764" data-name="Path 4764" d="M359.959,104.632l84.582-49.949a2.242,2.242,0,0,1,3.058.838l30.93,52.376a2.241,2.241,0,0,1-.742,3.081L393.2,160.928a2.243,2.243,0,0,1-3.058-.838l-30.93-52.376A2.241,2.241,0,0,1,359.959,104.632Z" transform="translate(3.419 1.999)" fill="#b1c1d8"/>
    <path id="Path_4765" data-name="Path 4765" d="M360.142,110.69l89.44-52.818L456.4,69.426l-89.438,52.817Z" transform="translate(3.5 2.224)"/>
    <g id="Group_3768" data-name="Group 3768" transform="translate(375.259 78.385)">
      <path id="Path_4766" data-name="Path 4766" d="M371.053,126.9,458.862,75.05l5.562,9.417-87.809,51.856Z" transform="translate(-371.053 -75.05)" fill="#fffeed"/>
      <path id="Path_4767" data-name="Path 4767" d="M371.989,127.7,459.8,75.842l.691,1.17-87.81,51.855Z" transform="translate(-370.992 -74.999)" fill="#dee5da"/>
      <path id="Path_4768" data-name="Path 4768" d="M373.373,129.744l87.809-51.856.691,1.17-87.81,51.855Z" transform="translate(-370.903 -74.866)" fill="#dee5da"/>
      <path id="Path_4769" data-name="Path 4769" d="M374.532,131.806,462.341,79.95l.691,1.17-87.809,51.855Z" transform="translate(-370.828 -74.733)" fill="#dee5da"/>
      <path id="Path_4770" data-name="Path 4770" d="M375.527,133.789l87.81-51.855.69,1.17-87.809,51.855Z" transform="translate(-370.764 -74.605)" fill="#dee5da"/>
    </g>
    <path id="Path_4771" data-name="Path 4771" d="M466.016,103.387l-.2,17.661-14.012.308s-6.465-.658-9.911.113-22.995,7.1-24.044,4.592,16.655-8.2,16.655-8.2-23.8,3.172-23.65-.32,20.742-4.9,20.742-4.9-25.457-.3-24.948-3.841,23.746-2.092,23.746-2.092-20.428-6.666-19.421-9.305,20.611,4.039,20.611,4.039l10.033-.3s-7.948-7.138-8.471-9.027a11.257,11.257,0,0,1,.05-4.485l9.6,7.008s6.1,2.385,8.028,4.28a30.977,30.977,0,0,0,5.751,4.057Z" transform="translate(6.507 4.148)" fill="#feb49c"/>
    <path id="Path_4772" data-name="Path 4772" d="M355.028,89.57l-.966,2.194-.219,3.423A7.886,7.886,0,0,0,357.31,96.2a6.468,6.468,0,0,0,3.241-1.011l-.98-3.144Z" transform="translate(3.093 4.274)" fill="#feb49c"/>
    <path id="Path_4773" data-name="Path 4773" d="M355.356,87.09s-2.013-2.036-2.664-.407,5.4,7.638,7.745,6.661,3.126-5.993,3.061-8.143-.066-4.543-2.67-5.147C355.486,78.816,355.356,87.09,355.356,87.09Z" transform="translate(3.015 3.651)" fill="#feb49c"/>
    <path id="Path_4774" data-name="Path 4774" d="M366.8,115.328l6.842-2.987s1.627-2.072,3.491-4.308,3.275-3.728,3.621-3.3-2.236,5.006-2.236,5.006,8.028-4.807,8.734-4.579c.861.768-5.911,5.484-5.911,5.484s8.86-3.625,9.159-3.141c.6.976-7.935,5.059-7.935,5.059s7.629-2.051,7.616-1.546c.252,1.1-7.669,3.57-7.669,3.57s5.361-.606,5.326.479c-.332.518-6.656,1.6-6.656,1.6l-7.078,2.853-6.556,3.165Z" transform="translate(3.931 5.25)" fill="#feb49c"/>
    <path id="Path_4775" data-name="Path 4775" d="M351.073,132.492s1.522,3.748,2.819,7.422,6.352,14.578,6.3,18.184-6.878,14.024-8.7,17.025a11.2,11.2,0,0,1-1.8,2.322c-.727.807-.135,1.122-.851,1.743-1.048.91-1.718.3-2.542,1.306s1.152,1.32.58,2.17-1.5.384-2.048,1.315.428,2.643.428,2.643l8.414,3.642s11.28-18.185,13.471-21.424,3.155-4.457,4.13-7.931.2-29.966.2-29.966Z" transform="translate(2.499 6.95)" fill="#00347f"/>
    <path id="Path_4776" data-name="Path 4776" d="M351.851,95.221s-6.068,3.307-8.247,6.614-.983,10.7.621,15.566c1.269,3.851,2.485,9.315,3.61,13.813a75.207,75.207,0,0,0,4.065,10.773,21.56,21.56,0,0,0,4.233-.161l18.126-7,2.068-2.06s-4.286-7.553-5.172-8.738c-.237-.316,2.4-.649,1.1-2.855-.636-1.069-1.6-5.711-2.319-6.2s-4.145.59-4.145.59-5.826-10.37-6.013-10.736c-.619-1.206.64-2.36.64-2.36l7.543-4.408,2.31-1.509L360.622,93.2l.581,1.258a4.49,4.49,0,0,1-3.462,1.194,7.832,7.832,0,0,1-3.152-1.073c.331-1.3-.03-1.517-.03-1.517Z" transform="translate(2.354 4.501)" fill="#f5f5f5"/>
    <path id="Path_4777" data-name="Path 4777" d="M354.663,139.819s2.613,3.089,4.988,6.176,10.571,11.879,11.64,15.323-2.174,15.468-2.969,18.886a11.153,11.153,0,0,1-.988,2.767c-.441.992.221,1.107-.266,1.922-.712,1.189-1.539.814-2.008,2.03s1.5.9,1.225,1.882-1.307.833-1.536,1.887,1.228,2.38,1.228,2.38l9.13.843s5.064-20.792,6.138-24.551,1.611-5.217,1.458-8.823S373.571,132,373.571,132Z" transform="translate(3.146 7.018)" fill="#00347f"/>
    <path id="Path_4778" data-name="Path 4778" d="M354.264,92.785l.956-1.791s-3.1-3.47-2.079-4.317,2.44.689,2.44.689.317-6.822,4.507-7.032a3.291,3.291,0,0,1,3.4,2.935s2.367-5.5-.1-7.325-2.126,1.016-3.215.885-.046-2.936-3.124-2.216c-2.923.684-2.16,3.628-3.411,4.409s-1.8.219-2.5.789c-1.476,1.2-2.257,1.7-2.234,5.625S354.264,92.785,354.264,92.785Z" transform="translate(2.774 3.3)" fill="#1f298c"/>
    <path id="Path_4779" data-name="Path 4779" d="M365.94,189.226l-1.465,7.385s.264,1.249,4.208,1.052,4.472.066,6.377.526a21.784,21.784,0,0,0,5.522.066l-.722-1.71s-3.719-1.293-5.033-2.571a21.255,21.255,0,0,1-2.592-4.073Z" transform="translate(3.78 10.72)" fill="#171f69"/>
    <path id="Path_4780" data-name="Path 4780" d="M346.107,183.229l-3.238,6.4s-.156,1.267,3.638,2.361,4.208,1.514,5.861,2.568,4.083,2.031,5.2,1.855.148-1.2-.723-2.563-3.077-2.37-3.48-3.83a32,32,0,0,1-.675-3.693Z" transform="translate(2.383 10.332)" fill="#171f69"/>
    <path id="Path_4781" data-name="Path 4781" d="M461.342,101.479l.89,18.821,15.437-.016-1.153-20.028Z" transform="translate(10.045 4.966)" fill="#00347f"/>
    <path id="Path_4782" data-name="Path 4782" d="M356.132,133.118a9.581,9.581,0,0,1-4.9-1.263.266.266,0,1,1,.3-.441,9.264,9.264,0,0,0,4.66,1.17l12.54-7.907a.27.27,0,0,1,.079-.033,12.12,12.12,0,0,0,2.824-1.071,1.338,1.338,0,0,0,.691-1.374l-4.244-7.7a9.685,9.685,0,0,0-3.047.944c-.581.459,0,1.41,0,1.419a.267.267,0,0,1-.1.374l-4.619,2.566c-.179.559-.938,2.743-1.968,3.138a.477.477,0,0,1-.536-.063c-.285-.273-.121-.819.219-1.842a6.372,6.372,0,0,0,.36-1.371,4.464,4.464,0,0,0-.687.57c-.52.487-.968.9-1.382.773a.645.645,0,0,1-.4-.55c-.242-1.246,1.331-2.327,1.9-2.676-.571-1.619-4.319-12.206-5.764-15.059a3.605,3.605,0,0,0-4.509-1.793.266.266,0,0,1-.185-.5,4.186,4.186,0,0,1,5.17,2.052c1.573,3.107,5.69,14.833,5.864,15.331a.268.268,0,0,1-.125.323c-.57.308-2.008,1.305-1.83,2.219a.335.335,0,0,0,.054.154c.132,0,.593-.431.841-.663.528-.494,1.025-.959,1.409-.625.329.289.143.91-.214,1.983a7.666,7.666,0,0,0-.336,1.211c.68-.371,1.352-1.927,1.639-2.87a.268.268,0,0,1,.126-.155l4.482-2.49a1.5,1.5,0,0,1,.25-1.873,11.043,11.043,0,0,1,3.476-1.083.263.263,0,0,1,.275.134l4.353,7.9a.267.267,0,0,1,.026.063,1.868,1.868,0,0,1-.92,1.987,12.244,12.244,0,0,1-2.936,1.125l-12.566,7.924a.257.257,0,0,1-.134.04C356.266,133.117,356.214,133.118,356.132,133.118Z" transform="translate(2.663 4.961)" fill="#130514"/>
    <path id="Path_4783" data-name="Path 4783" d="M368.6,179.671a.276.276,0,0,1-.263-.314l2.734-14.829a.264.264,0,0,1,.183-.205l2.031-.631-1-.345a.266.266,0,0,1,.018-.509l1.575-.43-1.971-.655a.266.266,0,0,1-.142-.113c-3.1-5.014-9.473-14.718-11.387-15.563-3.888-1.716-5.033-6.731-5.08-6.944a.266.266,0,0,1,.52-.115c.011.05,1.136,4.966,4.775,6.572,2.469,1.09,10.767,14.39,11.573,15.688l2.713.9a.266.266,0,0,1-.014.509l-1.594.436.95.329a.266.266,0,0,1-.009.506l-2.651.823-2.7,14.67A.267.267,0,0,1,368.6,179.671Z" transform="translate(3.186 7.459)" fill="#130514"/>
    <g id="Group_3769" data-name="Group 3769" transform="translate(435.612 146.751)">
      <path id="Path_4784" data-name="Path 4784" d="M485.177,197.211a6,6,0,0,0-4.708-4.293l-27.82-4.465a.525.525,0,1,0-.166,1.037l27.82,4.465a4.96,4.96,0,0,1,3.871,3.565l2.057,6.691H440.045a.525.525,0,0,0,0,1.051h4.408a4.423,4.423,0,0,0-1.4,3.248,3.976,3.976,0,1,0,7.925,0,4.424,4.424,0,0,0-1.4-3.248H469.51a4.423,4.423,0,0,0-1.4,3.248,3.976,3.976,0,1,0,7.925,0,4.424,4.424,0,0,0-1.4-3.248h12.3a.524.524,0,0,0,.5-.679Zm-35.246,11.3a2.93,2.93,0,1,1-2.912-3.248A3.1,3.1,0,0,1,449.931,208.511Zm25.058,0a2.93,2.93,0,1,1-2.914-3.248A3.1,3.1,0,0,1,474.99,208.511Z" transform="translate(-426.978 -136.082)" fill="#00347f"/>
      <path id="Path_4785" data-name="Path 4785" d="M500.5,139.263a2.327,2.327,0,0,0-2.225,1.926h-1.019a4.447,4.447,0,0,0-4.269,3.886l-1.125,6.894H431.112a3.22,3.22,0,0,0-2.467,1.162,3.824,3.824,0,0,0-.859,3.079l3.062,20.1a.518.518,0,0,0-.136.263.524.524,0,0,0,.258.533l.826,5.429a3.568,3.568,0,0,0,2.867,3.065l47.637,7.837a3.519,3.519,0,0,0,.587.049,3.672,3.672,0,0,0,2.145-.7,4.211,4.211,0,0,0,1.681-2.78l7.308-44.764a3.4,3.4,0,0,1,3.233-3h1.019a2.327,2.327,0,0,0,2.225,1.926,2.458,2.458,0,0,0,0-4.9Zm-12.247,34.8-4.4-.428,1.293-9,4.6.264Zm-1.745,10.7-4.16-.65,1.354-9.433,4.381.426Zm-55.627-15.222,4,.389.559,6.853-3.538-.553Zm27.979,1.666-7.581-.738v-7.776l7.715.443Zm1.184-8.011,7.385.424-.517,8.37-7-.681Zm-9.815,7.171-6.83-.664-.364-7.483,7.194.413Zm0,1.056v7.671l-6.423-1-.356-7.327Zm1.051.1,7.563.737-.136,8.158-7.427-1.161Zm8.612.838,6.954.677-.531,8.567-6.56-1.024Zm8,.778,7.376.718-.983,8.994-6.928-1.083Zm.065-1.049.521-8.411,7.854.45-.95,8.683Zm.586-9.46.6-9.614h8.409l-1.1,10.068Zm-1.049-.06-7.431-.427.151-9.127h7.871Zm-8.481-.488-7.733-.443v-8.624h7.884Zm-8.784-.5-7.245-.416-.4-8.147h7.64Zm-8.3-.476-6.75-.388-.628-7.7h6.985Zm.051,1.054.361,7.441-6.489-.631-.587-7.2Zm-7.19,6.706-4.073-.4-1.069-7.018,4.559.262Zm1.149,1.167,6.454.628.352,7.264-6.242-.976ZM442.8,179l.336,6.936-5.978-.984-.565-6.923Zm1.058.165,6.371,1V187.1l-6.034-.992Zm7.422,1.159,7.41,1.158-.117,6.994-7.293-1.2Zm8.458,1.322,6.513,1.018-.433,7-6.2-1.02Zm7.555,1.18,6.878,1.075-.767,7.015-6.546-1.077Zm7.917,1.237,5.952.931-1.009,7.033-5.71-.94Zm.114-1.046.99-9.054,6.343.616-1.346,9.373Zm7.483-9.478-6.378-.621.954-8.724,6.711.384Zm-5.311-10.39,1.107-10.128h7.149l-1.51,10.516Zm-48.052-9.332a2.192,2.192,0,0,1,1.672-.8H433.5l.623,7.639-4.635-.266-.661-4.34A2.787,2.787,0,0,1,429.44,153.815Zm3.393,28.566-.771-5.061,3.46.541.564,6.913-1.254-.205A2.524,2.524,0,0,1,432.833,182.381Zm51.585,9.554a2.6,2.6,0,0,1-1.948.47l-1.284-.211,1.011-7.042,4.139.647-.66,4.038A3.217,3.217,0,0,1,484.418,191.936Zm5.5-28.075-4.625-.266,1.518-10.575h4.876ZM500.5,143.116a1.414,1.414,0,1,1,1.231-1.4A1.326,1.326,0,0,1,500.5,143.116Z" transform="translate(-427.74 -139.263)" fill="#00347f"/>
    </g>
    <g id="Group_3770" data-name="Group 3770" transform="translate(456.021 54.98)">
      <path id="Path_4786" data-name="Path 4786" d="M450.246,53.316h44.978a3.445,3.445,0,0,1,0,6.853H450.246a3.445,3.445,0,0,1,0-6.853Z" transform="translate(-446.893 -53.05)" fill="#fff"/>
      <path id="Path_4787" data-name="Path 4787" d="M495.24,60.452H450.262a3.71,3.71,0,0,1,0-7.386H495.24a3.71,3.71,0,0,1,0,7.386ZM450.262,53.6a3.181,3.181,0,0,0,0,6.321H495.24a3.181,3.181,0,0,0,0-6.321Z" transform="translate(-446.909 -53.066)" fill="#00347f"/>
    </g>
    <path id="Path_4795" data-name="Path 4795" d="M486.379,206.675s.555.007.878.007c5.107-.006,30.892-.513,32.231-9.709a3.438,3.438,0,0,0,.011-.921,2.2,2.2,0,0,0-.1-.463c-1.262-3.8-10.648-2.059-11.237-1.943.481-.191,6.6-2.562,11.4-3.878,3.671-1.008,8.935-1.579,12.249-3.681a5.969,5.969,0,0,0,.538-.365,6.17,6.17,0,0,0,2.144-2.632c1.942-4.736-9.275-4.97-9.275-4.97s8.993-1.752,15.248-5.244a4.955,4.955,0,0,0,.464-.258c3.753-2.193,6.36-5.032,5.1-8.521a3.884,3.884,0,0,0-.175-.44c-.039-.083-.074-.158-.116-.24-3.491-7.01-23.436,8.279-23.949,8.67.115-.308,2.991-7.665.046-8.971a2.248,2.248,0,0,0-1.327-.139,2.368,2.368,0,0,0-.522.126c-2.868.94-6.418,5.786-8.461,10.109-1.686,3.592-4.656,8.819-4.871,9.192.132-.407,1.8-5.645-.431-6.152a1.937,1.937,0,0,0-.224-.033,1.117,1.117,0,0,0-.282.017c-2.694.385-6.779,8.316-10.278,14.406C491.822,196.943,486.379,206.675,486.379,206.675Z" transform="translate(11.664 8.932)" fill="#e4e9f1"/>
    <path id="Path_4796" data-name="Path 4796" d="M486.534,206.59c.15,0,.39.007.713.007,1.582-1.346,4.133-3.538,7.189-6.211l25.053-4.418a2,2,0,0,0-.1-.463l-24.278,4.284c4.555-4,10.111-8.968,15.254-13.816a.2.2,0,0,0,.141.059l21.3-.028a5.969,5.969,0,0,0,.538-.365.189.189,0,0,0-.182-.1l-21.366.028c.456-.431.9-.863,1.35-1.286l22.176-1.347a.233.233,0,0,0,.215-.249.265.265,0,0,0-.249-.216l-21.62,1.305c.133-.125.274-.249.406-.382,5.506-5.313,13.56-10.1,20.577-13.673l6.811,3.075a4.955,4.955,0,0,0,.464-.258.412.412,0,0,0-.109-.1l-6.628-2.993c4.946-2.5,9.321-4.4,11.832-5.429a4.7,4.7,0,0,0-.175-.44c-2.585,1.065-7.143,3.035-12.28,5.653l-.049.026c-7.067,3.607-15.2,8.426-20.776,13.8-.621.607-1.259,1.213-1.9,1.827l9.648-21.85a.189.189,0,0,0,.016-.133,2.368,2.368,0,0,0-.522.126l-9.937,22.5a.177.177,0,0,0,0,.115c-5.118,4.824-10.657,9.773-15.2,13.766L506.2,176.236a.181.181,0,0,0,.016-.066,1.729,1.729,0,0,0-.224-.033,1.117,1.117,0,0,0-.282.017l-11.725,23.926c-.017.024-.009.049-.009.075C490.709,203.019,488.033,205.312,486.534,206.59Z" transform="translate(11.674 9.017)" fill="#fff"/>
    <path id="Path_4797" data-name="Path 4797" d="M359.514,93.039a5.65,5.65,0,0,1-4.2-2.335.266.266,0,1,1,.435-.306,5.275,5.275,0,0,0,3.775,2.108.266.266,0,0,1-.007.532Z" transform="translate(3.185 4.321)" fill="#130514"/>
    <path id="Path_4798" data-name="Path 4798" d="M390.552,80.614H389.8v-.377s0-.555.046-1.541l.018-.377.754.035-.018.377c-.045.962-.045,1.505-.045,1.505Zm.218-4.512-.752-.068.226-2.264.75.082Zm.508-4.488-.746-.109.345-2.245.745.121Zm.746-4.452-.74-.148.466-2.224.737.162Zm.985-4.4-.73-.188.591-2.194.726.2Zm1.236-4.336-.718-.232.722-2.154.713.247Zm1.5-4.247-.7-.28.867-2.1.694.3Zm1.792-4.129-.678-.33.165-.34q.331-.68.684-1.357l.175-.335.669.349-.174.334C398.148,48.812,397.54,50.046,397.54,50.046Zm2.1-3.974-.649-.385.194-.325q.386-.652.8-1.3l.2-.318.637.4-.2.318q-.4.634-.784,1.278ZM402.08,42.3l-.61-.443.221-.306q.446-.615.914-1.217l.232-.3.6.463-.231.3q-.46.591-.9,1.2Zm2.784-3.517-.562-.5.251-.281q.506-.565,1.035-1.116l.262-.271.544.523-.262.273q-.519.54-1.017,1.1Zm3.135-3.2-.5-.563.281-.251q.565-.5,1.153-.993l.291-.241.481.581-.291.241q-.578.479-1.131.974Zm3.474-2.822-.435-.616.309-.217q.62-.438,1.262-.853l.316-.2.41.633-.316.2q-.631.407-1.237.836Zm53.407-2.106-.334-.174c-.394-.2-.842-.429-1.341-.669l-.34-.163.326-.68.341.164c.507.243.961.471,1.362.678l.334.174Zm-49.628-.29L414.9,29.7l.591-.317c.364-.193,1.428-.729,1.428-.729l.338.675s-1.052.531-1.41.721Zm45.562-1.629s-1.257-.513-1.743-.7l-.352-.135.27-.7.352.134c.492.188,1.76.707,1.76.707Zm-41.53-.355-.3-.692.347-.15q.7-.3,1.405-.579l.35-.137.277.7-.35.138q-.693.273-1.385.571ZM456.6,27.15l-2.152-.672.216-.723s1.34.407,1.812.561l.359.117Zm-33.128-.386-.234-.718.359-.117q.728-.238,1.452-.45l.362-.105.212.724-.362.105q-.712.209-1.43.444Zm28.811-.872-2.2-.5.159-.737,2.217.507Zm-24.493-.359-.166-.736.367-.083c.5-.113.993-.218,1.488-.314l.371-.072.145.74-.372.072q-.73.142-1.465.31Zm20.087-.56s-1.354-.21-1.856-.277l-.374-.049.1-.748s1.382.191,1.876.27l.374.06Zm-15.672-.265-.1-.747.375-.049c.5-.067,1.009-.126,1.511-.176l.375-.038.075.752-.375.037q-.739.073-1.488.172Zm11.212-.295-.376-.028q-.739-.057-1.5-.093l-.377-.018.036-.754.376.018q.768.035,1.518.094l.376.029Zm-6.742-.124-.03-.754.376-.015c.511-.02,1.017-.033,1.52-.039l.377,0,.009.755-.377,0c-.5.006-1,.018-1.5.038Z" transform="translate(5.418)" fill="#00347f"/>
  </g>
</svg>
