<svg xmlns="http://www.w3.org/2000/svg" width="267.193" height="265.853" viewBox="0 0 267.193 265.853">
  <g id="Group_1851" data-name="Group 1851" transform="translate(-53.903 -199.639)">
    <g id="freepik--background-simple--inject-2" transform="translate(-525)">
      <path id="Path_1655" data-name="Path 1655" d="M845.377,285.9c-1.639-17.386-5.694-33.3-14.229-46.483s-25.066-20.131-40.307-23.965-27.989-.215-39.036,10.951c-11.578,11.7-15.095,29.7-18.347,45.837s-9.49,37.056-22.624,47.008c-14.938,11.337-38.4,5.206-56.941,2.378s-39.067-5.561-54.7,4.8c-12.818,8.5-19.3,24.674-18.518,40.036s5.517,29.564,13.254,42.863c10.648,18.347,42.054,40.6,63.2,33.835l91.181-5.137c17.189-7.89,13.286,4.283,41.338-12.053,16.348-9.49,41.56-43.945,48.969-67.632C845.117,337.554,847.414,307.572,845.377,285.9Z" fill="#cce1e0" opacity="0.3"/>
    </g>
    <g id="freepik--Stars--inject-2" transform="translate(-525)">
      <path id="Path_1656" data-name="Path 1656" d="M805.348,199.639l.715,1.31,1.3.715-1.3.715-.715,1.3-.715-1.3-1.3-.715,1.3-.715Z" fill="#cf3567"/>
      <path id="Path_1657" data-name="Path 1657" d="M820.285,232.012l.715,1.31,1.3.715-1.3.715-.715,1.3-.715-1.3-1.31-.715,1.31-.715Z" fill="#fd615b"/>
      <path id="Path_1658" data-name="Path 1658" d="M580.921,318.384l.715,1.31,1.31.715-1.31.709-.715,1.31-.715-1.31-1.3-.709,1.3-.715Z" fill="#cf3567"/>
      <path id="Path_1659" data-name="Path 1659" d="M785.754,207.686l1.651,3.018,3.018,1.651L787.405,214l-1.651,3.018L784.109,214l-3.018-1.645,3.018-1.651Z" fill="#ff8b66"/>
      <path id="Path_1660" data-name="Path 1660" d="M594.309,297.867l1.645,3.005,3.011,1.645-3.011,1.651-1.645,3.005-1.645-3.005-3.012-1.651,3.012-1.645Z" fill="#ff8b66"/>
      <path id="Path_1661" data-name="Path 1661" d="M824.347,369.649l1.645,3.012L829,374.306l-3.005,1.645-1.645,3.012-1.645-3.012-3.011-1.645,3.011-1.645Z" fill="#cf3567"/>
    </g>
    <g id="Group_1774" data-name="Group 1774" transform="translate(-525)">
      <g id="Group_1736" data-name="Group 1736">
        <g id="Group_1733" data-name="Group 1733">
          <g id="Group_1711" data-name="Group 1711">
            <g id="Group_1710" data-name="Group 1710">
              <g id="Group_1709" data-name="Group 1709">
                <path id="Path_1673" data-name="Path 1673" d="M679.416,288.7V456a9.493,9.493,0,0,0,9.495,9.494h83.311A9.49,9.49,0,0,0,781.716,456V288.7a9.493,9.493,0,0,0-9.494-9.5H688.911a9.49,9.49,0,0,0-9.495,9.5Z" fill="#161c25"/>
              </g>
            </g>
          </g>
          <g id="Group_1714" data-name="Group 1714">
            <g id="Group_1713" data-name="Group 1713">
              <g id="Group_1712" data-name="Group 1712">
                <path id="Path_1674" data-name="Path 1674" d="M682.953,288.7V456a9.493,9.493,0,0,0,9.494,9.494h83.312A9.49,9.49,0,0,0,785.253,456V288.7a9.493,9.493,0,0,0-9.494-9.5H692.447a9.49,9.49,0,0,0-9.494,9.5Z" fill="#2b3849"/>
              </g>
            </g>
          </g>
          <path id="Path_1675" data-name="Path 1675" d="M742.1,451.562a7.576,7.576,0,1,1-7.576-7.576A7.576,7.576,0,0,1,742.1,451.562Z" fill="#55606d"/>
          <g id="Group_1717" data-name="Group 1717">
            <g id="Group_1716" data-name="Group 1716">
              <g id="Group_1715" data-name="Group 1715">
                <path id="Path_1676" data-name="Path 1676" d="M681.153,320.351h-3.146a.386.386,0,0,1-.387-.386V305.629a.387.387,0,0,1,.387-.387h3.146Z" fill="#161c25"/>
              </g>
            </g>
          </g>
          <g id="Group_1719" data-name="Group 1719">
            <g id="Group_1718" data-name="Group 1718">
              <path id="Path_1677" data-name="Path 1677" d="M785.253,334.39h2.465a.3.3,0,0,0,.3-.3v-14.5a.3.3,0,0,0-.3-.3h-2.465Z" fill="#161c25"/>
            </g>
          </g>
          <g id="Group_1722" data-name="Group 1722">
            <g id="Group_1721" data-name="Group 1721">
              <g id="Group_1720" data-name="Group 1720">
                <path id="Path_1678" data-name="Path 1678" d="M785.253,354.212h2.465a.3.3,0,0,0,.3-.3V339.4a.3.3,0,0,0-.3-.3h-2.465Z" fill="#161c25"/>
              </g>
            </g>
          </g>
          <g id="Group_1725" data-name="Group 1725">
            <g id="Group_1724" data-name="Group 1724">
              <g id="Group_1723" data-name="Group 1723">
                <path id="Path_1679" data-name="Path 1679" d="M780.514,287.612v147.82a3.318,3.318,0,0,1-.332,1.438,4.232,4.232,0,0,1-3.847,2.228h-84.46a3.947,3.947,0,0,1-4.184-3.666V287.612a3.151,3.151,0,0,1,.058-.606,3.813,3.813,0,0,1,2.483-2.771,4.778,4.778,0,0,1,1.643-.294h84.46A3.95,3.95,0,0,1,780.514,287.612Z" fill="#dbe6e7"/>
              </g>
            </g>
          </g>
          <g id="Group_1727" data-name="Group 1727">
            <g id="Group_1726" data-name="Group 1726">
              <path id="Path_1680" data-name="Path 1680" d="M687.691,288.124v16.268h92.825V288.124a4.184,4.184,0,0,0-4.183-4.183H691.874a4.228,4.228,0,0,0-.8.076,4.148,4.148,0,0,0-.842.257,4.208,4.208,0,0,0-2.482,3.163A4.1,4.1,0,0,0,687.691,288.124Z" fill="#f5f8ff"/>
            </g>
          </g>
          <g id="Group_1728" data-name="Group 1728">
            <rect id="Rectangle_282" data-name="Rectangle 282" width="65.691" height="2.151" rx="0.994" transform="translate(773.912 301.068) rotate(180)" fill="#dbe6e7"/>
          </g>
          <g id="Group_1732" data-name="Group 1732">
            <g id="Group_1729" data-name="Group 1729">
              <path id="Path_1681" data-name="Path 1681" d="M694.164,299.82a1.451,1.451,0,1,1-1.25-1.251A1.451,1.451,0,0,1,694.164,299.82Z" fill="#fd9c45"/>
            </g>
            <g id="Group_1730" data-name="Group 1730">
              <path id="Path_1682" data-name="Path 1682" d="M699.345,299.82a1.451,1.451,0,1,1-1.25-1.251A1.451,1.451,0,0,1,699.345,299.82Z" fill="#028076"/>
            </g>
            <g id="Group_1731" data-name="Group 1731">
              <path id="Path_1683" data-name="Path 1683" d="M704.526,299.82a1.451,1.451,0,1,1-1.25-1.251A1.451,1.451,0,0,1,704.526,299.82Z" fill="#fa662e"/>
            </g>
          </g>
        </g>
        <g id="Group_1734" data-name="Group 1734">
          <rect id="Rectangle_283" data-name="Rectangle 283" width="95.409" height="13.001" transform="translate(686.353 283.277)" fill="#023128"/>
        </g>
        <g id="Group_1735" data-name="Group 1735">
          <path id="Path_1684" data-name="Path 1684" d="M775.317,289.958H742.591a1.212,1.212,0,0,1-1.209-1.209h0a1.212,1.212,0,0,1,1.209-1.209h32.726a1.212,1.212,0,0,1,1.209,1.209h0A1.212,1.212,0,0,1,775.317,289.958Z" fill="#2f5550"/>
        </g>
      </g>
      <g id="Group_1742" data-name="Group 1742">
        <g id="Group_1739" data-name="Group 1739" opacity="0.2">
          <g id="Group_1738" data-name="Group 1738">
            <g id="Group_1737" data-name="Group 1737">
              <path id="Path_1685" data-name="Path 1685" d="M753.959,387.508a15.912,15.912,0,1,1,15.91-15.91A15.9,15.9,0,0,1,753.959,387.508Zm-2.586-49.01a37.87,37.87,0,0,0-35.113,36.683,37.333,37.333,0,0,0,5.156,19.967c1.662,2.83,3.392,5.625,4.991,8.494L746.06,439.1h15.177l10.269-18.505c2.893-5.215,5.939-10.347,9.008-15.465V349.359A37.575,37.575,0,0,0,751.373,338.5Z" fill="#2b3849"/>
            </g>
          </g>
        </g>
        <g id="Group_1741" data-name="Group 1741">
          <g id="Group_1740" data-name="Group 1740">
            <path id="Path_1686" data-name="Path 1686" d="M745.376,371.6a15.913,15.913,0,1,1,15.913,15.913A15.906,15.906,0,0,1,745.376,371.6Zm-21.784,3.585a37.313,37.313,0,0,0,5.156,19.966c1.663,2.833,3.391,5.624,4.988,8.495l27.241,49.142,17.861-32.19c4.742-8.546,9.886-16.86,14.874-25.266A37.691,37.691,0,0,0,758.7,338.5,37.873,37.873,0,0,0,723.592,375.181Z" fill="#006766"/>
          </g>
        </g>
      </g>
      <g id="Group_1773" data-name="Group 1773">
        <g id="Group_1747" data-name="Group 1747">
          <g id="Group_1744" data-name="Group 1744">
            <g id="Group_1743" data-name="Group 1743">
              <path id="Path_1687" data-name="Path 1687" d="M786.053,304.015l.032.034-.006,6.507a9.78,9.78,0,0,0,19.5,1.093,9.4,9.4,0,0,0,.062-1.093v-6.378L781.762,280.3a3.739,3.739,0,0,0-2.644-1.1h-17.47Z" fill="#cf3567"/>
            </g>
          </g>
          <g id="Group_1746" data-name="Group 1746">
            <g id="Group_1745" data-name="Group 1745">
              <path id="Path_1688" data-name="Path 1688" d="M786.085,304.049l-.006,6.507a9.78,9.78,0,0,0,19.5,1.093l.062-7.471-19.586-.163Z" fill="#9b284d"/>
            </g>
          </g>
        </g>
        <g id="Group_1752" data-name="Group 1752">
          <g id="Group_1749" data-name="Group 1749">
            <g id="Group_1748" data-name="Group 1748">
              <path id="Path_1689" data-name="Path 1689" d="M722.527,279.2l24.431,24.431v6.92a9.78,9.78,0,0,0,19.561,0l.006-6.7L742.094,279.2Z" fill="#cf3567"/>
            </g>
          </g>
          <g id="Group_1751" data-name="Group 1751">
            <g id="Group_1750" data-name="Group 1750">
              <path id="Path_1690" data-name="Path 1690" d="M746.958,303.694v6.862a9.78,9.78,0,0,0,19.561,0l.006-6.7Z" fill="#9b284d"/>
            </g>
          </g>
        </g>
        <g id="Group_1757" data-name="Group 1757">
          <g id="Group_1754" data-name="Group 1754">
            <g id="Group_1753" data-name="Group 1753">
              <path id="Path_1691" data-name="Path 1691" d="M707.255,303.366l-.006,7.19a9.782,9.782,0,0,0,9.78,9.78c5.4,0,10.375-4.379,10.375-9.78l-.042-6.92-.1-.1L702.973,279.2H682.818Z" fill="#cf3567"/>
            </g>
          </g>
          <g id="Group_1756" data-name="Group 1756">
            <g id="Group_1755" data-name="Group 1755">
              <path id="Path_1692" data-name="Path 1692" d="M707.249,310.556a9.782,9.782,0,0,0,9.78,9.78c5.4,0,10.375-4.379,10.375-9.78l-.042-6.92-.1-.1-20-.165Z" fill="#9b284d"/>
            </g>
          </g>
        </g>
        <g id="Group_1760" data-name="Group 1760">
          <g id="Group_1759" data-name="Group 1759">
            <g id="Group_1758" data-name="Group 1758">
              <path id="Path_1693" data-name="Path 1693" d="M687.7,303.2h0v7.351a9.78,9.78,0,1,0,19.56,0v-7.19L682.9,279.291a4.588,4.588,0,0,0-.946.289,4.724,4.724,0,0,0-2.789,3.553,4.555,4.555,0,0,0-.064.771v10.861Z" fill="#fff"/>
            </g>
          </g>
        </g>
        <g id="Group_1762" data-name="Group 1762">
          <g id="Group_1761" data-name="Group 1761">
            <path id="Path_1694" data-name="Path 1694" d="M687.694,310.556a9.781,9.781,0,0,0,19.561,0v-7.19L687.7,303.2Z" fill="#acbec3"/>
          </g>
        </g>
        <g id="Group_1767" data-name="Group 1767">
          <g id="Group_1764" data-name="Group 1764">
            <g id="Group_1763" data-name="Group 1763">
              <path id="Path_1695" data-name="Path 1695" d="M742.094,279.2l24.431,24.649v6.7a9.78,9.78,0,1,0,19.56,0v-6.507l-.032-.034-24.4-24.81Z" fill="#fff"/>
            </g>
          </g>
          <g id="Group_1766" data-name="Group 1766">
            <g id="Group_1765" data-name="Group 1765">
              <path id="Path_1696" data-name="Path 1696" d="M766.525,303.854v6.7a9.78,9.78,0,1,0,19.56,0v-6.507l-.032-.034Z" fill="#acbec3"/>
            </g>
          </g>
        </g>
        <g id="Group_1772" data-name="Group 1772">
          <g id="Group_1769" data-name="Group 1769">
            <g id="Group_1768" data-name="Group 1768">
              <path id="Path_1697" data-name="Path 1697" d="M702.973,279.2,727.4,303.636v6.92a9.78,9.78,0,1,0,19.56,0v-6.92L722.527,279.2Z" fill="#fff"/>
            </g>
          </g>
          <g id="Group_1771" data-name="Group 1771">
            <g id="Group_1770" data-name="Group 1770">
              <path id="Path_1698" data-name="Path 1698" d="M727.3,303.531l.1.1v6.92a9.78,9.78,0,1,0,19.56,0v-6.862Z" fill="#acbec3"/>
            </g>
          </g>
        </g>
      </g>
    </g>
    <g id="Group_1836" data-name="Group 1836" transform="translate(-525)">
      <g id="Group_1835" data-name="Group 1835">
        <g id="Group_1786" data-name="Group 1786">
          <g id="Group_1779" data-name="Group 1779">
            <g id="Group_1778" data-name="Group 1778">
              <g id="Group_1777" data-name="Group 1777">
                <g id="Group_1776" data-name="Group 1776">
                  <g id="Group_1775" data-name="Group 1775">
                    <path id="Path_1699" data-name="Path 1699" d="M638.662,413.489s-6.834-10.74-23.431-20.5c-11.72-6.895-18.549-26.36-18.549-26.36s22.455.977,32.217,14.644S638.662,413.489,638.662,413.489Z" fill="#006766"/>
                  </g>
                </g>
              </g>
            </g>
          </g>
          <g id="Group_1785" data-name="Group 1785">
            <g id="Group_1784" data-name="Group 1784">
              <g id="Group_1783" data-name="Group 1783">
                <g id="Group_1782" data-name="Group 1782">
                  <g id="Group_1781" data-name="Group 1781">
                    <g id="Group_1780" data-name="Group 1780">
                      <path id="Path_1700" data-name="Path 1700" d="M638.736,413.776a.333.333,0,0,1-.323-.249A57.047,57.047,0,0,0,623.1,387.818a56.281,56.281,0,0,0-10.714-8.4.334.334,0,1,1,.324-.585,56.974,56.974,0,0,1,10.858,8.509,57.715,57.715,0,0,1,15.487,26.015.334.334,0,0,1-.237.409A.323.323,0,0,1,638.736,413.776Z" fill="#003433"/>
                    </g>
                  </g>
                </g>
              </g>
            </g>
          </g>
        </g>
        <g id="Group_1799" data-name="Group 1799">
          <g id="Group_1792" data-name="Group 1792">
            <g id="Group_1791" data-name="Group 1791">
              <g id="Group_1790" data-name="Group 1790">
                <g id="Group_1789" data-name="Group 1789">
                  <g id="Group_1788" data-name="Group 1788">
                    <g id="Group_1787" data-name="Group 1787">
                      <path id="Path_1701" data-name="Path 1701" d="M635.718,413.243s-1.953-3.9-10.739-2.929-13.668,5.858-29.288-2.928c0,0,11.715-9.763,24.406-7.81S633.765,406.41,635.718,413.243Z" fill="#006766"/>
                    </g>
                  </g>
                </g>
              </g>
            </g>
          </g>
          <g id="Group_1798" data-name="Group 1798">
            <g id="Group_1797" data-name="Group 1797">
              <g id="Group_1796" data-name="Group 1796">
                <g id="Group_1795" data-name="Group 1795">
                  <g id="Group_1794" data-name="Group 1794">
                    <g id="Group_1793" data-name="Group 1793">
                      <path id="Path_1702" data-name="Path 1702" d="M635.761,413.578a.335.335,0,0,1-.284-.157c-.039-.063-3.97-6.238-10.29-7.387-11.045-2.007-18.565,1.524-18.64,1.56a.335.335,0,0,1-.29-.6c.076-.036,7.779-3.664,19.05-1.614,6.615,1.2,10.572,7.425,10.737,7.689a.335.335,0,0,1-.106.461A.341.341,0,0,1,635.761,413.578Z" fill="#003433"/>
                    </g>
                  </g>
                </g>
              </g>
            </g>
          </g>
        </g>
        <g id="Group_1812" data-name="Group 1812">
          <g id="Group_1805" data-name="Group 1805">
            <g id="Group_1804" data-name="Group 1804">
              <g id="Group_1803" data-name="Group 1803">
                <g id="Group_1802" data-name="Group 1802">
                  <g id="Group_1801" data-name="Group 1801">
                    <g id="Group_1800" data-name="Group 1800">
                      <path id="Path_1703" data-name="Path 1703" d="M639.554,412.3s-.766-4.3,6.865-8.763,14.461-3.464,21.742-19.84c0,0-15.227-.834-24.24,8.311S637.039,405.652,639.554,412.3Z" fill="#006766"/>
                    </g>
                  </g>
                </g>
              </g>
            </g>
          </g>
          <g id="Group_1811" data-name="Group 1811">
            <g id="Group_1810" data-name="Group 1810">
              <g id="Group_1809" data-name="Group 1809">
                <g id="Group_1808" data-name="Group 1808">
                  <g id="Group_1807" data-name="Group 1807">
                    <g id="Group_1806" data-name="Group 1806">
                      <path id="Path_1704" data-name="Path 1704" d="M639.519,412.66a.334.334,0,0,1-.332-.307c-.026-.311-.568-7.665,4.019-12.581,7.817-8.374,16.161-10.065,16.244-10.081a.334.334,0,1,1,.127.656c-.081.016-8.222,1.675-15.882,9.881-4.388,4.7-3.848,12-3.842,12.07a.334.334,0,0,1-.306.36Z" fill="#003433"/>
                    </g>
                  </g>
                </g>
              </g>
            </g>
          </g>
        </g>
        <g id="Group_1828" data-name="Group 1828">
          <g id="Group_1827" data-name="Group 1827">
            <g id="Group_1814" data-name="Group 1814">
              <g id="Group_1813" data-name="Group 1813">
                <path id="Path_1705" data-name="Path 1705" d="M659.932,461.731a18.139,18.139,0,0,1-3.927,1.734h0c-4.6,1.463-10.788,1.949-18.088,1.949-10.955,0-19.41-1.094-23.747-4.949a9.2,9.2,0,0,1-2.969-5.116,13.1,13.1,0,0,1-.225-3.462c.006-.067.009-.135.014-.2.031-.435.081-.883.147-1.345.062-.425.139-.851.231-1.275a24.617,24.617,0,0,1,1.316-4.2c.055-.134.111-.267.168-.4.351-.819.739-1.629,1.158-2.422a43.924,43.924,0,0,1,3.087-4.98c.18-.251.36-.5.541-.746.529-.72,1.068-1.413,1.605-2.077.608-.753,1.213-1.467,1.8-2.134.552-.628,1.091-1.215,1.606-1.759.6-.639,1.173-1.217,1.688-1.725,1.593-1.573,2.666-2.48,2.666-2.48l.049-.284.3-1.726.349-1.985.8-4.536.279-1.587,9.126-.4,9.521.4.217,1.587.341,2.489.556,4.032.238,1.726.035.284s1.077.907,2.666,2.48c.519.508,1.085,1.086,1.691,1.725.578.611,1.188,1.278,1.814,1.995.524.6,1.059,1.234,1.595,1.9.72.889,1.444,1.834,2.147,2.823q.563.791,1.1,1.617c.705,1.081,1.376,2.206,1.981,3.363.488.923.933,1.866,1.325,2.823.328.8.619,1.608.864,2.425h0c.176.589.33,1.181.457,1.775.051.239.1.481.14.722h0c.031.185.062.367.087.552.079.533.132,1.05.161,1.548C665.127,456.528,663.344,459.659,659.932,461.731Z" fill="#cf3567"/>
              </g>
            </g>
            <g id="Group_1816" data-name="Group 1816">
              <g id="Group_1815" data-name="Group 1815">
                <path id="Path_1706" data-name="Path 1706" d="M658.734,437.06H617.093c.18-.251.36-.5.541-.746.529-.72,1.068-1.413,1.605-2.077h37.348C657.307,435.126,658.031,436.071,658.734,437.06Z" fill="#9b284d"/>
              </g>
            </g>
            <g id="Group_1818" data-name="Group 1818">
              <g id="Group_1817" data-name="Group 1817">
                <path id="Path_1707" data-name="Path 1707" d="M663.144,444.863H612.68c.055-.134.111-.267.168-.4.351-.819.739-1.629,1.158-2.422h47.813C662.307,442.963,662.752,443.906,663.144,444.863Z" fill="#9b284d"/>
              </g>
            </g>
            <g id="Group_1820" data-name="Group 1820">
              <g id="Group_1819" data-name="Group 1819">
                <path id="Path_1708" data-name="Path 1708" d="M664.853,451.887H610.972c.006-.067.009-.135.014-.2.031-.435.081-.883.147-1.345.062-.425.139-.851.231-1.275h53.1c.051.239.1.481.14.722h0c.031.185.062.367.087.552C664.771,450.872,664.824,451.389,664.853,451.887Z" fill="#9b284d"/>
              </g>
            </g>
            <g id="Group_1826" data-name="Group 1826">
              <g id="Group_1825" data-name="Group 1825">
                <g id="Group_1824" data-name="Group 1824">
                  <g id="Group_1823" data-name="Group 1823">
                    <g id="Group_1822" data-name="Group 1822">
                      <g id="Group_1821" data-name="Group 1821">
                        <path id="Rectangle_284" data-name="Rectangle 284" d="M.4,0H25.581a.4.4,0,0,1,.4.4V5.15a.4.4,0,0,1-.4.4H.4a.4.4,0,0,1-.4-.4V.4A.4.4,0,0,1,.4,0Z" transform="translate(624.85 412.053)" fill="#cf3567"/>
                      </g>
                    </g>
                  </g>
                </g>
              </g>
            </g>
          </g>
        </g>
        <g id="Group_1834" data-name="Group 1834">
          <g id="Group_1833" data-name="Group 1833">
            <g id="Group_1832" data-name="Group 1832">
              <g id="Group_1831" data-name="Group 1831">
                <g id="Group_1830" data-name="Group 1830">
                  <g id="Group_1829" data-name="Group 1829">
                    <path id="Path_1709" data-name="Path 1709" d="M648.022,420.1l-20.287,2.047.8-4.537H647.68Z" fill="#9b284d"/>
                  </g>
                </g>
              </g>
            </g>
          </g>
        </g>
      </g>
    </g>
    <g id="Group_1841" data-name="Group 1841" transform="translate(-525)">
      <rect id="Rectangle_285" data-name="Rectangle 285" width="87.002" height="27.82" rx="7.679" transform="translate(617.352 330.301)" fill="#fff"/>
      <g id="Group_1837" data-name="Group 1837">
        <rect id="Rectangle_286" data-name="Rectangle 286" width="49.366" height="2.444" rx="1.13" transform="translate(650.1 337.857)" fill="#99c2c2"/>
        <rect id="Rectangle_287" data-name="Rectangle 287" width="49.366" height="2.444" rx="1.13" transform="translate(650.1 343.234)" fill="#99c2c2"/>
        <rect id="Rectangle_288" data-name="Rectangle 288" width="49.366" height="2.444" rx="1.13" transform="translate(650.1 348.122)" fill="#99c2c2"/>
      </g>
      <g id="Group_1840" data-name="Group 1840">
        <g id="Group_1838" data-name="Group 1838">
          <path id="Path_1710" data-name="Path 1710" d="M632.6,354.252h0a10.04,10.04,0,0,1-10.041-10.041h0a10.04,10.04,0,0,1,10.041-10.04h0a10.041,10.041,0,0,1,10.041,10.04h0A10.041,10.041,0,0,1,632.6,354.252Z" fill="#006766"/>
        </g>
        <g id="Group_1839" data-name="Group 1839">
          <path id="Path_1711" data-name="Path 1711" d="M637.517,340.814c-.029-.12-.057-.24-.087-.359a2.686,2.686,0,0,0-.59-1.123,2.746,2.746,0,0,0-.706-.589.806.806,0,0,0-1.054.206q-.728.877-1.445,1.76a.836.836,0,0,0,.119,1.18c.26.231.535.445.8.666.035.028.075.049.105.069a7.746,7.746,0,0,1-3.3,4.022c-.189-.158-.387-.324-.586-.488-.1-.085-.2-.17-.308-.25a.827.827,0,0,0-1.005-.051,1.266,1.266,0,0,0-.268.264c-.438.528-.869,1.061-1.308,1.589a1.108,1.108,0,0,0-.257.566l.023.235a1.789,1.789,0,0,0,.233.392,3,3,0,0,0,.874.635,2.466,2.466,0,0,0,1.235.248,4.755,4.755,0,0,0,.843-.161,6.764,6.764,0,0,0,1.958-.944,10.252,10.252,0,0,0,1.65-1.4,16.7,16.7,0,0,0,1.826-2.28,8.312,8.312,0,0,0,1.043-2.043,4.653,4.653,0,0,0,.228-1.137c.011-.157.014-.314.021-.471C637.552,341.173,637.534,340.994,637.517,340.814Z" fill="#fff"/>
        </g>
      </g>
    </g>
  </g>
</svg>
