<svg xmlns="http://www.w3.org/2000/svg" width="267.193" height="265.854" viewBox="0 0 267.193 265.854">
  <g id="Group_1849" data-name="Group 1849" transform="translate(-53.903 -199.639)">
    <g id="freepik--background-simple--inject-2" transform="translate(-1575)">
      <path id="Path_1406" data-name="Path 1406" d="M1895.377,285.9c-1.639-17.386-5.694-33.3-14.229-46.483s-25.066-20.131-40.307-23.965-27.989-.215-39.036,10.951c-11.578,11.7-15.1,29.7-18.347,45.837s-9.49,37.056-22.624,47.008c-14.938,11.337-38.4,5.206-56.941,2.378s-39.067-5.561-54.7,4.8c-12.818,8.5-19.3,24.674-18.518,40.036s5.517,29.564,13.254,42.863c10.648,18.347,42.054,40.6,63.2,33.835l91.181-5.137c17.189-7.89,13.286,4.283,41.338-12.053,16.348-9.49,41.56-43.945,48.969-67.632C1895.117,337.554,1897.414,307.572,1895.377,285.9Z" fill="#cce1e0" opacity="0.3"/>
    </g>
    <g id="Group_1029" data-name="Group 1029" transform="translate(-1575)">
      <g id="Group_1028" data-name="Group 1028">
        <g id="Group_1018" data-name="Group 1018">
          <path id="Path_1407" data-name="Path 1407" d="M1717.856,301.6s-1.531,1.656-2.874.791a3.3,3.3,0,0,1-1.174-1.744l-2.089-21.129,3.759-.141Z" fill="#fd9c45"/>
          <path id="Path_1408" data-name="Path 1408" d="M1714.982,302.393a3.3,3.3,0,0,1-1.174-1.744l-2.089-21.129.877-.033Z" fill="#ec8011"/>
        </g>
        <g id="Group_1019" data-name="Group 1019">
          <path id="Path_1409" data-name="Path 1409" d="M1715.377,301.137s-1.477,1.3-2.843.763a2.473,2.473,0,0,1-1.225-1.183l-2.722-15.142,3.745-.353Z" fill="#fd9c45"/>
          <path id="Path_1410" data-name="Path 1410" d="M1712.534,301.9a2.473,2.473,0,0,1-1.225-1.183l-2.722-15.142.873-.083Z" fill="#ec8011"/>
        </g>
        <g id="Group_1020" data-name="Group 1020">
          <path id="Path_1411" data-name="Path 1411" d="M1711.246,302.032s-1.406,1.763-2.808,1a3.3,3.3,0,0,1-1.3-1.653l-3.622-20.92,3.739-.415Z" fill="#fd9c45"/>
          <path id="Path_1412" data-name="Path 1412" d="M1708.438,303.029a3.3,3.3,0,0,1-1.3-1.653l-3.622-20.92.872-.1Z" fill="#ec8011"/>
        </g>
        <g id="Group_1021" data-name="Group 1021">
          <path id="Path_1413" data-name="Path 1413" d="M1710.628,315.084s-1.2,2.278-2.7,1.374a4.4,4.4,0,0,1-1.5-2.025l-6.126-26.165,3.7-.681Z" fill="#fd9c45"/>
          <path id="Path_1414" data-name="Path 1414" d="M1707.931,316.458a4.4,4.4,0,0,1-1.5-2.025l-6.126-26.165.863-.159Z" fill="#ec8011"/>
        </g>
        <g id="Group_1022" data-name="Group 1022">
          <path id="Path_1415" data-name="Path 1415" d="M1688.005,306.758s-.881,1.759-2.348,1.776a2.469,2.469,0,0,1-1.579-.636l-8.215-13.005,3.338-1.736Z" fill="#fd9c45"/>
          <path id="Path_1416" data-name="Path 1416" d="M1685.657,308.534a2.469,2.469,0,0,1-1.579-.636l-8.215-13.005.779-.4Z" fill="#ec8011"/>
        </g>
        <g id="Group_1023" data-name="Group 1023">
          <path id="Path_1417" data-name="Path 1417" d="M1695.612,305.8s-1.208,1.553-2.65,1.282a2.474,2.474,0,0,1-1.424-.933l-5.51-14.364,3.613-1.048Z" fill="#fd9c45"/>
          <path id="Path_1418" data-name="Path 1418" d="M1692.962,307.084a2.474,2.474,0,0,1-1.424-.933l-5.51-14.364.843-.244Z" fill="#ec8011"/>
        </g>
        <g id="Group_1024" data-name="Group 1024">
          <path id="Path_1419" data-name="Path 1419" d="M1690.85,306.955s-1.033,2.005-2.558,1.529a3.3,3.3,0,0,1-1.6-1.366l-7.653-19.8,3.585-1.141Z" fill="#fd9c45"/>
          <path id="Path_1420" data-name="Path 1420" d="M1688.292,308.484a3.3,3.3,0,0,1-1.6-1.366l-7.653-19.8.836-.267Z" fill="#ec8011"/>
        </g>
        <g id="Group_1025" data-name="Group 1025">
          <path id="Path_1421" data-name="Path 1421" d="M1706.592,317.752s-1.218,2.567-2.716,1.432a5.466,5.466,0,0,1-1.494-2.435l-5.995-30.662,3.719-.569Z" fill="#fd9c45"/>
          <path id="Path_1422" data-name="Path 1422" d="M1703.876,319.184a5.466,5.466,0,0,1-1.494-2.435l-5.995-30.662.867-.132Z" fill="#ec8011"/>
        </g>
        <g id="Group_1026" data-name="Group 1026">
          <path id="Path_1423" data-name="Path 1423" d="M1704,318.13s-.935,2.628-2.543,1.706a5.251,5.251,0,0,1-1.743-2.181l-9.228-28.979,3.63-.989Z" fill="#fd9c45"/>
          <path id="Path_1424" data-name="Path 1424" d="M1701.46,319.836a5.251,5.251,0,0,1-1.743-2.181l-9.228-28.979.847-.231Z" fill="#ec8011"/>
        </g>
        <g id="Group_1027" data-name="Group 1027">
          <path id="Path_1425" data-name="Path 1425" d="M1717.334,296.411l.383,2,6.562,34.229-25.634,8.16L1684.1,308.757l-.7-1.545q6.039-1.3,11.886-2.957a13.366,13.366,0,0,0,.876,2.022c1.151,2.142,3.366,4.727,7.065,3.55s3.977-4.532,3.662-6.936a13.285,13.285,0,0,0-.48-2.176Q1711.968,298.742,1717.334,296.411Z" fill="#cf3567"/>
          <path id="Path_1426" data-name="Path 1426" d="M1683.4,307.213s16.356,13.421,15.246,33.583Z" fill="#9b284d"/>
          <path id="Path_1427" data-name="Path 1427" d="M1717.334,296.411s-5.6,20.41,6.946,36.225Z" fill="#9b284d"/>
        </g>
        <path id="Path_1428" data-name="Path 1428" d="M1695.284,304.255a13.366,13.366,0,0,0,.876,2.022l-12.061,2.48-.7-1.545Q1689.437,305.913,1695.284,304.255Z" fill="#fff"/>
        <path id="Path_1429" data-name="Path 1429" d="M1717.334,296.411l.383,2-10.83,4.484a13.285,13.285,0,0,0-.48-2.176Q1711.968,298.742,1717.334,296.411Z" fill="#fff"/>
      </g>
    </g>
    <g id="Group_1064" data-name="Group 1064" transform="translate(-1575)">
      <g id="Group_1032" data-name="Group 1032">
        <g id="Group_1030" data-name="Group 1030">
          <rect id="Rectangle_266" data-name="Rectangle 266" width="8.984" height="9.884" transform="translate(1813.71 254.134) rotate(-24.861)" fill="#9b284d"/>
        </g>
        <g id="Group_1031" data-name="Group 1031">
          <path id="Rectangle_267" data-name="Rectangle 267" d="M5.538,0h6.4a5.148,5.148,0,0,1,5.148,5.148V5.6a.389.389,0,0,1-.389.389H0a0,0,0,0,1,0,0V5.538A5.538,5.538,0,0,1,5.538,0Z" transform="translate(1808.241 251.97) rotate(-24.861)" fill="#004d4d"/>
        </g>
      </g>
      <g id="Group_1033" data-name="Group 1033">
        <circle id="Ellipse_42" data-name="Ellipse 42" cx="31.241" cy="31.241" r="31.241" transform="translate(1792.93 303.693) rotate(-69.711)" fill="#004d4d"/>
      </g>
      <g id="Group_1063" data-name="Group 1063">
        <g id="Group_1034" data-name="Group 1034">
          <path id="Path_1430" data-name="Path 1430" d="M1856.472,274.208q.24.52.458,1.048a25.844,25.844,0,0,1-13.053,33.3,26.042,26.042,0,0,1-3.745,1.4,25.6,25.6,0,0,1-6.245.989q-.594.021-1.185.012a25.755,25.755,0,0,1-8.607-1.586c-.451-.165-.9-.343-1.333-.53a25.706,25.706,0,0,1-12.73-11.858c-.174-.336-.341-.678-.5-1.023a25.858,25.858,0,0,1,31.017-35.619q.684.209,1.361.457a25.77,25.77,0,0,1,7.591,4.354q.456.377.9.776a25.516,25.516,0,0,1,4.125,4.792A25.958,25.958,0,0,1,1856.472,274.208Z" fill="#dbe6e7"/>
        </g>
        <g id="Group_1035" data-name="Group 1035">
          <path id="Path_1431" data-name="Path 1431" d="M1856.93,275.256a25.844,25.844,0,0,1-13.053,33.3,26.042,26.042,0,0,1-3.745,1.4,25.6,25.6,0,0,1-6.245.989q-.594.021-1.185.012a25.755,25.755,0,0,1-8.607-1.586c-.451-.165-.9-.343-1.333-.53a24.864,24.864,0,0,1,.324-45.154,26.034,26.034,0,0,1,4.922-1.71,25.807,25.807,0,0,1,13.5.437q.684.21,1.36.458a25.76,25.76,0,0,1,7.592,4.353q.456.377.9.777a25.663,25.663,0,0,1,5.574,7.255Z" fill="#fff"/>
        </g>
        <g id="Group_1062" data-name="Group 1062">
          <g id="Group_1040" data-name="Group 1040">
            <g id="Group_1037" data-name="Group 1037">
              <g id="Group_1036" data-name="Group 1036">
                <path id="Path_1432" data-name="Path 1432" d="M1826.174,270.349h0a.434.434,0,0,1-.578-.211l-1.674-3.613a.437.437,0,0,1,.212-.579h0a.436.436,0,0,1,.578.212l1.674,3.613A.435.435,0,0,1,1826.174,270.349Z" fill="#023128"/>
              </g>
            </g>
            <g id="Group_1039" data-name="Group 1039">
              <g id="Group_1038" data-name="Group 1038">
                <path id="Path_1433" data-name="Path 1433" d="M1841.869,304.221h0a.436.436,0,0,1-.578-.212l-1.675-3.613a.437.437,0,0,1,.212-.579h0a.436.436,0,0,1,.578.212l1.674,3.613A.437.437,0,0,1,1841.869,304.221Z" fill="#023128"/>
              </g>
            </g>
          </g>
          <g id="Group_1045" data-name="Group 1045">
            <g id="Group_1042" data-name="Group 1042">
              <g id="Group_1041" data-name="Group 1041">
                <path id="Path_1434" data-name="Path 1434" d="M1818.267,291.911h0a.434.434,0,0,1-.212.578l-3.613,1.674a.436.436,0,0,1-.578-.212h0a.435.435,0,0,1,.212-.578l3.613-1.674A.434.434,0,0,1,1818.267,291.911Z" fill="#023128"/>
              </g>
            </g>
            <g id="Group_1044" data-name="Group 1044">
              <g id="Group_1043" data-name="Group 1043">
                <path id="Path_1435" data-name="Path 1435" d="M1852.138,276.216h0a.434.434,0,0,1-.212.578l-3.613,1.674a.434.434,0,0,1-.578-.212h0a.436.436,0,0,1,.212-.578L1851.56,276A.435.435,0,0,1,1852.138,276.216Z" fill="#023128"/>
              </g>
            </g>
          </g>
          <g id="Group_1050" data-name="Group 1050">
            <g id="Group_1047" data-name="Group 1047">
              <g id="Group_1046" data-name="Group 1046">
                <rect id="Rectangle_268" data-name="Rectangle 268" width="4.853" height="0.871" transform="translate(1838.183 269.687) rotate(-69.853)" fill="#023128"/>
              </g>
            </g>
            <g id="Group_1049" data-name="Group 1049">
              <g id="Group_1048" data-name="Group 1048">
                <path id="Path_1436" data-name="Path 1436" d="M1825.74,304.886h0a.437.437,0,0,1-.259-.559l1.371-3.738a.436.436,0,0,1,.559-.259h0a.434.434,0,0,1,.259.558l-1.371,3.739A.434.434,0,0,1,1825.74,304.886Z" fill="#023128"/>
              </g>
            </g>
          </g>
          <g id="Group_1055" data-name="Group 1055">
            <g id="Group_1052" data-name="Group 1052">
              <g id="Group_1051" data-name="Group 1051">
                <path id="Path_1437" data-name="Path 1437" d="M1817.755,279.493h0a.436.436,0,0,1-.559.259l-3.738-1.371a.436.436,0,0,1-.259-.559h0a.436.436,0,0,1,.559-.259l3.738,1.371A.435.435,0,0,1,1817.755,279.493Z" fill="#023128"/>
              </g>
            </g>
            <g id="Group_1054" data-name="Group 1054">
              <g id="Group_1053" data-name="Group 1053">
                <path id="Path_1438" data-name="Path 1438" d="M1852.8,292.345h0a.435.435,0,0,1-.559.259l-3.739-1.371a.434.434,0,0,1-.259-.558h0a.436.436,0,0,1,.559-.259l3.739,1.37A.437.437,0,0,1,1852.8,292.345Z" fill="#023128"/>
              </g>
            </g>
          </g>
          <g id="Group_1057" data-name="Group 1057">
            <g id="Group_1056" data-name="Group 1056">
              <path id="Path_1439" data-name="Path 1439" d="M1843.662,284.741l-8.455.5-.044-.745,8.455-.5a.374.374,0,0,1,.395.351h0A.374.374,0,0,1,1843.662,284.741Z" fill="#028076"/>
            </g>
          </g>
          <g id="Group_1059" data-name="Group 1059">
            <g id="Group_1058" data-name="Group 1058">
              <path id="Path_1440" data-name="Path 1440" d="M1833.5,285.265l-11.976,5.549a.372.372,0,0,1-.495-.181h0a.374.374,0,0,1,.182-.5l11.3-5.235-4.272-9.22a.372.372,0,0,1,.181-.495h0a.373.373,0,0,1,.5.181Z" fill="#023128"/>
            </g>
          </g>
          <g id="Group_1060" data-name="Group 1060">
            <path id="Path_1441" data-name="Path 1441" d="M1835.211,284.06a2.435,2.435,0,1,1-3.234-1.186A2.434,2.434,0,0,1,1835.211,284.06Z" fill="#023128"/>
          </g>
          <g id="Group_1061" data-name="Group 1061">
            <path id="Path_1442" data-name="Path 1442" d="M1833.6,286.371a1.419,1.419,0,1,1,.691-1.884A1.42,1.42,0,0,1,1833.6,286.371Z" fill="#565960"/>
          </g>
        </g>
      </g>
    </g>
    <g id="Group_1141" data-name="Group 1141" transform="translate(-1575)">
      <g id="Group_1140" data-name="Group 1140">
        <g id="Group_1066" data-name="Group 1066">
          <g id="Group_1065" data-name="Group 1065">
            <path id="Path_1443" data-name="Path 1443" d="M1684.486,413.189a2.67,2.67,0,0,1-1.911-4.534l22.1-22.649a2.669,2.669,0,1,1,3.821,3.728l-22.1,22.65A2.66,2.66,0,0,1,1684.486,413.189Z" fill="#004d4d"/>
          </g>
        </g>
        <g id="Group_1068" data-name="Group 1068">
          <g id="Group_1067" data-name="Group 1067">
            <path id="Path_1444" data-name="Path 1444" d="M1820.787,436.992a2.671,2.671,0,0,1-2.547-1.874l-17.148-54.854a2.669,2.669,0,0,1,5.095-1.593l17.149,54.854a2.674,2.674,0,0,1-2.549,3.467Z" fill="#004d4d"/>
          </g>
        </g>
        <g id="Group_1070" data-name="Group 1070">
          <g id="Group_1069" data-name="Group 1069">
            <path id="Path_1445" data-name="Path 1445" d="M1802.962,393.756s10.674-6.925,27.5-1.125a29.272,29.272,0,0,1,18.129,17.895.972.972,0,0,1-1.607,1.016c-5.8-5.965-20.345-17.374-41.723-9.958Z" fill="#004d4d"/>
          </g>
        </g>
        <g id="Group_1072" data-name="Group 1072">
          <g id="Group_1071" data-name="Group 1071">
            <path id="Path_1446" data-name="Path 1446" d="M1824.905,386.891a14.812,14.812,0,0,0-7.354,1.951c-.1.056-.2.117-.3.177-.287.172-.569.354-.842.546a14.76,14.76,0,0,0-3.657,3.657q-.33.465-.62.959c-7.3,12.366-21.624,36.2-26.236,43.872a5.04,5.04,0,0,1-4.319,2.442h-35.444a13.959,13.959,0,0,1-10.545-4.758,26.142,26.142,0,0,0-9.588-6.853c-9.8-4.174-25.946-37.472-25.946-37.472l-24.041-10.543a8.171,8.171,0,0,1-3.935-11.4,4.232,4.232,0,0,1,2.391-2.281s74.031,20.323,74.393,25.4-8.527,13.61-8.527,13.61l.059.044c2.7,2.033,5.021,7.758,5.021,7.758l.334.082a31.11,31.11,0,0,0,36.6-19.811c2.289-6.432,4.088-11.586,4.088-11.586-1.7-7.135-12.831-30.555-15.182-35.459l-.009-.018a1.091,1.091,0,0,1,.446-1.419c.083-.048.173-.1.268-.151a28.192,28.192,0,0,1,4.859-2.108,23.23,23.23,0,0,1,7.7-1.2c7.531.181,10.434,3.811,10.434,3.811l4.546,1.2a4.6,4.6,0,0,1,3.167,2.9l2.006,5.593a4.626,4.626,0,0,1-.126,3.427l-.7,1.578,2.544.683,4.9,1.314c9.248,3.794,14.543,12.9,17.1,18.755A3.789,3.789,0,0,1,1824.905,386.891Z" fill="#006766"/>
          </g>
        </g>
        <g id="Group_1074" data-name="Group 1074">
          <g id="Group_1073" data-name="Group 1073">
            <path id="Path_1447" data-name="Path 1447" d="M1785.707,351.322a4.476,4.476,0,0,1-3.89-2.252l-10.761-18.786a4.477,4.477,0,1,1,7.77-4.451l10.762,18.785a4.479,4.479,0,0,1-3.881,6.7Z" fill="#338585"/>
          </g>
        </g>
        <g id="Group_1076" data-name="Group 1076">
          <g id="Group_1075" data-name="Group 1075">
            <path id="Path_1448" data-name="Path 1448" d="M1784.327,336.511h-8.95a1.48,1.48,0,0,0-1.288,2.209l2.726,4.815c3.507-.878,4.286-1.1,6.072-1.175a19.515,19.515,0,0,1,5.018.319c.464.1,1.365.313,1.824.444l-2.943-5.181A2.829,2.829,0,0,0,1784.327,336.511Z" fill="#004d4d"/>
          </g>
        </g>
        <g id="Group_1078" data-name="Group 1078">
          <g id="Group_1077" data-name="Group 1077">
            <path id="Path_1449" data-name="Path 1449" d="M1766.4,431.32c-15.727,0-32.217-4.548-32.411-4.6a.6.6,0,1,1,.324-1.161c.228.064,22.966,6.333,40.31,4.066,4.284-.561,9.666-6.219,14.765-15.525,4.278-7.808,7.6-17.01,7.909-21.881a.6.6,0,0,1,.312-.491l15.01-8.22a.6.6,0,1,1,.578,1.058l-14.722,8.062c-.437,5.167-3.7,14.151-8.03,22.052-3.107,5.669-9.272,15.3-15.666,16.14A65.031,65.031,0,0,1,1766.4,431.32Z" fill="#004d4d"/>
          </g>
        </g>
        <g id="Group_1080" data-name="Group 1080">
          <g id="Group_1079" data-name="Group 1079">
            <path id="Path_1450" data-name="Path 1450" d="M1731.162,400.473a33.634,33.634,0,0,1-10.133-1.344c-7.907-2.558-13.561-14.078-14.445-15.972l-34.765-11.216a.6.6,0,1,1,.37-1.147l35.017,11.3a.6.6,0,0,1,.365.327c.058.13,5.9,13,13.829,15.564,8.923,2.887,22.266.114,24.851-.471a.6.6,0,1,1,.266,1.176A75.213,75.213,0,0,1,1731.162,400.473Z" fill="#004d4d"/>
          </g>
        </g>
        <g id="Group_1082" data-name="Group 1082">
          <g id="Group_1081" data-name="Group 1081">
            <path id="Path_1451" data-name="Path 1451" d="M1779.871,356.447a.6.6,0,0,1-.221-1.164c1.946-.766,19.126-7.445,23.088-5.942a.6.6,0,0,1-.428,1.127c-2.986-1.133-17.051,3.9-22.218,5.937A.614.614,0,0,1,1779.871,356.447Z" fill="#004d4d"/>
          </g>
        </g>
        <g id="Group_1084" data-name="Group 1084">
          <g id="Group_1083" data-name="Group 1083">
            <path id="Path_1452" data-name="Path 1452" d="M1781.786,360.568a.6.6,0,0,1-.244-1.154c1.882-.831,18.494-8.075,22.47-6.567a.6.6,0,0,1-.428,1.127c-2.976-1.129-16.568,4.34-21.554,6.542A.605.605,0,0,1,1781.786,360.568Z" fill="#004d4d"/>
          </g>
        </g>
        <g id="Group_1086" data-name="Group 1086">
          <g id="Group_1085" data-name="Group 1085">
            <path id="Path_1453" data-name="Path 1453" d="M1742.031,367.674c-11.243-9.271-18.167-1.6-64.257-10.322a6.116,6.116,0,0,0-6.855,3.819l-.042.11a6.116,6.116,0,0,0,3.893,8.03c16.141,5.019,35.078,10.966,35.078,10.966s7.427,13.262,14.629,15.183c5.226,1.4,17.312.412,23.4-.849,2.5-.519,4.043-3.809,4.132-6.365C1752.178,383.282,1750.865,374.958,1742.031,367.674Z" fill="#003433"/>
          </g>
        </g>
        <g id="Group_1104" data-name="Group 1104">
          <g id="Group_1088" data-name="Group 1088">
            <g id="Group_1087" data-name="Group 1087">
              <path id="Path_1454" data-name="Path 1454" d="M1824.262,414.321a6.4,6.4,0,0,0-3.376,3.5c-1.083,2.912,1.061,12.427,1.061,12.427l-3.335.846s-2.647-9.388-4.988-11.433a6.4,6.4,0,0,0-4.636-1.474l4.537-4.189,4.752-1.2Z" fill="#202a37"/>
            </g>
          </g>
          <g id="Group_1090" data-name="Group 1090">
            <g id="Group_1089" data-name="Group 1089">
              <path id="Path_1455" data-name="Path 1455" d="M1833.445,450.556a6.4,6.4,0,0,1-4.638-1.474c-2.339-2.046-4.985-11.433-4.985-11.433l-3.336.845s2.144,9.515,1.06,12.428a6.4,6.4,0,0,1-3.374,3.5l5.984,1.523,4.752-1.2Z" fill="#202a37"/>
            </g>
          </g>
          <g id="Group_1092" data-name="Group 1092">
            <g id="Group_1091" data-name="Group 1091">
              <path id="Path_1456" data-name="Path 1456" d="M1804.461,447.132a6.4,6.4,0,0,1,1.474-4.638c2.045-2.339,11.433-4.986,11.433-4.986l-.845-3.335s-9.516,2.144-12.428,1.06a6.4,6.4,0,0,1-3.505-3.374l-1.523,5.984,1.2,4.752Z" fill="#202a37"/>
            </g>
          </g>
          <g id="Group_1094" data-name="Group 1094">
            <g id="Group_1093" data-name="Group 1093">
              <path id="Path_1457" data-name="Path 1457" d="M1841.061,437.856a6.4,6.4,0,0,0-3.505-3.376c-2.912-1.082-12.427,1.062-12.427,1.062l-.846-3.336s9.388-2.647,11.433-4.987a6.4,6.4,0,0,0,1.475-4.636l4.189,4.536,1.2,4.753Z" fill="#202a37"/>
            </g>
          </g>
          <g id="Group_1103" data-name="Group 1103">
            <g id="Group_1096" data-name="Group 1096">
              <g id="Group_1095" data-name="Group 1095">
                <path id="Path_1458" data-name="Path 1458" d="M1816.471,409.234a25.456,25.456,0,1,0,29.405,20.772A25.456,25.456,0,0,0,1816.471,409.234Zm20.4,22.321a16.322,16.322,0,0,1-12.045,18.579c-.417.105-.844.2-1.27.27a16.319,16.319,0,0,1-6.8-31.894c.416-.106.843-.2,1.269-.27a16.317,16.317,0,0,1,18.848,13.315Z" fill="#cf3567"/>
              </g>
            </g>
            <g id="Group_1098" data-name="Group 1098">
              <g id="Group_1097" data-name="Group 1097">
                <path id="Path_1459" data-name="Path 1459" d="M1815.5,403.607a31.166,31.166,0,1,0,36,25.431A31.166,31.166,0,0,0,1815.5,403.607Zm24.973,27.328a19.981,19.981,0,0,1-14.746,22.745c-.51.13-1.033.24-1.554.331a19.979,19.979,0,0,1-8.329-39.047c.51-.129,1.033-.241,1.555-.33a19.974,19.974,0,0,1,23.074,16.3Z" fill="#2b3849"/>
              </g>
            </g>
            <g id="Group_1100" data-name="Group 1100">
              <g id="Group_1099" data-name="Group 1099">
                <path id="Path_1460" data-name="Path 1460" d="M1822.983,443.607a9.542,9.542,0,1,0-11.481-7.091A9.552,9.552,0,0,0,1822.983,443.607Z" fill="#9b284d"/>
              </g>
            </g>
            <g id="Group_1102" data-name="Group 1102">
              <g id="Group_1101" data-name="Group 1101">
                <path id="Path_1461" data-name="Path 1461" d="M1822.2,440.3a6.145,6.145,0,1,0-7.394-4.567A6.153,6.153,0,0,0,1822.2,440.3Z" fill="#202a37"/>
              </g>
            </g>
          </g>
        </g>
        <g id="Group_1122" data-name="Group 1122">
          <g id="Group_1106" data-name="Group 1106">
            <g id="Group_1105" data-name="Group 1105">
              <path id="Path_1462" data-name="Path 1462" d="M1702.892,414.321a6.4,6.4,0,0,0-3.376,3.5c-1.082,2.912,1.061,12.427,1.061,12.427l-3.335.846s-2.647-9.388-4.988-11.433a6.4,6.4,0,0,0-4.636-1.474l4.537-4.189,4.752-1.2Z" fill="#202a37"/>
            </g>
          </g>
          <g id="Group_1108" data-name="Group 1108">
            <g id="Group_1107" data-name="Group 1107">
              <path id="Path_1463" data-name="Path 1463" d="M1712.075,450.556a6.4,6.4,0,0,1-4.638-1.474c-2.339-2.046-4.985-11.433-4.985-11.433l-3.336.845s2.144,9.515,1.06,12.428a6.4,6.4,0,0,1-3.374,3.5l5.984,1.523,4.752-1.2Z" fill="#202a37"/>
            </g>
          </g>
          <g id="Group_1110" data-name="Group 1110">
            <g id="Group_1109" data-name="Group 1109">
              <path id="Path_1464" data-name="Path 1464" d="M1683.091,447.132a6.405,6.405,0,0,1,1.474-4.638c2.045-2.339,11.433-4.986,11.433-4.986l-.845-3.335s-9.516,2.144-12.428,1.06a6.4,6.4,0,0,1-3.505-3.374l-1.523,5.984,1.2,4.752Z" fill="#202a37"/>
            </g>
          </g>
          <g id="Group_1112" data-name="Group 1112">
            <g id="Group_1111" data-name="Group 1111">
              <path id="Path_1465" data-name="Path 1465" d="M1719.691,437.856a6.4,6.4,0,0,0-3.505-3.376c-2.912-1.082-12.427,1.062-12.427,1.062l-.845-3.336s9.387-2.647,11.432-4.987a6.4,6.4,0,0,0,1.475-4.636l4.189,4.536,1.2,4.753Z" fill="#202a37"/>
            </g>
          </g>
          <g id="Group_1121" data-name="Group 1121">
            <g id="Group_1114" data-name="Group 1114">
              <g id="Group_1113" data-name="Group 1113">
                <path id="Path_1466" data-name="Path 1466" d="M1695.1,409.234a25.456,25.456,0,1,0,29.405,20.772A25.456,25.456,0,0,0,1695.1,409.234Zm20.4,22.321a16.322,16.322,0,0,1-12.045,18.579c-.416.105-.844.2-1.27.27a16.319,16.319,0,0,1-6.8-31.894c.416-.106.843-.2,1.269-.27a16.317,16.317,0,0,1,18.848,13.315Z" fill="#cf3567"/>
              </g>
            </g>
            <g id="Group_1116" data-name="Group 1116">
              <g id="Group_1115" data-name="Group 1115">
                <path id="Path_1467" data-name="Path 1467" d="M1694.132,403.607a31.166,31.166,0,1,0,36,25.431A31.165,31.165,0,0,0,1694.132,403.607Zm24.973,27.328a19.982,19.982,0,0,1-14.745,22.745c-.51.13-1.034.24-1.555.331a19.979,19.979,0,0,1-8.328-39.047c.51-.129,1.032-.241,1.554-.33a19.974,19.974,0,0,1,23.074,16.3Z" fill="#2b3849"/>
              </g>
            </g>
            <g id="Group_1118" data-name="Group 1118">
              <g id="Group_1117" data-name="Group 1117">
                <path id="Path_1468" data-name="Path 1468" d="M1701.613,443.607a9.542,9.542,0,1,0-11.481-7.091A9.552,9.552,0,0,0,1701.613,443.607Z" fill="#9b284d"/>
              </g>
            </g>
            <g id="Group_1120" data-name="Group 1120">
              <g id="Group_1119" data-name="Group 1119">
                <path id="Path_1469" data-name="Path 1469" d="M1700.832,440.3a6.145,6.145,0,1,0-7.4-4.567A6.153,6.153,0,0,0,1700.832,440.3Z" fill="#202a37"/>
              </g>
            </g>
          </g>
        </g>
        <g id="Group_1124" data-name="Group 1124">
          <g id="Group_1123" data-name="Group 1123">
            <path id="Path_1470" data-name="Path 1470" d="M1781.133,421.546a14.522,14.522,0,0,1-12.789,6.21c-8.067-.474-20.188-1.41-26.138-2.978-9.378-2.471-11.617-14.485-11.617-14.485l9.8-4.046c2.7,2.033,5.021,7.758,5.021,7.758l.334.082a31.111,31.111,0,0,0,36.6-19.811c2.288-6.432,4.088-11.586,4.088-11.586-1.7-7.135-12.832-30.555-15.183-35.459l-.008-.018a1.091,1.091,0,0,1,.445-1.419l.268-.151a28.2,28.2,0,0,1,4.859-2.108c5.191,7.372,17.02,25.406,18.934,39.155C1797.547,395.608,1787.531,412.317,1781.133,421.546Z" fill="#004d4d"/>
          </g>
        </g>
        <g id="Group_1126" data-name="Group 1126">
          <g id="Group_1125" data-name="Group 1125">
            <path id="Path_1471" data-name="Path 1471" d="M1824.905,386.891a14.812,14.812,0,0,0-7.354,1.951c-.1.056-.2.117-.3.177-.285.173-.565.358-.839.55l0,0a27.738,27.738,0,0,1-6-8.061,37.582,37.582,0,0,1-4.192-16.287,27.169,27.169,0,0,1,.172-3.694l4.9,1.314c9.248,3.794,14.543,12.9,17.1,18.755A3.789,3.789,0,0,1,1824.905,386.891Z" fill="#003433"/>
          </g>
        </g>
        <g id="Group_1131" data-name="Group 1131">
          <g id="Group_1128" data-name="Group 1128">
            <g id="Group_1127" data-name="Group 1127">
              <path id="Path_1472" data-name="Path 1472" d="M1739.738,438.148c-7.262-.973-75.532-26.931-73.927-39.218a15.633,15.633,0,0,1,1.387-4.848v0a10.946,10.946,0,0,1,3.777-4.394,11.115,11.115,0,0,1,10.643-.848c11.345,4.965,40.5,18.823,49.8,27.289,5.9,5.37,10.169,12.171,11.347,16.794C1743.636,436.334,1742.823,438.561,1739.738,438.148Z" fill="#006766"/>
            </g>
          </g>
          <g id="Group_1130" data-name="Group 1130">
            <g id="Group_1129" data-name="Group 1129">
              <path id="Path_1473" data-name="Path 1473" d="M1742.765,432.921c-47.228-21.079-75.567-38.839-75.567-38.839v0a10.946,10.946,0,0,1,3.777-4.394,11.115,11.115,0,0,1,10.643-.848c11.345,4.965,40.5,18.823,49.8,27.289C1737.318,421.5,1741.587,428.3,1742.765,432.921Z" fill="#004d4d"/>
            </g>
          </g>
        </g>
        <g id="Group_1133" data-name="Group 1133">
          <g id="Group_1132" data-name="Group 1132">
            <path id="Path_1474" data-name="Path 1474" d="M1798.507,328.545h-38.652a2.584,2.584,0,0,1,0-5.167h38.652a2.584,2.584,0,0,1,0,5.167Z" fill="#338585"/>
          </g>
        </g>
        <g id="Group_1136" data-name="Group 1136">
          <g id="Group_1135" data-name="Group 1135">
            <g id="Group_1134" data-name="Group 1134">
              <path id="Path_1475" data-name="Path 1475" d="M1761.6,329.889h-14.917a3.928,3.928,0,0,1,0-7.855H1761.6a3.928,3.928,0,0,1,0,7.855Z" fill="#003433"/>
            </g>
          </g>
        </g>
        <g id="Group_1139" data-name="Group 1139">
          <g id="Group_1138" data-name="Group 1138">
            <g id="Group_1137" data-name="Group 1137">
              <path id="Path_1476" data-name="Path 1476" d="M1801.381,329.889h-.021l-14.8-.077a3.927,3.927,0,0,1,.02-7.854h.021l14.8.077a3.928,3.928,0,0,1-.02,7.855Z" fill="#003433"/>
            </g>
          </g>
        </g>
      </g>
    </g>
    <g id="freepik--Stars--inject-2" transform="translate(-1575)">
      <path id="Path_1477" data-name="Path 1477" d="M1855.348,199.639l.715,1.31,1.3.715-1.3.715-.715,1.3-.715-1.3-1.3-.715,1.3-.715Z" fill="#cf3567"/>
      <path id="Path_1478" data-name="Path 1478" d="M1870.285,232.012l.715,1.31,1.3.715-1.3.715-.715,1.3-.715-1.3-1.31-.715,1.31-.715Z" fill="#fd615b"/>
      <path id="Path_1479" data-name="Path 1479" d="M1630.922,318.384l.715,1.31,1.31.715-1.31.709-.715,1.31-.715-1.31-1.3-.709,1.3-.715Z" fill="#cf3567"/>
      <path id="Path_1480" data-name="Path 1480" d="M1835.754,207.686l1.651,3.018,3.018,1.651L1837.406,214l-1.651,3.018L1834.109,214l-3.018-1.645,3.018-1.651Z" fill="#ff8b66"/>
      <path id="Path_1481" data-name="Path 1481" d="M1644.309,297.867l1.645,3.005,3.012,1.645-3.012,1.651-1.645,3.005-1.645-3.005-3.011-1.651,3.011-1.645Z" fill="#ff8b66"/>
      <path id="Path_1482" data-name="Path 1482" d="M1874.347,369.649l1.645,3.012,3.005,1.645-3.005,1.645-1.645,3.012-1.645-3.012-3.011-1.645,3.011-1.645Z" fill="#cf3567"/>
    </g>
    <g id="Group_1156" data-name="Group 1156" transform="translate(-1575)">
      <g id="Group_1155" data-name="Group 1155">
        <g id="Group_1151" data-name="Group 1151">
          <path id="Path_1494" data-name="Path 1494" d="M1720.862,289.6l2.015-12.475-3.653-1.449.675-1.7,5.02,1.992-2.25,13.927Z" fill="#e6e9ed"/>
        </g>
        <g id="Group_1154" data-name="Group 1154">
          <path id="Path_1495" data-name="Path 1495" d="M1732.981,298.326l-1.129,2.914-2.2,5.673-1.8,4.644-2.179,5.625-1.818,4.693-2.161,5.576-1.837,4.741h0l-2.065,5.328-19.708-5.984,1.035-4.631.986-4.411,1.091-4.879.979-4.383,1.1-4.908.973-4.354,1.1-4.937.967-4.325.938-4.195Z" fill="#cf3567"/>
          <g id="Group_1152" data-name="Group 1152">
            <path id="Path_1496" data-name="Path 1496" d="M1716.208,293.233l-10.859,5.8.967-4.325,5.391-2.842Z" fill="#fff"/>
            <path id="Path_1497" data-name="Path 1497" d="M1725.973,296.2l-22.7,12.126.973-4.354,17.294-9.118Z" fill="#fff"/>
            <path id="Path_1498" data-name="Path 1498" d="M1732.981,298.326l-1.129,2.914L1701.2,317.615l.979-4.383,29.2-15.394Z" fill="#fff"/>
            <path id="Path_1499" data-name="Path 1499" d="M1729.653,306.913l-1.8,4.644-28.734,15.348.986-4.411Z" fill="#fff"/>
            <path id="Path_1500" data-name="Path 1500" d="M1725.673,317.182l-1.818,4.693-20.873,11.149-4.667-1.417Z" fill="#fff"/>
            <path id="Path_1501" data-name="Path 1501" d="M1721.694,327.451l-1.837,4.741h0l-7.108,3.8-4.6-1.4Z" fill="#fff"/>
          </g>
          <path id="Rectangle_271" data-name="Rectangle 271" d="M.805,0H29.123a.8.8,0,0,1,.8.8V.936a.8.8,0,0,1-.8.8H.8a.8.8,0,0,1-.8-.8V.805A.805.805,0,0,1,.805,0Z" transform="translate(1706.304 288.407) rotate(16.891)" fill="#9b284d"/>
          <path id="Path_1502" data-name="Path 1502" d="M1733.486,296.661l-25.728-7.813a3.588,3.588,0,0,1,.987-1.586,3.638,3.638,0,0,1,.767-.549,3.6,3.6,0,0,1,2.75-.27l18.819,5.714a3.608,3.608,0,0,1,2.4,4.5Z" fill="#e6e9ed"/>
          <g id="Group_1153" data-name="Group 1153" opacity="0.2">
            <path id="Path_1503" data-name="Path 1503" d="M1716.956,332.486c-.02-.006-.041-.013-.061-.021a.83.83,0,0,1-.472-1.075l12.08-31.026a.83.83,0,1,1,1.547.6l-12.08,31.027A.83.83,0,0,1,1716.956,332.486Z" fill="#fff"/>
          </g>
        </g>
      </g>
    </g>
    <g id="Group_1172" data-name="Group 1172" transform="translate(-1575)">
      <g id="Group_1158" data-name="Group 1158">
        <g id="Group_1157" data-name="Group 1157">
          <path id="Path_1504" data-name="Path 1504" d="M1734.418,363.317a279,279,0,0,1-52.924,0c.31-.945.7-2.269,1.143-3.866.123-.442.251-.906.38-1.389,2.08-7.661,5.085-20.056,7.031-28.215.668-2.8,1.212-5.1,1.551-6.537l32.7-.062c.135.571.3,1.284.5,2.115,1.71,7.23,5.564,23.359,8.077,32.635.13.481.258.945.38,1.387C1733.706,361.012,1734.1,362.36,1734.418,363.317Z" fill="#cf3567"/>
        </g>
      </g>
      <g id="Group_1160" data-name="Group 1160">
        <g id="Group_1159" data-name="Group 1159">
          <rect id="Rectangle_272" data-name="Rectangle 272" width="31.302" height="0.533" transform="matrix(0.219, -0.976, 0.976, 0.219, 1686.171, 358.315)" fill="#9b284d"/>
        </g>
      </g>
      <g id="Group_1162" data-name="Group 1162">
        <g id="Group_1161" data-name="Group 1161">
          <rect id="Rectangle_273" data-name="Rectangle 273" width="0.533" height="34.013" transform="translate(1722.133 325.241) rotate(-12.62)" fill="#9b284d"/>
        </g>
      </g>
      <g id="Group_1164" data-name="Group 1164">
        <g id="Group_1163" data-name="Group 1163">
          <path id="Path_1505" data-name="Path 1505" d="M1716.259,342.916a8.71,8.71,0,1,1-8.71-8.71A8.71,8.71,0,0,1,1716.259,342.916Z" fill="#9b284d"/>
        </g>
      </g>
      <g id="Group_1167" data-name="Group 1167">
        <g id="Group_1166" data-name="Group 1166">
          <g id="Group_1165" data-name="Group 1165">
            <path id="Path_1506" data-name="Path 1506" d="M1733.254,359.385a233.966,233.966,0,0,1-25.128,1.3c-11.306,0-20.511-.734-25.489-1.238.123-.442.251-.906.38-1.389a253.2,253.2,0,0,0,49.857-.064C1733,358.479,1733.132,358.943,1733.254,359.385Z" fill="#9b284d"/>
          </g>
        </g>
      </g>
      <g id="Group_1169" data-name="Group 1169">
        <g id="Group_1168" data-name="Group 1168">
          <path id="Path_1507" data-name="Path 1507" d="M1724.8,325.363l-34.749,4.484c.668-2.8,1.212-5.1,1.551-6.537l32.7-.062C1724.431,323.819,1724.6,324.532,1724.8,325.363Z" fill="#9b284d"/>
        </g>
      </g>
      <g id="Group_1171" data-name="Group 1171">
        <g id="Group_1170" data-name="Group 1170">
          <rect id="Rectangle_274" data-name="Rectangle 274" width="38.716" height="4.893" rx="2.262" transform="translate(1688.598 319.642)" fill="#cf3567"/>
        </g>
      </g>
    </g>
  </g>
</svg>
